<svg width="833" height="238" viewBox="0 0 833 238" fill="none" xmlns="http://www.w3.org/2000/svg">
<path d="M207.139 96.4693C202.697 93.534 196.985 92.106 190.241 92.106C180.721 92.106 173.343 95.2 168.345 101.309C163.268 107.338 160.729 117.017 160.729 129.869C160.729 142.007 163.189 151.447 168.028 158.032C172.947 164.617 180.483 168.028 190.479 168.028C199.999 168.028 207.377 164.617 212.534 157.953C217.611 151.368 220.229 141.848 220.229 129.869C220.229 121.935 219.119 115.033 217.056 109.48C214.914 103.768 211.582 99.4046 207.139 96.4693ZM178.262 147.798C175.803 143.514 174.613 137.485 174.613 129.789C174.613 124.712 175.168 120.349 176.12 116.699C177.151 113.209 178.817 110.432 181.118 108.607C183.419 106.703 186.513 105.751 190.4 105.751C194.287 105.751 197.381 106.624 199.682 108.369C201.983 110.115 203.649 112.733 204.759 116.303C205.87 119.873 206.425 124.395 206.425 129.789C206.425 134.549 205.87 138.913 204.839 142.562C203.807 146.211 202.062 149.067 199.761 151.051C197.461 153.034 194.287 154.065 190.4 154.065C184.688 154.145 180.563 152.003 178.262 147.798Z" fill="url(#paint0_linear)"/>
<path d="M274.176 95.676C273.621 95.3587 272.986 95.1207 272.351 94.8827C269.971 94.01 267.671 93.296 265.37 92.82C263.069 92.344 261.165 92.106 259.579 92.106C249.9 92.106 242.601 95.438 237.841 102.102C233.081 108.687 230.701 117.731 230.701 128.996C230.701 136.929 231.574 143.514 233.24 148.512C234.985 153.589 237.365 157.556 240.301 160.412C243.236 163.268 246.568 165.251 250.217 166.362C253.787 167.473 257.516 168.028 261.245 168.028C264.259 168.028 267.353 167.711 270.447 166.997C273.541 166.362 276.477 165.251 279.095 163.903C281.713 162.475 283.934 160.65 285.521 158.429C287.187 156.128 287.98 153.431 287.98 150.416V64.1807H274.176V95.676ZM244.823 129.234C244.823 124.157 245.457 119.873 246.568 116.461C247.758 113.129 249.503 110.511 251.963 108.766C254.422 107.021 257.516 106.148 261.324 106.148C263.466 106.148 265.687 106.465 267.909 107.1C270.051 107.735 272.113 108.687 274.097 109.956V148.909C274.097 150.257 272.907 151.447 270.606 152.399C268.147 153.431 265.053 153.907 261.483 153.907C257.04 153.907 253.629 152.796 251.169 150.654C248.71 148.512 247.044 145.577 246.092 141.927C245.299 138.119 244.823 133.915 244.823 129.234Z" fill="url(#paint1_linear)"/>
<path d="M346.528 97.342C342.403 93.8513 336.929 92.106 330.344 92.106C321.3 92.106 314.16 95.3586 309.162 101.864C304.164 108.29 301.546 117.889 301.546 130.265C301.546 138.278 302.736 145.259 305.195 150.813C307.575 156.445 311.145 160.809 315.588 163.665C320.031 166.521 325.425 167.949 331.455 167.949C335.897 167.949 340.023 167.473 343.593 166.6C347.163 165.727 350.415 164.537 353.271 163.109L353.668 162.951V147.719L352.716 148.274C351.288 149.067 349.543 149.94 347.559 150.813C345.576 151.685 343.434 152.399 341.054 152.955C338.753 153.51 336.215 153.748 333.517 153.748C327.647 153.748 323.125 151.765 320.11 147.877C317.571 144.545 316.064 139.865 315.667 133.835H358.269V133.201C358.349 125.109 357.476 117.889 355.651 111.781C353.668 105.672 350.653 100.753 346.528 97.342ZM343.91 121.539H315.905C316.223 119.159 316.619 117.017 317.175 115.271C318.285 111.701 319.951 109.163 322.093 107.735C324.235 106.227 326.853 105.513 329.947 105.513C334.707 105.513 338.277 107.1 340.419 110.273C342.165 112.812 343.355 116.62 343.91 121.539Z" fill="url(#paint2_linear)"/>
<path d="M427.686 138.04L385.877 70.5273H372.073V165.886H386.036V97.5007L428.717 165.886H441.649V70.5273H427.686V138.04Z" fill="url(#paint3_linear)"/>
<path d="M500.831 97.342C496.706 93.8513 491.232 92.106 484.647 92.106C475.603 92.106 468.463 95.3586 463.465 101.864C458.467 108.29 455.849 117.889 455.849 130.265C455.849 138.278 457.039 145.259 459.498 150.813C461.878 156.445 465.448 160.809 469.891 163.665C474.334 166.521 479.728 167.949 485.758 167.949C490.2 167.949 494.326 167.473 497.896 166.6C501.466 165.727 504.718 164.537 507.574 163.109L507.971 162.951V147.719L507.019 148.274C505.591 149.067 503.846 149.94 501.862 150.813C499.879 151.685 497.737 152.399 495.357 152.955C493.056 153.51 490.518 153.748 487.82 153.748C481.95 153.748 477.428 151.765 474.413 147.877C471.874 144.545 470.367 139.865 469.97 133.835H512.572V133.201C512.652 125.109 511.779 117.889 509.954 111.781C507.892 105.672 504.877 100.753 500.831 97.342ZM498.134 121.539H470.129C470.446 119.159 470.843 117.017 471.398 115.271C472.509 111.701 474.175 109.163 476.317 107.735C478.459 106.227 481.077 105.513 484.171 105.513C488.931 105.513 492.501 107.1 494.643 110.273C496.468 112.812 497.658 116.62 498.134 121.539Z" fill="url(#paint4_linear)"/>
<path d="M563.743 151.527C560.966 152.399 558.11 152.875 555.175 152.875C548.511 152.875 543.751 150.971 540.815 147.243C537.88 143.514 536.452 137.405 536.452 129.155C536.452 121.221 538.039 115.351 541.053 111.86C544.068 108.369 548.749 106.545 554.778 106.545C557.713 106.545 560.49 106.941 563.187 107.735C565.885 108.528 568.582 109.639 571.279 110.987L572.152 111.463V96.7073L571.835 96.5486C569.058 95.1206 565.964 94.01 562.711 93.296C559.459 92.582 556.127 92.2646 552.953 92.2646C549.145 92.2646 545.337 92.8993 541.688 94.0893C538.039 95.3586 534.707 97.4213 531.851 100.357C528.995 103.292 526.694 107.259 525.028 112.098C523.362 116.937 522.569 123.046 522.569 130.186C522.569 137.167 523.441 143.117 525.187 147.798C526.932 152.558 529.233 156.366 532.168 159.222C535.103 162.078 538.356 164.141 542.005 165.331C545.575 166.6 549.304 167.155 553.112 167.155C556.603 167.155 559.935 166.759 563.029 166.045C566.123 165.251 569.137 164.141 571.993 162.633L572.311 162.475V147.719L571.438 148.195C569.058 149.543 566.519 150.654 563.743 151.527Z" fill="url(#paint5_linear)"/>
<path d="M603.965 74.0181H589.685V93.7721H579.927V107.338H589.685V147.005C589.685 153.748 591.351 158.905 594.683 162.395C597.935 165.886 602.457 167.631 608.09 167.631C609.756 167.631 611.501 167.473 613.326 167.076C615.151 166.679 616.896 166.124 618.403 165.331L618.721 165.172V150.416L617.769 151.051C616.896 151.685 615.706 152.161 614.437 152.558C613.088 152.955 611.819 153.193 610.47 153.193C607.931 153.193 606.265 152.479 605.393 151.051C604.441 149.543 603.965 147.163 603.965 143.99V107.338H618.721V93.7721H603.965V74.0181Z" fill="url(#paint6_linear)"/>
<path d="M632.525 94.248V165.886H646.646L646.487 94.248H632.525Z" fill="url(#paint7_linear)"/>
<path d="M629.589 76.4773L639.585 87.2667L649.581 76.4773L639.585 65.7673L629.589 76.4773Z" fill="url(#paint8_linear)"/>
<path d="M706.86 96.4693C702.417 93.534 696.705 92.106 689.962 92.106C680.442 92.106 673.064 95.2 668.066 101.309C662.989 107.338 660.45 117.017 660.45 129.869C660.45 142.007 662.909 151.447 667.749 158.032C672.667 164.617 680.204 168.028 690.2 168.028C699.72 168.028 707.098 164.617 712.255 157.953C717.332 151.368 719.95 141.848 719.95 129.869C719.95 121.935 718.839 115.033 716.777 109.48C714.714 103.768 711.303 99.4046 706.86 96.4693ZM677.983 147.798C675.523 143.514 674.333 137.485 674.333 129.789C674.333 124.712 674.889 120.349 675.841 116.699C676.872 113.209 678.538 110.432 680.839 108.607C683.139 106.703 686.233 105.751 690.121 105.751C694.008 105.751 697.102 106.624 699.403 108.369C701.703 110.115 703.369 112.733 704.48 116.303C705.591 119.873 706.146 124.395 706.146 129.789C706.146 134.549 705.591 138.913 704.559 142.562C703.528 146.211 701.783 149.067 699.482 151.051C697.181 153.034 694.008 154.065 690.121 154.065C684.409 154.145 680.283 152.003 677.983 147.798Z" fill="url(#paint9_linear)"/>
<path d="M785.003 103.847C783.178 99.96 780.323 96.9453 776.594 95.1207C772.865 93.2167 768.105 92.344 762.314 92.344C759.855 92.344 757.316 92.5027 754.698 92.8993C752.08 93.296 749.541 93.772 747.003 94.486C744.464 95.1207 742.084 95.914 739.863 96.866C737.641 97.7387 735.579 98.77 733.833 99.8013L733.516 99.96V165.965H747.479V108.845C749.303 108.131 751.366 107.497 753.429 107.1C755.65 106.624 757.871 106.386 760.013 106.386C762.949 106.386 765.408 106.783 767.232 107.576C768.978 108.369 770.406 109.48 771.358 110.829C772.31 112.177 772.944 113.764 773.341 115.351C773.658 117.017 773.896 118.762 773.896 120.507V165.965H787.859V118.524C787.7 112.574 786.828 107.735 785.003 103.847Z" fill="url(#paint10_linear)"/>
<path d="M131.455 75.3667L107.497 86.1561L100.912 85.3627L103.768 52.0427L131.455 75.3667Z" fill="#80E0E5"/>
<path d="M103.768 52.0427L100.912 85.3627L76.7947 82.348L76.636 82.2687L103.768 51.9634V52.0427Z" fill="#92ECE9"/>
<path d="M107.497 86.156L107.179 86.3147L106.783 86.156L106.307 86.7113L100.198 94.486L100.912 85.3627L107.497 86.156Z" fill="#5EC1DD"/>
<path d="M72.1933 107.735L68.6233 109.401C68.6233 108.211 69.5753 107.179 70.8446 107.179C71.3206 107.179 71.7966 107.417 72.1933 107.735Z" fill="#6ED2E1"/>
<path d="M100.198 94.486L74.4939 106.624C73.7006 105.513 72.3519 104.799 70.8446 104.799C68.3059 104.799 66.2432 106.862 66.2432 109.401C66.2432 109.797 66.3226 110.115 66.4019 110.511L61.1659 112.971L57.1992 104.085L76.6359 82.348H76.7946L100.198 94.486Z" fill="#6ED2E1"/>
<path d="M76.7947 82.348H76.636V82.2687L76.7947 82.348Z" fill="#999999"/>
<path d="M72.9866 109.401C72.9866 110.591 72.0346 111.622 70.7653 111.622C69.5753 111.622 68.6233 110.67 68.5439 109.48L72.1139 107.814C72.6693 108.131 72.9866 108.687 72.9866 109.401Z" fill="#5EC1DD"/>
<path d="M86.0767 112.653L80.6027 119.714H74.3353L61.166 113.05V112.971L66.402 110.511C66.878 112.495 68.7027 114.002 70.8447 114.002C72.9074 114.002 74.732 112.574 75.208 110.67H84.0934L86.0767 112.653Z" fill="#5EC1DD"/>
<path d="M100.198 94.486L87.5841 110.67L85.3628 108.449V108.131H75.2081C75.0495 107.576 74.8115 107.1 74.4941 106.624L100.198 94.486Z" fill="#5EC1DD"/>
<path d="M61.166 112.891L61.0866 112.971L52.9153 108.845L57.1993 104.085L61.166 112.891Z" fill="#80E0E5"/>
<path d="M58.7859 120.825C58.7859 122.015 57.8339 123.046 56.5646 123.046C55.3746 123.046 54.3433 122.094 54.3433 120.825C54.3433 119.635 55.2953 118.603 56.5646 118.603C57.8339 118.603 58.7859 119.635 58.7859 120.825Z" fill="#5EC1DD"/>
<path d="M69.0993 130.662C68.7026 130.979 68.2266 131.217 67.6713 131.217C66.4813 131.217 65.45 130.265 65.45 128.996C65.45 127.885 66.3226 126.933 67.4333 126.854L69.0993 130.662Z" fill="#5EC1DD"/>
<path d="M82.6653 160.967L40.5393 122.649L61.0866 112.971L61.166 113.05L64.1806 119.714H61.0866C60.6106 117.731 58.786 116.303 56.7233 116.303C54.1846 116.303 52.122 118.365 52.122 120.904C52.122 123.443 54.1846 125.505 56.7233 125.505C58.786 125.505 60.6106 124.157 61.0866 122.173H65.2913L66.4813 124.791C64.5773 125.347 63.1493 127.092 63.1493 129.155C63.1493 131.693 65.212 133.756 67.7506 133.756C68.6233 133.756 69.496 133.518 70.21 133.042L82.6653 160.967Z" fill="#5EC1DD"/>
<path d="M61.0866 112.971L40.5393 122.649L52.9153 108.845L61.0866 112.971Z" fill="#6ED2E1"/>
<path d="M61.166 112.971H61.0867L61.166 112.891V112.971Z" fill="#999999"/>
<path d="M74.3354 119.635H64.1807L61.166 112.971L74.3354 119.635Z" fill="#50ADD9"/>
<path d="M69.8133 128.996C69.8133 129.631 69.496 130.186 69.0993 130.662L67.4333 126.854C67.5127 126.854 67.592 126.854 67.6714 126.854C68.782 126.854 69.8133 127.806 69.8133 128.996Z" fill="#50ADD9"/>
<path d="M82.6652 125.743V127.806H72.0346C71.4793 125.823 69.7339 124.474 67.6713 124.474C67.2746 124.474 66.7986 124.553 66.4019 124.633L65.2119 122.015H78.9366L82.6652 125.743Z" fill="#50ADD9"/>
<path d="M82.586 142.483C82.586 143.673 81.634 144.704 80.3646 144.704C79.1746 144.704 78.1433 143.752 78.1433 142.483C78.1433 141.293 79.0953 140.261 80.3646 140.261C81.634 140.341 82.586 141.293 82.586 142.483Z" fill="#50ADD9"/>
<path d="M75.8426 142.562C75.8426 145.101 77.9053 147.163 80.4439 147.163C81.2373 147.163 82.0306 146.925 82.6653 146.529V160.967L70.1306 132.883C71.0826 132.249 71.7966 131.376 72.0346 130.265H82.6653V138.595C82.0306 138.199 81.2373 138.04 80.4439 138.04C77.9053 137.961 75.8426 140.023 75.8426 142.562Z" fill="#50ADD9"/>
<path d="M84.6486 127.806H82.6653V125.743L84.6486 127.806Z" fill="#4297D6"/>
<path d="M96.0726 139.309H95.5966L93.6133 141.293H84.8073C84.49 140.103 83.6966 139.071 82.6653 138.516V130.186H87.108L96.0726 139.309Z" fill="#4297D6"/>
<path d="M111.305 154.621L82.6653 160.888V146.449C83.6966 145.815 84.49 144.863 84.8073 143.673H94.486L94.962 143.593V143.276L96.628 141.61H98.4526L111.305 154.621Z" fill="#4297D6"/>
<path d="M111.305 154.7L110.273 185.878L110.194 186.037L82.6653 160.967L111.305 154.7Z" fill="#50ADD9"/>
<path d="M148.036 146.687L110.273 185.878L111.305 154.7L126.378 151.368L127.727 151.13L148.036 146.687Z" fill="#407DC1"/>
<path d="M126.378 151.368L111.305 154.7V154.621V154.7L126.378 151.368Z" fill="#999999"/>
<path d="M148.988 104.165L107.179 86.3147L107.497 86.156L140.975 90.3607L148.988 104.165Z" fill="#5EC1DD"/>
<path d="M150.495 91.5506L140.975 90.3606L132.804 76.3979L150.495 91.3126V91.5506Z" fill="#92ECE9"/>
<path d="M150.575 104.799L148.988 104.165L140.975 90.3607L150.495 91.5507L150.575 104.799Z" fill="#80E0E5"/>
<path d="M100.912 85.3627L100.198 94.486L76.7947 82.348L100.912 85.3627Z" fill="#80E0E5"/>
<path d="M140.975 90.3607L107.497 86.156L131.455 75.3667L132.804 76.398L140.975 90.3607Z" fill="#6ED2E1"/>
<defs>
<linearGradient id="paint0_linear" x1="190.511" y1="167.991" x2="190.511" y2="92.0965" gradientUnits="userSpaceOnUse">
<stop stop-color="#407DC1"/>
<stop offset="1" stop-color="#80E0E5"/>
</linearGradient>
<linearGradient id="paint1_linear" x1="259.309" y1="167.991" x2="259.309" y2="64.1914" gradientUnits="userSpaceOnUse">
<stop stop-color="#407DC1"/>
<stop offset="1" stop-color="#80E0E5"/>
</linearGradient>
<linearGradient id="paint2_linear" x1="329.804" y1="167.991" x2="329.804" y2="92.0965" gradientUnits="userSpaceOnUse">
<stop stop-color="#407DC1"/>
<stop offset="1" stop-color="#80E0E5"/>
</linearGradient>
<linearGradient id="paint3_linear" x1="406.884" y1="165.877" x2="406.884" y2="70.5335" gradientUnits="userSpaceOnUse">
<stop stop-color="#407DC1"/>
<stop offset="1" stop-color="#80E0E5"/>
</linearGradient>
<linearGradient id="paint4_linear" x1="484.089" y1="167.991" x2="484.089" y2="92.0965" gradientUnits="userSpaceOnUse">
<stop stop-color="#407DC1"/>
<stop offset="1" stop-color="#80E0E5"/>
</linearGradient>
<linearGradient id="paint5_linear" x1="547.506" y1="167.287" x2="547.506" y2="92.2374" gradientUnits="userSpaceOnUse">
<stop stop-color="#407DC1"/>
<stop offset="1" stop-color="#80E0E5"/>
</linearGradient>
<linearGradient id="paint6_linear" x1="599.256" y1="167.709" x2="599.256" y2="74.0569" gradientUnits="userSpaceOnUse">
<stop stop-color="#407DC1"/>
<stop offset="1" stop-color="#80E0E5"/>
</linearGradient>
<linearGradient id="paint7_linear" x1="639.579" y1="165.877" x2="639.579" y2="94.2106" gradientUnits="userSpaceOnUse">
<stop stop-color="#407DC1"/>
<stop offset="1" stop-color="#80E0E5"/>
</linearGradient>
<linearGradient id="paint8_linear" x1="639.579" y1="87.2445" x2="639.579" y2="65.7328" gradientUnits="userSpaceOnUse">
<stop stop-color="#407DC1"/>
<stop offset="1" stop-color="#80E0E5"/>
</linearGradient>
<linearGradient id="paint9_linear" x1="690.241" y1="167.991" x2="690.241" y2="92.0965" gradientUnits="userSpaceOnUse">
<stop stop-color="#407DC1"/>
<stop offset="1" stop-color="#80E0E5"/>
</linearGradient>
<linearGradient id="paint10_linear" x1="760.611" y1="165.877" x2="760.611" y2="92.2374" gradientUnits="userSpaceOnUse">
<stop stop-color="#407DC1"/>
<stop offset="1" stop-color="#80E0E5"/>
</linearGradient>
</defs>
</svg>
