<svg width="202" height="202" viewBox="0 0 202 202" fill="none" xmlns="http://www.w3.org/2000/svg">
<path d="M136.706 44.7863L105.79 58.7531L97.4216 57.7143L101.058 14.7941L136.706 44.7863Z" fill="#80E0E5"/>
<path d="M101.058 14.7941L97.4217 57.7143L66.2752 53.8282L66.1213 53.7512L101.019 14.7556L101.058 14.7941Z" fill="#92ECE9"/>
<path d="M105.79 58.7532L105.444 58.9264L104.867 58.6763L104.29 59.4458L96.4791 69.4496L96.4214 69.4688L97.4218 57.7144L105.79 58.7532Z" fill="#5EC1DD"/>
<path d="M60.4269 86.456L55.7905 88.6491V88.6107C55.7905 87.0524 57.0602 85.8019 58.5993 85.8019C59.2919 85.7826 59.9267 86.052 60.4269 86.456Z" fill="#6ED2E1"/>
<path d="M96.402 69.488L63.3124 85.1093C62.2351 83.6472 60.5229 82.7431 58.5991 82.7431C55.3671 82.7431 52.7122 85.3787 52.7122 88.6299C52.7122 89.1109 52.77 89.5918 52.8854 90.0343L46.1713 93.1893L41.054 81.7619L66.0635 53.809L66.2751 53.8282L96.402 69.488Z" fill="#6ED2E1"/>
<path d="M66.2751 53.8282L66.0828 53.8089L66.1212 53.7512L66.2751 53.8282Z" fill="#999999"/>
<path d="M61.4081 88.6107C61.4081 90.169 60.1383 91.4195 58.5993 91.4195C57.0602 91.4195 55.8098 90.169 55.7905 88.6492L60.4269 86.4561C61.0233 86.9755 61.4081 87.745 61.4081 88.6107Z" fill="#5EC1DD"/>
<path d="M78.2798 92.7854L71.2194 101.827H63.1586L46.2099 93.2663L46.1714 93.1701L52.8855 89.9958C53.5203 92.5545 55.8482 94.4591 58.5992 94.4591C61.2733 94.4591 63.5819 92.67 64.236 90.1498H75.6634L78.2798 92.7854Z" fill="#5EC1DD"/>
<path d="M96.4213 69.488V69.5265L80.2036 90.3421L77.3179 87.4564V87.0332H64.2552C64.0628 86.3214 63.755 85.6673 63.3318 85.0901L96.4213 69.488Z" fill="#5EC1DD"/>
<path d="M96.479 69.4496L96.4406 69.5073L96.4213 69.5266V69.4881H96.4021L96.4213 69.4688L96.479 69.4496Z" fill="#999999"/>
<path d="M46.1714 93.1894L46.0945 93.2086L35.552 87.8989L41.0541 81.762L46.1714 93.1894Z" fill="#80E0E5"/>
<path d="M43.1895 103.328C43.1895 104.886 41.9198 106.137 40.3808 106.137C38.8225 106.137 37.572 104.867 37.572 103.328C37.572 101.77 38.8417 100.519 40.3808 100.519C41.9391 100.519 43.1895 101.789 43.1895 103.328Z" fill="#5EC1DD"/>
<path d="M56.406 116.006C55.9058 116.448 55.2517 116.737 54.5207 116.737C52.9624 116.737 51.7119 115.467 51.7119 113.928C51.7119 112.485 52.8085 111.292 54.2129 111.138L56.406 116.006Z" fill="#5EC1DD"/>
<path d="M73.8551 154.982L19.6614 105.694L46.0945 93.2278L46.2099 93.2855L50.0383 101.846H46.0176C45.3635 99.2878 43.0741 97.4602 40.3808 97.4602C37.1488 97.4602 34.494 100.096 34.494 103.347C34.494 106.598 37.1296 109.234 40.3808 109.234C43.0549 109.234 45.3635 107.445 46.0176 104.925H51.4235L52.924 108.272C50.4616 108.965 48.634 111.235 48.634 113.928C48.634 117.16 51.2696 119.815 54.5208 119.815C55.6751 119.815 56.7717 119.469 57.6759 118.891L73.8551 154.982Z" fill="#5EC1DD"/>
<path d="M46.0945 93.2085L19.6613 105.694L19.6421 105.675L35.552 87.8988L46.0945 93.2085Z" fill="#6ED2E1"/>
<path d="M46.2099 93.2855L46.0945 93.2086L46.1714 93.1893L46.2099 93.2855Z" fill="#999999"/>
<path d="M63.1587 101.827H50.0576L46.21 93.2855L63.1587 101.827Z" fill="#50ADD9"/>
<path d="M57.3297 113.909C57.3297 114.736 56.9641 115.486 56.387 116.006L54.1938 111.119C54.29 111.1 54.4055 111.1 54.5017 111.1C56.0599 111.081 57.3297 112.35 57.3297 113.909Z" fill="#50ADD9"/>
<path d="M73.855 109.715V112.35H60.1574C59.4841 109.811 57.1948 108.041 54.5207 108.041C53.9628 108.041 53.4241 108.118 52.9239 108.253L51.4233 104.905H69.0839L73.855 109.715Z" fill="#50ADD9"/>
<path d="M73.7782 131.262C73.7782 132.82 72.5085 134.07 70.9694 134.07C69.4111 134.07 68.1606 132.801 68.1606 131.262C68.1606 129.703 69.4304 128.453 70.9694 128.453C72.5085 128.453 73.7782 129.703 73.7782 131.262Z" fill="#50ADD9"/>
<path d="M65.0825 131.319C65.0825 134.551 67.7181 137.206 70.9693 137.206C72.0082 137.187 73.0085 136.898 73.855 136.398V154.982L57.6758 118.872C58.8685 118.103 59.7727 116.91 60.1575 115.467H73.855V126.202C72.9893 125.721 72.0082 125.452 70.9501 125.452C67.7181 125.432 65.0825 128.087 65.0825 131.319Z" fill="#50ADD9"/>
<path d="M76.4714 112.35H73.855V109.715L76.4714 112.35Z" fill="#4297D6"/>
<path d="M91.15 127.164H90.5729L87.9758 129.761H76.606C76.202 128.222 75.2016 126.952 73.855 126.202V115.467H79.5687L91.15 127.164Z" fill="#4297D6"/>
<path d="M110.696 146.883V146.96L73.855 155.001V154.982V136.398C75.1824 135.629 76.202 134.359 76.606 132.839H89.0723L89.6879 132.781V132.416L91.8618 130.242H94.1897L110.696 146.883Z" fill="#4297D6"/>
<path d="M110.696 146.941L109.407 187.11L109.272 187.244L73.8742 155.021L73.855 154.982L110.696 146.941Z" fill="#50ADD9"/>
<path d="M73.8742 155.021L73.8549 155.001L73.8357 154.982H73.8549L73.8742 155.021Z" fill="#999999"/>
<path d="M158.022 136.648L109.407 187.11L110.696 146.941L130.146 142.708L131.858 142.323L158.022 136.648Z" fill="#407DC1"/>
<path d="M130.146 142.708L110.696 146.941V146.883L110.735 146.921L130.146 142.708Z" fill="#999999"/>
<path d="M159.272 81.8774L105.444 58.9263L105.79 58.7532L148.883 64.1206L159.272 81.8774Z" fill="#5EC1DD"/>
<path d="M161.158 65.6597L148.884 64.1206L138.38 46.21L161.138 65.3519L161.158 65.6597Z" fill="#92ECE9"/>
<path d="M161.331 82.7623L159.272 81.8774L148.884 64.1206L161.158 65.6597L161.331 82.7623Z" fill="#80E0E5"/>
<path d="M97.4216 57.7142L96.4212 69.4687L96.402 69.4879L66.2751 53.8281L97.4216 57.7142Z" fill="#80E0E5"/>
<path d="M148.884 64.1205L105.79 58.7531L136.706 44.7863L138.38 46.2099L148.884 64.1205Z" fill="#6ED2E1"/>
</svg>
