<svg width="20" height="20" viewBox="0 0 20 20" fill="none" xmlns="http://www.w3.org/2000/svg">
<g clip-path="url(#clip0_1812:907)">
<path d="M6.34375 2.92188C6.34375 2.59766 6.34375 2.30469 6.34375 2.00781C6.34766 0.882813 7.16406 0.0273438 8.28516 0.0117188C9.42578 -0.00390625 10.5703 -0.00390625 11.7109 0.0117188C12.8242 0.0273438 13.6406 0.875 13.6523 1.98828C13.6562 2.29297 13.6523 2.59375 13.6523 2.92188C13.75 2.92188 13.832 2.92188 13.9141 2.92188C15.4883 2.92578 17.0664 2.92187 18.6406 2.9375C18.8164 2.9375 19.0078 2.98047 19.1602 3.0625C19.4414 3.21094 19.5547 3.55078 19.4727 3.85156C19.3867 4.16406 19.1367 4.37891 18.8125 4.39062C18.4414 4.40234 18.0664 4.40234 17.6953 4.39453C17.5508 4.39062 17.5 4.43359 17.4883 4.58594C17.3516 6.83984 17.2109 9.09766 17.0703 11.3516C16.9492 13.3047 16.8359 15.2539 16.6992 17.207C16.5898 18.7891 15.332 19.9805 13.7422 19.9922C11.2539 20.0078 8.76562 20.0078 6.27734 19.9922C4.66016 19.9805 3.41016 18.7227 3.32031 17.1055C3.20703 15.1289 3.0625 13.1562 2.93359 11.1836C2.83594 9.69531 2.73828 8.20703 2.64062 6.71875C2.59375 5.99609 2.54297 5.27734 2.50391 4.55469C2.49609 4.41797 2.4375 4.39062 2.31641 4.39453C1.97266 4.39844 1.63281 4.39844 1.28906 4.39453C0.820312 4.39062 0.492188 4.08984 0.492188 3.66797C0.492188 3.24219 0.816406 2.9375 1.28516 2.93359C2.89844 2.92578 4.51172 2.92578 6.125 2.92188C6.19141 2.92188 6.25391 2.92188 6.34375 2.92188ZM4.01563 4.4375C4.01563 4.52344 4.01172 4.60547 4.01563 4.6875C4.10938 6.33594 4.20312 7.98438 4.30469 9.63281C4.44922 12.0781 4.60156 14.5234 4.74219 16.9727C4.79688 17.9375 5.40625 18.5312 6.37109 18.5312C7.19922 18.5352 8.03125 18.5312 8.85938 18.5312C10.4414 18.5312 12.0273 18.5312 13.6094 18.5312C14.5938 18.5312 15.207 17.9414 15.2578 16.9648C15.2734 16.6602 15.2969 16.3555 15.3164 16.0547C15.4336 14.2031 15.5469 12.3477 15.6641 10.4961C15.7656 8.89453 15.8672 7.29297 15.9648 5.6875C15.9883 5.28125 16.0117 4.875 16.0352 4.4375C12.0156 4.4375 8.03125 4.4375 4.01563 4.4375ZM7.80859 2.90625C9.28516 2.90625 10.7305 2.90625 12.1914 2.90625C12.1914 2.66016 12.1914 2.43359 12.1914 2.20703C12.1914 1.625 12.0859 1.52344 11.4961 1.52344C10.6289 1.52344 9.76172 1.52344 8.89453 1.52344C8.67969 1.52344 8.46875 1.51562 8.25391 1.52734C7.98828 1.54297 7.82031 1.70312 7.8125 1.95703C7.80078 2.26562 7.80859 2.57812 7.80859 2.90625Z" fill="#B0B0B0"/>
<path d="M6.34744 11.4374C6.34744 10.1523 6.34353 8.86319 6.34744 7.57803C6.34744 7.1835 6.62478 6.87881 6.98807 6.84365C7.37088 6.80459 7.70291 7.03506 7.78885 7.40615C7.81229 7.50772 7.80838 7.61709 7.80838 7.72256C7.80838 10.2108 7.80838 12.703 7.80838 15.1913C7.80838 15.246 7.80838 15.2968 7.80838 15.3515C7.79276 15.7734 7.47244 16.0898 7.06229 16.0859C6.66775 16.078 6.35135 15.7577 6.34744 15.3476C6.34353 14.0429 6.34744 12.7421 6.34744 11.4374Z" fill="#B0B0B0"/>
<path d="M9.26931 11.4374C9.26931 10.1523 9.26541 8.86319 9.26931 7.57803C9.26931 7.1835 9.54666 6.87881 9.90993 6.84365C10.2927 6.80459 10.6248 7.03506 10.7107 7.40615C10.7341 7.50772 10.7302 7.61709 10.7302 7.72256C10.7302 10.2108 10.7302 12.703 10.7302 15.1913C10.7302 15.246 10.7302 15.2968 10.7302 15.3515C10.7146 15.7734 10.3943 16.0898 9.98415 16.0859C9.58962 16.078 9.27322 15.7577 9.26931 15.3476C9.26541 14.0429 9.26931 12.7421 9.26931 11.4374Z" fill="#B0B0B0"/>
<path d="M13.6524 11.4375C13.6524 12.7305 13.6524 14.0273 13.6524 15.3203C13.6524 15.7148 13.3828 16.0313 13.0273 16.0781C12.6523 16.125 12.3125 15.8984 12.2148 15.5313C12.1914 15.4453 12.1914 15.3516 12.1914 15.2617C12.1914 12.7266 12.1914 10.1914 12.1914 7.65625C12.1914 7.16406 12.4805 6.84375 12.918 6.83984C13.3555 6.83984 13.6524 7.16406 13.6524 7.64844C13.6563 8.91016 13.6524 10.1758 13.6524 11.4375Z" fill="#B0B0B0"/>
</g>
<defs>
<clipPath id="clip0_1812:907">
<rect width="20" height="20" fill="white"/>
</clipPath>
</defs>
</svg>
