<svg width="50" height="50" viewBox="0 0 50 50" fill="none" xmlns="http://www.w3.org/2000/svg">
<path d="M8.44751 34.1195C10.2737 36.4828 12.7542 37.8109 15.5569 38.7094C14.6682 39.8226 13.8088 40.9066 12.9299 41.9711C12.842 42.0785 12.6272 42.1078 12.471 42.1078C9.08228 42.0492 5.92798 41.1312 3.14478 39.1879C0.742436 37.5277 -0.224361 35.1059 0.0588424 32.2055C0.517827 27.4398 1.63111 22.8207 3.32056 18.3383C5.59595 12.2738 11.2502 8.12344 17.6956 7.85C17.9788 7.84023 18.2717 8.01601 18.5452 8.20156C15.3616 9.09023 12.3342 10.2035 9.57056 11.9711C8.96509 12.3617 8.38892 12.8012 7.82251 13.2602C19.092 8.27969 30.3127 8.32851 41.5139 13.4262C38.5061 11.0629 35.0491 9.62734 31.4163 8.53359C31.6799 8.02578 32.051 7.85 32.5979 7.89883C39.3557 8.55312 44.0725 12.0004 46.6506 18.2699C48.4377 22.6156 49.4924 27.1664 49.9514 31.8344C50.2542 34.8812 49.1018 37.3226 46.553 39.0121C43.7502 40.8676 40.6252 41.7855 37.2561 41.893C36.9045 41.9027 36.6604 41.8246 36.426 41.5316C35.6545 40.5453 34.8538 39.5883 33.9944 38.5434C36.9045 37.6156 39.4827 36.3266 41.3772 33.934C41.2112 34.0219 41.0452 34.1195 40.8792 34.2172C37.3049 36.3559 33.5061 37.8598 29.3362 38.3871C25.5667 38.8656 21.8655 38.5238 18.1936 37.6156C14.9124 36.8051 11.6995 35.7504 8.66236 34.2269C8.62329 34.1781 8.53541 34.1586 8.44751 34.1195ZM37.0999 27.4105C37.0901 24.9398 35.0784 22.8402 32.7249 22.8402C30.3811 22.8402 28.3499 24.9301 28.3401 27.3519C28.3303 29.8227 30.3909 31.9711 32.7542 31.9516C35.1174 31.9223 37.1096 29.8422 37.0999 27.4105ZM21.4358 27.4105C21.4358 24.9691 19.385 22.8402 17.0413 22.8402C14.6877 22.85 12.676 24.9301 12.676 27.3519C12.676 29.8519 14.7073 31.9711 17.0803 31.9516C19.4045 31.932 21.4358 29.8031 21.4358 27.4105Z" fill="#407DC1"/>
</svg>
