<svg width="18" height="18" viewBox="0 0 18 18" fill="none" xmlns="http://www.w3.org/2000/svg">
<path d="M3.04106 12.2833C3.69848 13.1341 4.59145 13.6122 5.60043 13.9357C5.28051 14.3365 4.97113 14.7267 4.65473 15.1099C4.62309 15.1486 4.54574 15.1591 4.48949 15.1591C3.26957 15.138 2.13403 14.8076 1.13207 14.108C0.267228 13.5103 -0.0808187 12.6384 0.0211344 11.5943C0.186369 9.87865 0.58715 8.21576 1.19535 6.60209C2.01449 4.41889 4.05004 2.92475 6.37035 2.82631C6.47231 2.8228 6.57778 2.88608 6.67621 2.95287C5.53012 3.2728 4.44028 3.67358 3.44535 4.30991C3.22738 4.45053 3.01996 4.60873 2.81606 4.77397C6.87309 2.981 10.9125 2.99858 14.945 4.83373C13.8622 3.98295 12.6176 3.46616 11.3098 3.07241C11.4047 2.88959 11.5383 2.82631 11.7352 2.84389C14.168 3.07944 15.8661 4.32045 16.7942 6.57748C17.4375 8.14194 17.8172 9.78022 17.9825 11.4607C18.0914 12.5576 17.6766 13.4365 16.759 14.0447C15.75 14.7126 14.625 15.0431 13.4122 15.0818C13.2856 15.0853 13.1977 15.0572 13.1133 14.9517C12.8356 14.5966 12.5473 14.2521 12.2379 13.8759C13.2856 13.5419 14.2137 13.0779 14.8957 12.2165C14.836 12.2482 14.7762 12.2833 14.7164 12.3185C13.4297 13.0884 12.0622 13.6298 10.561 13.8197C9.20395 13.9919 7.87153 13.8689 6.54965 13.5419C5.3684 13.2501 4.21176 12.8705 3.1184 12.322C3.10434 12.3044 3.0727 12.2974 3.04106 12.2833ZM13.3559 9.86811C13.3524 8.97866 12.6282 8.2228 11.7809 8.2228C10.9372 8.2228 10.2059 8.97514 10.2024 9.84701C10.1989 10.7365 10.9407 11.5099 11.7914 11.5029C12.6422 11.4923 13.3594 10.7435 13.3559 9.86811ZM7.71684 9.86811C7.71684 8.9892 6.97856 8.2228 6.13481 8.2228C5.28754 8.22631 4.56332 8.97514 4.56332 9.84701C4.56332 10.747 5.29457 11.5099 6.14887 11.5029C6.98559 11.4958 7.71684 10.7294 7.71684 9.86811Z" fill="white"/>
</svg>
