<svg width="30" height="30" viewBox="0 0 30 30" fill="none" xmlns="http://www.w3.org/2000/svg">
<path d="M21.8549 0C22.353 0.134766 22.851 0.269531 23.3432 0.410156C23.4721 0.445312 23.5952 0.515625 23.7182 0.580078C25.3881 1.42969 27.1987 3.67383 27.5092 5.38477C27.8373 7.18945 27.4155 8.81836 26.1088 10.1309C21.7729 14.4961 17.4135 18.8379 13.0659 23.1855C12.4799 23.7715 11.7534 24.041 10.9623 24.1934C9.30414 24.5156 7.6518 24.8438 5.99946 25.1836C4.42329 25.5117 2.85297 24.5273 2.46039 22.957C2.29633 22.3008 2.39594 21.6621 2.53071 21.0176C2.86469 19.4648 3.18696 17.9062 3.51508 16.3535C3.66157 15.6562 3.97211 15.0527 4.47602 14.5488C8.79438 10.2246 13.1127 5.89453 17.4311 1.57031C18.2748 0.726562 19.2827 0.222656 20.4663 0.0585938C20.5248 0.0527344 20.5776 0.0234375 20.6303 0.00585938C21.0346 0 21.4448 0 21.8549 0ZM5.34321 22.2656C5.44868 22.2598 5.50141 22.2656 5.56 22.2539C7.23579 21.9727 8.90571 21.6973 10.5815 21.4043C10.7456 21.375 10.9272 21.3105 11.0385 21.1992C15.3393 16.8926 19.6342 12.5859 23.9233 8.26758C24.978 7.20703 24.9721 5.85938 23.9233 4.78711C23.5834 4.43555 23.2319 4.0957 22.8862 3.75C21.8842 2.75391 20.4077 2.75391 19.4116 3.75586C15.3803 7.78711 11.3666 11.8359 7.31196 15.8496C6.69086 16.4648 6.29243 17.1035 6.16352 17.9824C5.95258 19.4121 5.62446 20.8184 5.34321 22.2656Z" fill="#96E5F1"/>
<path d="M3.57373 29.9999C3.02881 29.8183 2.60107 29.5195 2.44873 28.9218C2.19678 27.9609 2.81787 27.1288 3.8081 27.1288C6.00537 27.123 8.19678 27.1288 10.394 27.1288C15.5679 27.1288 20.7358 27.1288 25.9097 27.1288C26.8589 27.1288 27.5386 27.8612 27.4272 28.7636C27.3569 29.3202 27.0171 29.6718 26.5132 29.8827C26.4077 29.9238 26.2964 29.9648 26.1909 29.9999C18.6558 29.9999 11.1147 29.9999 3.57373 29.9999Z" fill="#96E5F1"/>
</svg>
