<svg width="18" height="18" viewBox="0 0 18 18" fill="none" xmlns="http://www.w3.org/2000/svg">
<path d="M15.5742 0H2.42578C1.08633 0 0 1.08633 0 2.42578V15.5742C0 16.9137 1.08633 18 2.42578 18H8.91211L8.92266 11.5664H7.25273C7.03477 11.5664 6.85898 11.3906 6.85898 11.1727L6.85195 9.09844C6.85195 8.88047 7.02773 8.70117 7.2457 8.70117H8.91211V6.69727C8.91211 4.37344 10.3324 3.10781 12.4066 3.10781H14.1082C14.3262 3.10781 14.502 3.28359 14.502 3.50156V5.24883C14.502 5.4668 14.3262 5.64258 14.1082 5.64258H13.0641C11.9355 5.64258 11.7176 6.17695 11.7176 6.96445V8.69766H14.1961C14.4316 8.69766 14.6145 8.90508 14.5863 9.13711L14.3402 11.2113C14.3156 11.4082 14.1469 11.5594 13.95 11.5594H11.7281L11.7176 17.993H15.5742C16.9137 17.993 18 16.9066 18 15.5672V2.42578C18 1.08633 16.9137 0 15.5742 0Z" fill="white"/>
</svg>
