<svg width="40" height="40" viewBox="0 0 40 40" fill="none" xmlns="http://www.w3.org/2000/svg">
<path d="M34.6094 0H5.39062C2.41406 0 0 2.41406 0 5.39062V34.6094C0 37.5859 2.41406 40 5.39062 40H19.8047L19.8281 25.7031H16.1172C15.6328 25.7031 15.2422 25.3125 15.2422 24.8281L15.2266 20.2188C15.2266 19.7344 15.6172 19.3359 16.1016 19.3359H19.8047V14.8828C19.8047 9.71875 22.9609 6.90625 27.5703 6.90625H31.3516C31.8359 6.90625 32.2266 7.29688 32.2266 7.78125V11.6641C32.2266 12.1484 31.8359 12.5391 31.3516 12.5391H29.0312C26.5234 12.5391 26.0391 13.7266 26.0391 15.4766V19.3281H31.5469C32.0703 19.3281 32.4766 19.7891 32.4141 20.3047L31.8672 24.9141C31.8125 25.3516 31.4375 25.6875 31 25.6875H26.0625L26.0391 39.9844H34.6094C37.5859 39.9844 40 37.5703 40 34.5938V5.39062C40 2.41406 37.5859 0 34.6094 0Z" fill="#407DC1"/>
</svg>
