<?xml version="1.0" encoding="utf-8"?>
<!-- Generator: Adobe Illustrator 24.2.1, SVG Export Plug-In . SVG Version: 6.00 Build 0)  -->
<svg version="1.1" id="Layer_1" xmlns="http://www.w3.org/2000/svg" xmlns:xlink="http://www.w3.org/1999/xlink" x="0px" y="0px"
	 viewBox="0 0 512 512" style="enable-background:new 0 0 512 512;" xml:space="preserve">
<style type="text/css">
	.st0{fill:#FFB129;}
	.st1{fill:#FFDA2F;}
</style>
<g>
	<path class="st0" d="M0,422c0-92.7,0-185.3,0-278c0.2-0.6,0.5-1.2,0.6-1.8c2.9-20.2,20.7-35.5,44.6-35.3c47,0.4,94,0.2,141,0
		c5,0,8.4,1.6,11.6,5.4c10.1,12.4,20.6,24.5,30.8,36.8c2.3,2.8,4.7,3.9,8.4,3.9c58.7-0.1,117.3-0.1,176,0c4.8,0,9.7,0.4,14.3,1.6
		c19.4,5.4,30.7,21,30.7,42.1c0,52.3,0,104.7,0,157c0,20.2,0,40.3,0,60.5c-0.1,26.4-17.3,43.8-43.7,44.1c-13.8,0.1-27.7,0-41.5,0
		c-109,0-218,0-327,0.1c-12.1,0-23-2.6-32.2-10.9C5.9,440.6,2.2,431.7,0,422z"/>
	<path class="st1" d="M512,369c-2.5,9.7-6.1,18.6-14,25.3c-6.2,5.3-13.2,8.8-22.2,10c0-2.4,0-4.5,0-6.6c0-67,0-134,0-201
		c0-30.3-18.4-53.9-46.9-60.2c-5.1-1.1-10.6-1.4-15.9-1.4c-56-0.1-112-0.1-167.9,0c-3.5,0-5.8-0.9-8.1-3.6
		c-8.4-10.3-17.3-20.3-25.6-30.7c-6.6-8.2-14.7-11.7-25.2-11.7c-41.7,0.2-83.3,0.1-125,0.1c-2,0-3.9,0-6.5,0
		c1.4-11.1,6.5-19.5,14.5-26.2c8-6.7,17.4-9.4,27.8-9.4c48.3,0,96.6,0,145,0c4,0,6.9,1.5,9.4,4.6c10.4,12.6,21.1,24.9,31.4,37.6
		c2.4,2.9,4.9,3.8,8.5,3.8c58.5-0.1,117,0,175.4-0.1c12.1,0,23,2.9,32.1,11.3c7.4,6.9,11,15.6,13.1,25.2
		C512,213.6,512,291.3,512,369z"/>
</g>
</svg>
