<svg width="18" height="18" viewBox="0 0 18 18" fill="none" xmlns="http://www.w3.org/2000/svg">
<g clip-path="url(#clip0)">
<path d="M9.00025 3.75C4.37956 3.75 0.26213 8.55294 0.0888824 8.75768C-0.0296275 8.89718 -0.0296275 9.10193 0.0888824 9.24216C0.192381 9.3644 1.70587 11.1216 3.88833 12.5211L6.23881 10.1706C6.08581 9.81063 6.00031 9.41538 6.00031 8.99991C6.00031 7.34544 7.34579 5.99997 9.00025 5.99997C9.41576 5.99997 9.81098 6.08546 10.171 6.23846L12.1037 4.30574C11.1617 3.96899 10.1275 3.75 9.00025 3.75Z" fill="#5B5B5B"/>
<path d="M17.9334 8.78636C17.8374 8.6476 16.2452 6.40663 13.5685 4.96216L15.6407 2.88994C15.7869 2.74369 15.7869 2.50593 15.6407 2.35969C15.4944 2.21344 15.2567 2.21344 15.1104 2.35969L2.36066 15.1095C2.21441 15.2558 2.21441 15.4935 2.36066 15.6398C2.4334 15.7133 2.52941 15.75 2.62542 15.75C2.72143 15.75 2.81741 15.7133 2.89092 15.6405L5.24213 13.2893C6.40086 13.8548 7.67884 14.25 9.00031 14.25C13.621 14.25 17.7384 9.44711 17.9117 9.24236C18.0204 9.1126 18.0302 8.92586 17.9334 8.78636ZM9.00031 12.0001C8.30806 12.0001 7.67884 11.7548 7.17035 11.3604L11.3605 7.17018C11.755 7.67867 12.0002 8.30792 12.0002 9.00014C12.0002 10.6546 10.6548 12.0001 9.00031 12.0001Z" fill="#5B5B5B"/>
</g>
<defs>
<clipPath id="clip0">
<rect width="18" height="18" fill="white"/>
</clipPath>
</defs>
</svg>
