<svg width="24" height="24" viewBox="0 0 24 24" fill="none" xmlns="http://www.w3.org/2000/svg">
<g clip-path="url(#clip0)">
<path d="M23.9999 12.4688C23.864 12.8813 23.6765 13.2609 23.3483 13.5609C22.9265 13.9453 22.4343 14.1516 21.8624 14.1562C21.7452 14.1562 21.628 14.1562 21.4687 14.1562C21.4687 14.2547 21.4687 14.3438 21.4687 14.4328C21.4687 16.7297 21.4733 19.0266 21.4687 21.3234C21.464 22.5797 20.6671 23.5922 19.4671 23.8781C19.2562 23.9297 19.0358 23.9438 18.8155 23.9484C17.5968 23.9531 16.378 23.9531 15.1593 23.9531C14.6296 23.9531 14.3483 23.6766 14.3483 23.1469C14.3483 21.3516 14.3296 19.5516 14.3577 17.7562C14.3718 16.9734 13.8374 16.3828 12.9983 16.4156C12.3421 16.4391 11.6858 16.4203 11.0296 16.4203C10.214 16.425 9.73584 16.8984 9.73584 17.7188C9.73584 19.5094 9.73584 21.2953 9.73584 23.0859C9.73584 23.6953 9.47803 23.9531 8.86865 23.9531C7.68272 23.9531 6.49209 23.9531 5.30615 23.9531C3.73115 23.9531 2.62022 22.8422 2.61553 21.2719C2.61084 19.0078 2.61553 16.7391 2.61553 14.475C2.61553 14.3812 2.61553 14.2875 2.61553 14.1844C2.34834 14.1609 2.09053 14.1609 1.84209 14.1141C1.00772 13.95 0.431154 13.4578 0.163966 12.6516C-0.103221 11.8547 0.060841 11.1281 0.599904 10.4859C0.670216 10.4016 0.749904 10.3266 0.824904 10.2516C3.88115 7.2 6.9374 4.14375 9.98897 1.0875C10.4296 0.646875 10.8608 0.192187 11.4796 0C11.8546 0 12.2296 0 12.6046 0C13.1952 0.192187 13.6218 0.609375 14.0437 1.03594C17.0483 4.05 20.0577 7.05469 23.0671 10.0594C23.4702 10.4625 23.8358 10.8797 23.9952 11.4375C23.9999 11.7844 23.9999 12.1266 23.9999 12.4688ZM15.7546 22.5469C15.8718 22.5469 15.9562 22.5469 16.0452 22.5469C16.8655 22.5469 17.6905 22.5094 18.5062 22.5563C19.5233 22.6125 20.0999 22.1156 20.0812 20.9766C20.0343 18.525 20.0671 16.0734 20.0671 13.6172C20.0671 13.0125 20.3296 12.7547 20.939 12.75C21.2437 12.75 21.5483 12.7547 21.853 12.75C22.1812 12.7406 22.4202 12.5859 22.5562 12.2906C22.7015 11.9859 22.6546 11.6953 22.4437 11.4375C22.3827 11.3578 22.3077 11.2875 22.2327 11.2172C19.078 8.05781 15.9187 4.89844 12.7593 1.73906C12.2483 1.22812 11.8452 1.22344 11.339 1.73438C8.50772 4.56094 5.68115 7.39219 2.85459 10.2188C2.46084 10.6125 2.06709 10.9969 1.67803 11.3953C1.43897 11.6438 1.37803 11.9438 1.51397 12.2625C1.6499 12.5766 1.90303 12.7453 2.2499 12.75C2.54522 12.7547 2.84522 12.75 3.14053 12.75C3.76397 12.75 4.02178 13.0078 4.02178 13.6312C4.02178 16.1859 4.02178 18.7406 4.02178 21.2953C4.02178 22.05 4.51397 22.5422 5.26865 22.5469C6.21553 22.5469 7.15772 22.5469 8.10459 22.5469C8.17022 22.5469 8.24053 22.5375 8.32959 22.5328C8.32959 22.4297 8.32959 22.3359 8.32959 22.2422C8.32959 20.7094 8.3249 19.1812 8.32959 17.6484C8.33897 16.2 9.3374 15.1125 10.7812 15.0281C11.6155 14.9813 12.4546 15.0188 13.289 15.0234C13.4296 15.0234 13.5702 15.0469 13.7062 15.075C14.9343 15.3516 15.7452 16.3594 15.7499 17.6437C15.7593 19.1766 15.7499 20.7047 15.7499 22.2375C15.7546 22.3312 15.7546 22.425 15.7546 22.5469Z" fill="#6ED2E1"/>
</g>
<defs>
<clipPath id="clip0">
<rect width="24" height="24" fill="white"/>
</clipPath>
</defs>
</svg>
