<svg width="40" height="40" viewBox="0 0 40 40" fill="none" xmlns="http://www.w3.org/2000/svg">
<g clip-path="url(#clip0_1650:23732)">
<path d="M28.132 20C28.132 24.4922 24.4913 28.1328 19.9991 28.1328C15.507 28.1328 11.8663 24.4922 11.8663 20C11.8663 15.5078 15.507 11.8672 19.9991 11.8672C24.4913 11.8672 28.132 15.5078 28.132 20Z" fill="#407DC1"/>
<path d="M39.0156 5.60938C38.625 4.54688 38 3.59375 37.1875 2.80469C36.3984 1.99219 35.4453 1.36719 34.3828 0.976562C33.5234 0.640625 32.2344 0.242188 29.8516 0.140625C27.2891 0.0234375 26.5156 0 20 0C13.4844 0 12.7109 0.0234375 10.1406 0.140625C7.76563 0.25 6.46875 0.648438 5.60938 0.984375C4.54688 1.375 3.59375 2 2.80469 2.8125C2 3.59375 1.375 4.55469 0.984375 5.60938C0.648438 6.46875 0.25 7.75781 0.148438 10.1406C0.0234375 12.7109 0 13.4844 0 20C0 26.5156 0.0234375 27.2891 0.140625 29.8594C0.25 32.2344 0.648438 33.5312 0.976562 34.3906C1.36719 35.4531 1.99219 36.4062 2.80469 37.1953C3.59375 38.0078 4.54688 38.6328 5.60938 39.0234C6.46875 39.3594 7.75781 39.7578 10.1406 39.8672C12.7109 39.9844 13.4844 40.0078 20 40.0078C26.5156 40.0078 27.2891 39.9844 29.8594 39.8672C32.2344 39.7578 33.5312 39.3594 34.3906 39.0234C36.5156 38.2031 38.2031 36.5234 39.0234 34.3906C39.3594 33.5312 39.7578 32.2422 39.8672 29.8594C39.9844 27.2891 40.0078 26.5156 40.0078 20C40.0078 13.4844 39.9844 12.7109 39.8672 10.1406C39.75 7.76563 39.3516 6.46875 39.0156 5.60938ZM20 32.5234C13.0781 32.5234 7.46875 26.9141 7.46875 20C7.46875 13.0859 13.0781 7.46875 20 7.46875C26.9219 7.46875 32.5234 13.0781 32.5234 19.9922C32.5234 26.9062 26.9219 32.5234 20 32.5234ZM33.0234 9.90625C31.4062 9.90625 30.0938 8.59375 30.0938 6.97656C30.0938 5.35938 31.4062 4.04688 33.0234 4.04688C34.6406 4.04688 35.9531 5.35938 35.9531 6.97656C35.9531 8.59375 34.6406 9.90625 33.0234 9.90625Z" fill="#407DC1"/>
</g>
<defs>
<clipPath id="clip0_1650:23732">
<rect width="40" height="40" fill="white"/>
</clipPath>
</defs>
</svg>
