<svg width="18" height="18" viewBox="0 0 18 18" fill="none" xmlns="http://www.w3.org/2000/svg">
<g clip-path="url(#clip0_1629:289)">
<path d="M12.6594 8.99961C12.6594 11.0211 11.0211 12.6594 8.99961 12.6594C6.97813 12.6594 5.33984 11.0211 5.33984 8.99961C5.33984 6.97813 6.97813 5.33984 8.99961 5.33984C11.0211 5.33984 12.6594 6.97813 12.6594 8.99961Z" fill="white"/>
<path d="M17.557 2.52422C17.3813 2.04609 17.1 1.61719 16.7344 1.26211C16.3793 0.896484 15.9504 0.615234 15.4723 0.439453C15.0855 0.288281 14.5055 0.108984 13.4332 0.0632812C12.2801 0.0105469 11.932 0 9 0C6.06797 0 5.71992 0.0105469 4.56328 0.0632812C3.49453 0.1125 2.91094 0.291797 2.52422 0.442969C2.04609 0.61875 1.61719 0.9 1.26211 1.26562C0.9 1.61719 0.61875 2.04961 0.442969 2.52422C0.291797 2.91094 0.1125 3.49102 0.0667969 4.56328C0.0105469 5.71992 0 6.06797 0 9C0 11.932 0.0105469 12.2801 0.0632812 13.4367C0.1125 14.5055 0.291797 15.0891 0.439453 15.4758C0.615234 15.9539 0.896484 16.3828 1.26211 16.7379C1.61719 17.1035 2.04609 17.3848 2.52422 17.5605C2.91094 17.7117 3.49102 17.891 4.56328 17.9402C5.71992 17.993 6.06797 18.0035 9 18.0035C11.932 18.0035 12.2801 17.993 13.4367 17.9402C14.5055 17.891 15.0891 17.7117 15.4758 17.5605C16.432 17.1914 17.1914 16.4355 17.5605 15.4758C17.7117 15.0891 17.891 14.509 17.9402 13.4367C17.993 12.2801 18.0035 11.932 18.0035 9C18.0035 6.06797 17.993 5.71992 17.9402 4.56328C17.8875 3.49453 17.7082 2.91094 17.557 2.52422ZM9 14.6355C5.88516 14.6355 3.36094 12.1113 3.36094 9C3.36094 5.88867 5.88516 3.36094 9 3.36094C12.1148 3.36094 14.6355 5.88516 14.6355 8.99648C14.6355 12.1078 12.1148 14.6355 9 14.6355ZM14.8605 4.45781C14.1328 4.45781 13.5422 3.86719 13.5422 3.13945C13.5422 2.41172 14.1328 1.82109 14.8605 1.82109C15.5883 1.82109 16.1789 2.41172 16.1789 3.13945C16.1789 3.86719 15.5883 4.45781 14.8605 4.45781Z" fill="white"/>
</g>
<defs>
<clipPath id="clip0_1629:289">
<rect width="18" height="18" fill="white"/>
</clipPath>
</defs>
</svg>
