<svg width="18" height="18" viewBox="0 0 18 18" fill="none" xmlns="http://www.w3.org/2000/svg">
<g clip-path="url(#clip0_1629:307)">
<path d="M8.59883 3.11113C8.59883 3.17793 8.5918 3.24121 8.58125 3.29746C8.5707 3.35723 8.55313 3.40645 8.525 3.45215C8.49688 3.49785 8.46172 3.53301 8.41953 3.55762C8.37734 3.58223 8.32109 3.59629 8.25781 3.59629C8.19453 3.59629 8.1418 3.58574 8.09609 3.56113C8.05391 3.54004 8.01875 3.50488 7.99414 3.4627C7.96953 3.42051 7.95195 3.36777 7.94141 3.30801C7.93086 3.24824 7.92383 3.17793 7.92383 3.1041C7.92383 3.04082 7.93086 2.97754 7.94141 2.92129C7.95195 2.86504 7.96953 2.8123 7.99766 2.77012C8.02578 2.72793 8.06094 2.69277 8.10313 2.66465C8.14531 2.64004 8.20156 2.62598 8.26484 2.62598C8.32813 2.62598 8.38086 2.63652 8.42305 2.66113C8.46523 2.68574 8.50039 2.71738 8.525 2.75957C8.54961 2.80176 8.56719 2.85449 8.57773 2.91074C8.59531 2.97402 8.59883 3.04082 8.59883 3.11113Z" fill="white"/>
<path d="M13.6195 2.46445C13.623 2.45039 13.623 2.43633 13.6125 2.4293C13.6055 2.42227 13.5914 2.41875 13.5703 2.41523C13.5492 2.41523 13.5211 2.41172 13.4824 2.41172C13.4543 2.41172 13.4297 2.41172 13.4121 2.41523C13.3945 2.41523 13.3805 2.41875 13.3699 2.42227C13.3594 2.42578 13.3523 2.43281 13.3488 2.43984C13.3453 2.44688 13.3383 2.45742 13.3383 2.46797L13.1977 2.80547C13.1836 2.83711 13.173 2.87227 13.159 2.91094C13.1449 2.94609 13.1309 2.98477 13.1203 3.02344H13.1168C13.1027 2.98477 13.0887 2.94609 13.0746 2.90742C13.0605 2.87227 13.0465 2.83711 13.0324 2.80195L12.8883 2.46094C12.8848 2.45039 12.8777 2.44336 12.8742 2.43633C12.8707 2.4293 12.8602 2.42578 12.8496 2.42227C12.8391 2.41875 12.825 2.41523 12.8074 2.41523C12.7898 2.41523 12.7652 2.41172 12.7336 2.41172C12.6984 2.41172 12.6703 2.41172 12.6492 2.41523C12.6281 2.41875 12.6141 2.42227 12.607 2.4293C12.6 2.43633 12.5965 2.44688 12.6 2.46094C12.6035 2.475 12.6105 2.49609 12.6246 2.52422L12.9762 3.27656V3.75469H12.2027V2.65078H12.5262C12.5332 2.65078 12.5367 2.64727 12.5437 2.64375C12.5473 2.64023 12.5543 2.6332 12.5543 2.62266C12.5578 2.61211 12.5613 2.60156 12.5613 2.5875C12.5613 2.57344 12.5648 2.55586 12.5648 2.53477C12.5648 2.51367 12.5648 2.49609 12.5613 2.48203C12.5613 2.46797 12.5578 2.45391 12.5543 2.44687C12.5508 2.43633 12.5473 2.43281 12.5437 2.4293C12.5367 2.42578 12.5332 2.42227 12.5262 2.42227H11.6191C11.6121 2.42227 11.6086 2.42578 11.6016 2.4293C11.5945 2.43281 11.591 2.43984 11.591 2.44687C11.5875 2.45742 11.584 2.46797 11.584 2.48203C11.584 2.49609 11.5805 2.51719 11.5805 2.53477C11.5805 2.55586 11.5805 2.57344 11.584 2.5875C11.584 2.60156 11.5875 2.61562 11.591 2.62266C11.5945 2.6332 11.598 2.63672 11.6016 2.64375C11.6051 2.64727 11.6121 2.65078 11.6191 2.65078H11.9426V3.7582H11.475C11.475 3.75469 11.475 3.75117 11.475 3.74766C11.475 3.73359 11.4785 3.71602 11.4785 3.69492C11.4785 3.67383 11.4785 3.65625 11.475 3.64219C11.475 3.62812 11.4715 3.61758 11.468 3.60703C11.4645 3.59648 11.4609 3.59297 11.4539 3.58945C11.4504 3.58594 11.4434 3.58242 11.4363 3.58242H10.9723V3.1957H11.3625C11.3695 3.1957 11.373 3.1957 11.3801 3.18867C11.3836 3.18516 11.3906 3.17812 11.3906 3.17109C11.3941 3.16406 11.3977 3.15352 11.3977 3.13945C11.3977 3.12539 11.4012 3.10781 11.4012 3.08672C11.4012 3.06563 11.4012 3.05156 11.3977 3.0375C11.3977 3.02344 11.3941 3.01289 11.3906 3.00586C11.3871 2.99883 11.3836 2.9918 11.3801 2.98828C11.3766 2.98477 11.3695 2.98125 11.3625 2.98125H10.9723V2.64375H11.4328C11.4398 2.64375 11.4434 2.64023 11.4504 2.63672C11.4539 2.6332 11.4574 2.62617 11.4609 2.61914C11.4645 2.61211 11.468 2.59805 11.468 2.58398C11.468 2.56992 11.4715 2.55234 11.4715 2.53125C11.4715 2.51016 11.4715 2.49258 11.468 2.47852C11.468 2.46445 11.4645 2.45391 11.4609 2.44336C11.4574 2.43281 11.4539 2.4293 11.4504 2.42578C11.4469 2.42227 11.4398 2.42227 11.4328 2.42227H10.7895C10.7684 2.42227 10.7473 2.4293 10.7332 2.44336C10.7191 2.45742 10.7121 2.47852 10.7121 2.51016V3.71602C10.7121 3.73359 10.7156 3.74766 10.7191 3.7582H10.4309V2.46094C10.4309 2.45391 10.4273 2.44688 10.4238 2.44336C10.4203 2.43633 10.4133 2.43281 10.4027 2.4293C10.3922 2.42578 10.3781 2.42227 10.3641 2.42227C10.3465 2.41875 10.3254 2.41875 10.3008 2.41875C10.2762 2.41875 10.2551 2.41875 10.2375 2.42227C10.2199 2.42578 10.2094 2.42578 10.1988 2.4293C10.1883 2.43281 10.1812 2.43633 10.1777 2.44336C10.1742 2.45039 10.1707 2.45391 10.1707 2.46094V3.7582H9.89648C9.9 3.75469 9.90703 3.75117 9.91055 3.75117C9.93164 3.73711 9.9457 3.72656 9.95273 3.71953C9.95977 3.7125 9.9668 3.70547 9.97031 3.69844C9.97383 3.69141 9.97734 3.68438 9.97734 3.67383C9.98086 3.66328 9.98086 3.65273 9.98086 3.64219C9.98086 3.62812 9.98086 3.61406 9.98086 3.59648C9.98086 3.57188 9.98086 3.55078 9.98086 3.5332C9.98086 3.51914 9.97734 3.50508 9.97383 3.49805C9.97031 3.49102 9.9668 3.48398 9.96328 3.48047C9.95977 3.47695 9.95273 3.47695 9.9457 3.47695C9.93516 3.47695 9.92461 3.48398 9.91055 3.49453C9.89297 3.50508 9.87539 3.51914 9.85078 3.5332C9.82617 3.54727 9.79805 3.56133 9.76289 3.57187C9.72773 3.58242 9.68906 3.58945 9.64336 3.58945C9.59062 3.58945 9.54492 3.57891 9.50625 3.56133C9.46406 3.54375 9.42891 3.51562 9.40078 3.47695C9.37266 3.43828 9.34805 3.38906 9.33398 3.3293C9.31992 3.26953 9.30937 3.19922 9.30937 3.11836C9.30937 3.04453 9.31641 2.97773 9.33047 2.91797C9.34453 2.8582 9.36563 2.80898 9.39375 2.7668C9.42188 2.72461 9.45703 2.69297 9.4957 2.67188C9.53438 2.65078 9.58008 2.63672 9.63281 2.63672C9.67852 2.63672 9.7207 2.64375 9.75234 2.6543C9.7875 2.66836 9.81563 2.68242 9.84023 2.69648C9.86484 2.71055 9.88594 2.72461 9.9 2.73867C9.91406 2.74922 9.92813 2.75625 9.93867 2.75625C9.9457 2.75625 9.94922 2.75273 9.95625 2.74922C9.95977 2.7457 9.96328 2.73867 9.9668 2.72812C9.97031 2.71758 9.97383 2.70703 9.97383 2.69297C9.97383 2.67891 9.97734 2.66133 9.97734 2.64023C9.97734 2.61914 9.97734 2.60508 9.97734 2.59102C9.97734 2.57695 9.97383 2.56641 9.97383 2.55586C9.97031 2.54531 9.97031 2.53828 9.9668 2.53125C9.96328 2.52422 9.95625 2.51719 9.94922 2.50664C9.93867 2.49609 9.92461 2.48555 9.9 2.47148C9.87891 2.45742 9.85078 2.44688 9.82266 2.43633C9.79453 2.42578 9.76289 2.41875 9.73125 2.41172C9.69609 2.40469 9.66445 2.40117 9.62578 2.40117C9.53789 2.40117 9.45703 2.41875 9.3832 2.45039C9.30937 2.48203 9.24609 2.53125 9.19336 2.59102C9.14062 2.6543 9.10195 2.73164 9.07031 2.81953C9.04219 2.91094 9.02461 3.01641 9.02461 3.13242C9.02461 3.24844 9.03867 3.35039 9.06328 3.43477C9.09141 3.52266 9.12656 3.59297 9.1793 3.65273C9.21445 3.69492 9.26016 3.73008 9.30586 3.7582H8.55703C8.61328 3.72656 8.66602 3.68789 8.7082 3.63516C8.76094 3.57188 8.79961 3.49453 8.82773 3.40664C8.85586 3.31523 8.86641 3.21328 8.86641 3.09727C8.86641 2.97773 8.85234 2.87227 8.82773 2.78437C8.80313 2.69648 8.76445 2.62266 8.71523 2.56641C8.66602 2.51016 8.60273 2.46445 8.52891 2.43984C8.45508 2.41172 8.36719 2.39766 8.27227 2.39766C8.17031 2.39766 8.07891 2.41523 8.00156 2.44687C7.92422 2.48203 7.86094 2.52773 7.8082 2.59102C7.75547 2.6543 7.7168 2.73164 7.68867 2.81953C7.66055 2.90742 7.65 3.00938 7.65 3.12188C7.65 3.24492 7.66055 3.35039 7.68867 3.43828C7.71328 3.52617 7.75195 3.6 7.80117 3.65977C7.83633 3.69844 7.87852 3.73359 7.92422 3.7582H7.31602C7.33711 3.74766 7.35469 3.73359 7.37227 3.71953C7.41445 3.68438 7.44961 3.63867 7.47422 3.58242C7.49883 3.52617 7.51289 3.46289 7.51289 3.38906C7.51289 3.33281 7.50586 3.28359 7.48828 3.24492C7.47422 3.20273 7.45312 3.16758 7.425 3.13945C7.40039 3.10781 7.36875 3.0832 7.33711 3.06211C7.30195 3.04102 7.27031 3.01992 7.23516 3.00234C7.2 2.98477 7.16836 2.9707 7.1332 2.95312C7.10156 2.93906 7.06992 2.92148 7.04531 2.90391C7.01719 2.88633 6.99961 2.86523 6.98203 2.84414C6.96797 2.82305 6.95742 2.79492 6.95742 2.76328C6.95742 2.74219 6.96094 2.72461 6.96797 2.70352C6.975 2.68594 6.98555 2.66836 6.99961 2.65781C7.01367 2.64375 7.03125 2.6332 7.05234 2.62617C7.07344 2.61914 7.09805 2.61563 7.12617 2.61563C7.16133 2.61563 7.19648 2.61914 7.22813 2.62969C7.25977 2.64023 7.28437 2.65078 7.30898 2.66133C7.33359 2.67188 7.35117 2.68242 7.36875 2.69297C7.38633 2.70352 7.39688 2.70703 7.40391 2.70703C7.41094 2.70703 7.41797 2.70352 7.42148 2.7C7.425 2.69648 7.42852 2.68945 7.43203 2.67891C7.43555 2.66836 7.43555 2.65781 7.43906 2.64375C7.43906 2.62969 7.43906 2.61211 7.43906 2.59102C7.43906 2.57344 7.43906 2.55586 7.43906 2.54531C7.43906 2.53125 7.43906 2.5207 7.43555 2.51367C7.43203 2.50664 7.43203 2.49961 7.42852 2.49258C7.425 2.48906 7.42148 2.48203 7.41445 2.475C7.40742 2.46797 7.39336 2.45742 7.37227 2.44687C7.35117 2.43633 7.32656 2.42578 7.30195 2.41875C7.27383 2.41172 7.2457 2.40469 7.21758 2.39766C7.18594 2.39414 7.15781 2.39062 7.12617 2.39062C7.06641 2.39062 7.01016 2.39766 6.95742 2.41523C6.90469 2.43281 6.85898 2.45742 6.82031 2.48906C6.78164 2.52422 6.75 2.56289 6.72891 2.61563C6.7043 2.66484 6.69375 2.72461 6.69375 2.79141C6.69375 2.85117 6.70078 2.90039 6.71836 2.93906C6.73594 2.98125 6.75352 3.01641 6.78164 3.04805C6.80625 3.07969 6.83437 3.1043 6.86953 3.12539C6.90117 3.14648 6.93633 3.16758 6.97148 3.18516C7.00664 3.20273 7.03828 3.22031 7.07344 3.23438C7.10508 3.24844 7.13672 3.26602 7.16133 3.28359C7.18594 3.30117 7.20703 3.32227 7.22461 3.34336C7.24219 3.36445 7.24922 3.39258 7.24922 3.42422C7.24922 3.45234 7.2457 3.47695 7.23516 3.49805C7.22461 3.51914 7.21406 3.53672 7.19648 3.5543C7.17891 3.56836 7.15781 3.58242 7.1332 3.58945C7.10859 3.59648 7.08047 3.6 7.04883 3.6C6.99961 3.6 6.95742 3.59297 6.92227 3.58242C6.88711 3.57188 6.85195 3.55781 6.82734 3.54375C6.79922 3.52969 6.77813 3.51562 6.76055 3.50508C6.74297 3.49453 6.72891 3.4875 6.72187 3.4875C6.71484 3.4875 6.70781 3.49102 6.7043 3.49453C6.70078 3.49805 6.69375 3.50508 6.69375 3.51562C6.69023 3.52617 6.69023 3.53672 6.68672 3.55078C6.68672 3.56484 6.6832 3.58594 6.6832 3.60703C6.6832 3.63867 6.68672 3.66328 6.69023 3.68086C6.69375 3.69844 6.70078 3.7125 6.70781 3.71953C6.71836 3.73008 6.72891 3.74062 6.75 3.75117C6.75 3.75117 6.75352 3.75469 6.75703 3.75469H5.79023V2.65078H6.11367C6.1207 2.65078 6.12422 2.64727 6.13125 2.64375C6.13477 2.64023 6.1418 2.6332 6.14531 2.62266C6.14883 2.61211 6.15234 2.60156 6.15234 2.5875C6.15234 2.57344 6.15586 2.55586 6.15586 2.53477C6.15586 2.51367 6.15586 2.49609 6.15234 2.48203C6.15234 2.46797 6.14883 2.45391 6.14531 2.44687C6.1418 2.43633 6.13828 2.43281 6.13125 2.4293C6.12773 2.42578 6.1207 2.42227 6.11367 2.42227H5.20664C5.19961 2.42227 5.19609 2.42578 5.18906 2.4293C5.18555 2.43281 5.18203 2.43984 5.17852 2.44687C5.175 2.45742 5.17148 2.46797 5.17148 2.48203C5.16797 2.49609 5.16797 2.51719 5.16797 2.53477C5.16797 2.55586 5.16797 2.57344 5.17148 2.5875C5.17148 2.60156 5.175 2.61562 5.17852 2.62266C5.18203 2.6332 5.18555 2.63672 5.18906 2.64375C5.19258 2.64727 5.19961 2.65078 5.20664 2.65078H5.53008V3.7582H5.0168V2.46094C5.0168 2.45391 5.01328 2.44688 5.00977 2.44336C5.00625 2.43633 4.99922 2.43281 4.98867 2.4293C4.97812 2.42578 4.96406 2.42227 4.95 2.42227C4.93242 2.41875 4.91133 2.41875 4.88672 2.41875C4.86211 2.41875 4.84102 2.41875 4.82344 2.42227C4.80586 2.42578 4.79531 2.42578 4.78477 2.4293C4.77422 2.43281 4.76719 2.43633 4.76367 2.44336C4.76016 2.45039 4.75664 2.45391 4.75664 2.46094V3.7582H4.74609V6.72187H9.46406V17.9895C9.31641 17.9965 9.16875 18 9.02109 18C8.87695 18 8.73281 17.9965 8.59219 17.9895V6.98906H7.91719V17.9332C7.82578 17.9227 7.73789 17.9086 7.64648 17.898V6.98906H7.17539V17.8102C7.10859 17.7961 7.0418 17.782 6.97148 17.7645V6.98906H6.50039V17.6414C6.43359 17.6203 6.3668 17.5992 6.29648 17.5781V6.98906H5.89219V17.4445C5.84648 17.427 5.8043 17.4094 5.75859 17.3953V6.98906H5.3543V17.223C5.30859 17.202 5.26289 17.1844 5.2207 17.1633V6.98906H4.95V17.0297C2.00742 15.5461 0 12.5086 0 9C0 4.02891 4.02891 0 9 0C12.0164 0 14.6848 1.48359 16.316 3.7582H13.2434V3.28008L13.5949 2.52773C13.6055 2.49961 13.616 2.47852 13.6195 2.46445Z" fill="white"/>
<path d="M18.0008 8.9998C18.0008 12.6033 15.8809 15.7146 12.8223 17.149V6.72168H17.709C17.8988 7.44941 18.0008 8.2123 18.0008 8.9998Z" fill="white"/>
<path d="M8.1 5.23848C8.1 6.0084 7.47422 6.63418 6.7043 6.63418C5.93437 6.63418 5.30859 6.0084 5.30859 5.23848C5.30859 4.46855 5.93437 3.84277 6.7043 3.84277C7.47773 3.84629 8.1 4.46855 8.1 5.23848Z" fill="white"/>
<path d="M6.7082 6.63379C5.93828 6.63379 5.3125 6.00801 5.3125 5.23809C5.3125 4.46816 5.93828 3.84238 6.7082 3.84238C7.47812 3.84238 8.10391 4.46816 8.10391 5.23809C8.10039 6.00801 7.47812 6.63379 6.7082 6.63379ZM8.42383 3.55762C8.38164 3.58223 8.32539 3.59629 8.26211 3.59629C8.19883 3.59629 8.14609 3.58574 8.10039 3.56113C8.0582 3.54004 8.02305 3.50488 7.99844 3.4627C7.97383 3.42051 7.95625 3.36777 7.9457 3.30801C7.93516 3.24824 7.92812 3.17793 7.92812 3.1041C7.92812 3.04082 7.93516 2.97754 7.9457 2.92129C7.95625 2.86504 7.97383 2.8123 8.00195 2.77012C8.03008 2.72793 8.06523 2.69277 8.10742 2.66465C8.14961 2.64004 8.20586 2.62598 8.26914 2.62598C8.33242 2.62598 8.38516 2.63652 8.42734 2.66113C8.46953 2.68574 8.50469 2.71738 8.5293 2.75957C8.55391 2.80176 8.57148 2.85449 8.58203 2.91074C8.59258 2.97051 8.59961 3.0373 8.59961 3.10762C8.59961 3.17441 8.59258 3.2377 8.58203 3.29395C8.57148 3.35371 8.55391 3.40293 8.52578 3.44863C8.50117 3.49785 8.46602 3.53301 8.42383 3.55762Z" fill="white"/>
<path d="M6.7082 3.8457C5.93828 3.8457 5.3125 4.47149 5.3125 5.24141C5.3125 6.01133 5.93828 6.63712 6.7082 6.63712C7.47812 6.63712 8.10391 6.01133 8.10391 5.24141C8.10039 4.46797 7.47812 3.8457 6.7082 3.8457Z" fill="white"/>
</g>
<defs>
<clipPath id="clip0_1629:307">
<rect width="18" height="18" fill="white"/>
</clipPath>
</defs>
</svg>
