<svg id="Layer_4" data-name="Layer 4" xmlns="http://www.w3.org/2000/svg" viewBox="0 0 764.49 764.49"><defs><style>.cls-1{fill:#ffffff;}.cls-2{fill:#fff;}</style></defs><path class="cls-1" d="M358.6,161.71a10.83,10.83,0,0,0,4.31,4.16,14.56,14.56,0,0,0,6.81,1.43,13.21,13.21,0,0,0,6.85-1.64,12.7,12.7,0,0,0,4.44-4.45,19.43,19.43,0,0,0,2.39-6.56,43.07,43.07,0,0,0,.7-8,48.09,48.09,0,0,0-.68-8.42,19,19,0,0,0-2.3-6.5,11.38,11.38,0,0,0-4.34-4.18,14,14,0,0,0-6.76-1.47,12.36,12.36,0,0,0-11.29,6.08,19,19,0,0,0-2.39,6.48,41.7,41.7,0,0,0-.7,7.83,49.21,49.21,0,0,0,.68,8.65A19.5,19.5,0,0,0,358.6,161.71Z" transform="translate(-18.84 -14.5)"/><path class="cls-1" d="M219.57,300V174.11h.5V119a1.29,1.29,0,0,1,.28-.82,1.89,1.89,0,0,1,.93-.59,8.82,8.82,0,0,1,1.71-.36,21.43,21.43,0,0,1,2.66-.14,22,22,0,0,1,2.71.14,8.42,8.42,0,0,1,1.69.36,1.92,1.92,0,0,1,.91.59,1.35,1.35,0,0,1,.28.82v55.13h21.82v-47H239.35a1,1,0,0,1-.71-.27,2.23,2.23,0,0,1-.51-.84,6.56,6.56,0,0,1-.32-1.5,20.62,20.62,0,0,1-.1-2.25,21.89,21.89,0,0,1,.1-2.32,6.64,6.64,0,0,1,.32-1.52,1.93,1.93,0,0,1,.51-.82,1.08,1.08,0,0,1,.71-.25h38.57a1.15,1.15,0,0,1,.7.25,1.94,1.94,0,0,1,.53.82,6.71,6.71,0,0,1,.31,1.52,21.6,21.6,0,0,1,.11,2.32,20.34,20.34,0,0,1-.11,2.25,6.62,6.62,0,0,1-.31,1.5,2.25,2.25,0,0,1-.53.84,1.06,1.06,0,0,1-.7.27h-13.7v47h41.14l-.23-.14a9.18,9.18,0,0,1-1.8-1.36,3.59,3.59,0,0,1-.78-1.7,17.26,17.26,0,0,1-.23-3.21c0-.93,0-1.72.08-2.36a7.24,7.24,0,0,1,.28-1.54,1.69,1.69,0,0,1,.5-.84,1.16,1.16,0,0,1,.74-.25,3.33,3.33,0,0,1,1.67.75,31,31,0,0,0,2.77,1.66,24.83,24.83,0,0,0,4,1.65,17.93,17.93,0,0,0,5.44.75,11.66,11.66,0,0,0,3.63-.52,8,8,0,0,0,2.73-1.48,6.07,6.07,0,0,0,1.71-2.36,7.87,7.87,0,0,0,.59-3.13,5.77,5.77,0,0,0-1-3.43,10.51,10.51,0,0,0-2.64-2.54,27.24,27.24,0,0,0-3.7-2.09c-1.38-.65-2.81-1.34-4.27-2.07a37.22,37.22,0,0,1-4.27-2.47,17.17,17.17,0,0,1-3.7-3.32,15.66,15.66,0,0,1-2.65-4.56,19.9,19.9,0,0,1,.45-13.74,15.1,15.1,0,0,1,3.93-5.31,16.31,16.31,0,0,1,5.84-3.16,24,24,0,0,1,7.12-1,24.3,24.3,0,0,1,3.89.32,25.21,25.21,0,0,1,3.64.86,19.09,19.09,0,0,1,3,1.23,7,7,0,0,1,1.73,1.13,3.53,3.53,0,0,1,.57.77,4,4,0,0,1,.26.84,9.71,9.71,0,0,1,.15,1.32c0,.53,0,1.19,0,2s0,1.62-.07,2.22a8.43,8.43,0,0,1-.21,1.5,1.87,1.87,0,0,1-.42.86,1,1,0,0,1-.74.28A3.48,3.48,0,0,1,332,129c-.68-.42-1.51-.89-2.5-1.39a22.34,22.34,0,0,0-3.42-1.36,14.12,14.12,0,0,0-4.27-.61,9.48,9.48,0,0,0-3.17.48,6.26,6.26,0,0,0-2.26,1.31,5.27,5.27,0,0,0-1.36,2,7.19,7.19,0,0,0-.44,2.5,5.78,5.78,0,0,0,1,3.38,9.61,9.61,0,0,0,2.67,2.55,27.77,27.77,0,0,0,3.78,2.09q2.11,1,4.31,2.06a40.71,40.71,0,0,1,4.32,2.48,17.7,17.7,0,0,1,3.76,3.31,15.52,15.52,0,0,1,2.66,4.54,16.92,16.92,0,0,1,1,6.16,19.29,19.29,0,0,1-1.61,8.12,16.63,16.63,0,0,1-4.35,5.84,18.33,18.33,0,0,1-2.34,1.66h25.79a19,19,0,0,1-5.23-4.23,24.07,24.07,0,0,1-4.76-9.35A50.58,50.58,0,0,1,344,147.09a45,45,0,0,1,1.69-12.83,26.84,26.84,0,0,1,5-9.7,22.12,22.12,0,0,1,8.27-6.13,28.61,28.61,0,0,1,11.44-2.13,31.36,31.36,0,0,1,11,1.77,19.24,19.24,0,0,1,7.95,5.45,24.16,24.16,0,0,1,4.82,9.29A47.57,47.57,0,0,1,395.77,146a46.72,46.72,0,0,1-1.69,13.08,27.09,27.09,0,0,1-5,9.79,21.6,21.6,0,0,1-6.36,5.2h31.8a20,20,0,0,1-5.44-4.48,25.23,25.23,0,0,1-4.87-9.24,44.51,44.51,0,0,1-1.69-12.89,43.67,43.67,0,0,1,1.86-13.31,28.37,28.37,0,0,1,5.2-9.76,21.86,21.86,0,0,1,8-6,25.41,25.41,0,0,1,10.29-2,23.3,23.3,0,0,1,4.4.41,25,25,0,0,1,3.91,1.07,18.69,18.69,0,0,1,3.24,1.52,9.82,9.82,0,0,1,2,1.47,4.85,4.85,0,0,1,.78,1,4.23,4.23,0,0,1,.34,1c.08.42.14.92.19,1.5s.06,1.29.06,2.13,0,1.68-.08,2.32a6.55,6.55,0,0,1-.3,1.54,2.15,2.15,0,0,1-.51.87,1,1,0,0,1-.67.27,2.84,2.84,0,0,1-1.61-.8A26.09,26.09,0,0,0,437.1,129a19.73,19.73,0,0,0-3.68-1.77,14.59,14.59,0,0,0-5.09-.79,11.68,11.68,0,0,0-5.82,1.43,12.78,12.78,0,0,0-4.35,4.08,19.87,19.87,0,0,0-2.73,6.43,40,40,0,0,0,.07,17.46,17.66,17.66,0,0,0,2.83,6.24,11.45,11.45,0,0,0,4.44,3.66,13.78,13.78,0,0,0,5.85,1.2,15.62,15.62,0,0,0,5.12-.75,21.15,21.15,0,0,0,3.7-1.65c1-.61,1.88-1.15,2.54-1.64a3.06,3.06,0,0,1,1.54-.73,1.17,1.17,0,0,1,.68.19,1.34,1.34,0,0,1,.42.72,8.09,8.09,0,0,1,.26,1.52c.05.66.08,1.53.08,2.62,0,.75,0,1.4-.06,1.92a12.26,12.26,0,0,1-.19,1.37,4.21,4.21,0,0,1-.34,1,4.32,4.32,0,0,1-.68.93,8.37,8.37,0,0,1-1.8,1.34c-.19.13-.41.25-.62.37H451V119a1.29,1.29,0,0,1,.28-.82,1.89,1.89,0,0,1,.93-.59,8.66,8.66,0,0,1,1.71-.36,21.43,21.43,0,0,1,2.66-.14,22.08,22.08,0,0,1,2.71.14,8.42,8.42,0,0,1,1.69.36,1.92,1.92,0,0,1,.91.59,1.35,1.35,0,0,1,.28.82v55.13H474.3a5.46,5.46,0,0,1-.26-1.77V121.11a3.8,3.8,0,0,1,.95-2.88,3.34,3.34,0,0,1,2.35-.89h27.31a1.09,1.09,0,0,1,.68.23,1.73,1.73,0,0,1,.51.8,7,7,0,0,1,.32,1.45,19.89,19.89,0,0,1,.1,2.25,18.7,18.7,0,0,1-.1,2.15,6.52,6.52,0,0,1-.32,1.43,1.91,1.91,0,0,1-.51.8,1,1,0,0,1-.68.25H485.12v14.35h16.53a1.07,1.07,0,0,1,.7.25,1.84,1.84,0,0,1,.53.77,5.69,5.69,0,0,1,.32,1.41,18.88,18.88,0,0,1,.1,2.16,18.6,18.6,0,0,1-.1,2.17,5.62,5.62,0,0,1-.32,1.39,1.65,1.65,0,0,1-.53.75,1.17,1.17,0,0,1-.7.23H485.12v16.57h19.7a1.07,1.07,0,0,1,.7.25,1.83,1.83,0,0,1,.53.8,6,6,0,0,1,.32,1.43,24.25,24.25,0,0,1,0,4.4c0,.18-.05.32-.08.48h19.89v-47h-13.7a1,1,0,0,1-.72-.27,2.23,2.23,0,0,1-.51-.84,6.56,6.56,0,0,1-.32-1.5,20.62,20.62,0,0,1-.1-2.25,21.89,21.89,0,0,1,.1-2.32,6.64,6.64,0,0,1,.32-1.52,1.93,1.93,0,0,1,.51-.82,1.1,1.1,0,0,1,.72-.25H551a1.15,1.15,0,0,1,.7.25,1.85,1.85,0,0,1,.53.82,6.71,6.71,0,0,1,.31,1.52,21.6,21.6,0,0,1,.11,2.32,20.34,20.34,0,0,1-.11,2.25,6.62,6.62,0,0,1-.31,1.5,2.13,2.13,0,0,1-.53.84,1.06,1.06,0,0,1-.7.27h-13.7v47h32.77v-20.3l-15-32a14.77,14.77,0,0,1-1-2.61,1.36,1.36,0,0,1,.25-1.4,2.89,2.89,0,0,1,1.8-.59q1.3-.12,3.63-.12c1.3,0,2.34,0,3.11.09a7.29,7.29,0,0,1,1.84.34,2.3,2.3,0,0,1,1,.66,5.5,5.5,0,0,1,.61,1l6.09,14.44c.59,1.39,1.18,2.86,1.75,4.4s1.17,3.17,1.76,4.86H576q.81-2.44,1.65-4.77c.57-1.54,1.11-3,1.65-4.4l6-14.35a3.93,3.93,0,0,1,.53-1.16,2.24,2.24,0,0,1,1-.7,5.4,5.4,0,0,1,1.73-.37c.73-.06,1.7-.09,2.92-.09,1.6,0,2.85,0,3.74.12a3,3,0,0,1,1.82.59,1.39,1.39,0,0,1,.23,1.43,17.51,17.51,0,0,1-1,2.58l-15,32v20.3H711.83C642.46,77.46,529.13,14.5,401.08,14.5,190,14.5,18.84,185.63,18.84,396.74c0,149,85.22,278,209.56,341.11V311.34h11.43V743.41q2.83,1.32,5.72,2.6V311.31h17.2V753.18q2.83,1.11,5.7,2.16v-444h17.17V761.23q4.28,1.37,8.61,2.62V311.34h20V769.07q4.26,1,8.57,1.89V311.31h20V774.57q5.7.87,11.45,1.57V311.31h28.62V778.56q9.06.42,18.23.43,9.46,0,18.81-.46V300Z" transform="translate(-18.84 -14.5)"/><path class="cls-1" d="M771,300H563.35v443c130-61,220-193.09,220-346.19A383.23,383.23,0,0,0,771,300Z" transform="translate(-18.84 -14.5)"/><path class="cls-2" d="M581.28,174.47a1.35,1.35,0,0,1-.28.82,1.92,1.92,0,0,1-.91.59,8.35,8.35,0,0,1-1.71.36,22.19,22.19,0,0,1-2.69.14,21.79,21.79,0,0,1-2.7-.14,8.66,8.66,0,0,1-1.71-.36,1.78,1.78,0,0,1-.91-.59,1.4,1.4,0,0,1-.26-.82v-.36H537.34v.36a1.34,1.34,0,0,1-.27.82,2,2,0,0,1-.91.59,8.62,8.62,0,0,1-1.72.36,21.9,21.9,0,0,1-2.68.14,22.19,22.19,0,0,1-2.69-.14,8.5,8.5,0,0,1-1.71-.36,1.92,1.92,0,0,1-.91-.59,1.34,1.34,0,0,1-.27-.82v-.36H506.29a5.69,5.69,0,0,1-.24.95,1.89,1.89,0,0,1-.53.8,1.13,1.13,0,0,1-.7.25H477.34a3.34,3.34,0,0,1-2.35-.89,2.76,2.76,0,0,1-.69-1.11H462.12v.36a1.35,1.35,0,0,1-.28.82,1.92,1.92,0,0,1-.91.59,8.42,8.42,0,0,1-1.69.36,26,26,0,0,1-5.39,0,8.35,8.35,0,0,1-1.71-.36,1.87,1.87,0,0,1-.91-.59,1.29,1.29,0,0,1-.28-.82v-.36H439.27a24.46,24.46,0,0,1-2.63,1.2,26.61,26.61,0,0,1-4.4,1.25,27.25,27.25,0,0,1-5.35.5,26.49,26.49,0,0,1-10.15-1.86,21.24,21.24,0,0,1-2.25-1.09h-31.8c-.62.33-1.25.65-1.91.93a28.7,28.7,0,0,1-11.4,2.11,31.67,31.67,0,0,1-11.14-1.79,20.83,20.83,0,0,1-2.7-1.25H329.75a20,20,0,0,1-4.09,1.86,25.53,25.53,0,0,1-7.87,1.18,26.39,26.39,0,0,1-5.26-.5,27.85,27.85,0,0,1-4.29-1.2,19.65,19.65,0,0,1-2.88-1.34H264.22v.36a1.29,1.29,0,0,1-.28.82,1.87,1.87,0,0,1-.91.59,8.35,8.35,0,0,1-1.71.36,25.82,25.82,0,0,1-5.37,0,8.35,8.35,0,0,1-1.71-.36,1.92,1.92,0,0,1-.91-.59,1.34,1.34,0,0,1-.27-.82v-.36H231.24v.36a1.35,1.35,0,0,1-.28.82,1.92,1.92,0,0,1-.91.59,8.42,8.42,0,0,1-1.69.36,26,26,0,0,1-5.39,0,8.35,8.35,0,0,1-1.71-.36,1.87,1.87,0,0,1-.91-.59,1.29,1.29,0,0,1-.28-.82v-.36h-.5V300H419.89v-2.71H563.35V300H771a380.79,380.79,0,0,0-59.14-125.84H581.28Z" transform="translate(-18.84 -14.5)"/><path class="cls-2" d="M563.35,297.24H419.89V778.53a380.12,380.12,0,0,0,143.46-35.6V297.24Z" transform="translate(-18.84 -14.5)"/><path class="cls-2" d="M354.23,311.31V776.14q14.16,1.73,28.62,2.42V311.31Z" transform="translate(-18.84 -14.5)"/><path class="cls-2" d="M322.79,311.31V771q9.91,2.06,20,3.61V311.31Z" transform="translate(-18.84 -14.5)"/><path class="cls-2" d="M294.23,311.34V763.85q9.88,2.86,20,5.22V311.34Z" transform="translate(-18.84 -14.5)"/><path class="cls-2" d="M268.45,311.31v444q8.49,3.15,17.17,5.89V311.31Z" transform="translate(-18.84 -14.5)"/><path class="cls-2" d="M245.55,311.31V746q8.49,3.79,17.2,7.17V311.31Z" transform="translate(-18.84 -14.5)"/><path class="cls-2" d="M228.4,311.34V737.85q5.65,2.86,11.43,5.56V311.34Z" transform="translate(-18.84 -14.5)"/><path class="cls-2" d="M220.35,175.29a1.87,1.87,0,0,0,.91.59,8.35,8.35,0,0,0,1.71.36,26,26,0,0,0,5.39,0,8.42,8.42,0,0,0,1.69-.36,1.92,1.92,0,0,0,.91-.59,1.35,1.35,0,0,0,.28-.82V119a1.35,1.35,0,0,0-.28-.82,1.92,1.92,0,0,0-.91-.59,8.42,8.42,0,0,0-1.69-.36,22,22,0,0,0-2.71-.14,21.43,21.43,0,0,0-2.66.14,8.82,8.82,0,0,0-1.71.36,1.89,1.89,0,0,0-.93.59,1.29,1.29,0,0,0-.28.82v55.49A1.29,1.29,0,0,0,220.35,175.29Z" transform="translate(-18.84 -14.5)"/><path class="cls-2" d="M253.33,175.29a1.92,1.92,0,0,0,.91.59,8.35,8.35,0,0,0,1.71.36,25.82,25.82,0,0,0,5.37,0,8.35,8.35,0,0,0,1.71-.36,1.87,1.87,0,0,0,.91-.59,1.29,1.29,0,0,0,.28-.82V127.11h13.7a1.06,1.06,0,0,0,.7-.27,2.25,2.25,0,0,0,.53-.84,6.62,6.62,0,0,0,.31-1.5,20.34,20.34,0,0,0,.11-2.25,21.6,21.6,0,0,0-.11-2.32,6.71,6.71,0,0,0-.31-1.52,1.94,1.94,0,0,0-.53-.82,1.15,1.15,0,0,0-.7-.25H239.35a1.08,1.08,0,0,0-.71.25,1.93,1.93,0,0,0-.51.82,6.64,6.64,0,0,0-.32,1.52,21.89,21.89,0,0,0-.1,2.32,20.62,20.62,0,0,0,.1,2.25,6.56,6.56,0,0,0,.32,1.5,2.23,2.23,0,0,0,.51.84,1,1,0,0,0,.71.27h13.71v47.36A1.34,1.34,0,0,0,253.33,175.29Z" transform="translate(-18.84 -14.5)"/><path class="cls-2" d="M312.53,176.65a26.39,26.39,0,0,0,5.26.5,25.53,25.53,0,0,0,7.87-1.18,20,20,0,0,0,4.09-1.86,18.33,18.33,0,0,0,2.34-1.66,16.63,16.63,0,0,0,4.35-5.84,19.29,19.29,0,0,0,1.61-8.12,16.92,16.92,0,0,0-1-6.16,15.52,15.52,0,0,0-2.66-4.54,17.7,17.7,0,0,0-3.76-3.31,40.71,40.71,0,0,0-4.32-2.48q-2.19-1.08-4.31-2.06a27.77,27.77,0,0,1-3.78-2.09,9.61,9.61,0,0,1-2.67-2.55,5.78,5.78,0,0,1-1-3.38,7.19,7.19,0,0,1,.44-2.5,5.27,5.27,0,0,1,1.36-2,6.26,6.26,0,0,1,2.26-1.31,9.48,9.48,0,0,1,3.17-.48,14.12,14.12,0,0,1,4.27.61,22.34,22.34,0,0,1,3.42,1.36c1,.5,1.82,1,2.5,1.39a3.48,3.48,0,0,0,1.48.64,1,1,0,0,0,.74-.28,1.87,1.87,0,0,0,.42-.86,8.43,8.43,0,0,0,.21-1.5c.05-.6.07-1.34.07-2.22s0-1.45,0-2a9.71,9.71,0,0,0-.15-1.32,4,4,0,0,0-.26-.84,3.53,3.53,0,0,0-.57-.77,7,7,0,0,0-1.73-1.13,19.09,19.09,0,0,0-3-1.23,25.21,25.21,0,0,0-3.64-.86,24.3,24.3,0,0,0-3.89-.32,24,24,0,0,0-7.12,1,16.31,16.31,0,0,0-5.84,3.16,15.1,15.1,0,0,0-3.93,5.31,19.9,19.9,0,0,0-.45,13.74,15.66,15.66,0,0,0,2.65,4.56,17.17,17.17,0,0,0,3.7,3.32,37.22,37.22,0,0,0,4.27,2.47c1.46.73,2.89,1.42,4.27,2.07a27.24,27.24,0,0,1,3.7,2.09,10.51,10.51,0,0,1,2.64,2.54,5.77,5.77,0,0,1,1,3.43,7.87,7.87,0,0,1-.59,3.13,6.07,6.07,0,0,1-1.71,2.36,8,8,0,0,1-2.73,1.48,11.66,11.66,0,0,1-3.63.52,17.93,17.93,0,0,1-5.44-.75,24.83,24.83,0,0,1-4-1.65,31,31,0,0,1-2.77-1.66,3.33,3.33,0,0,0-1.67-.75,1.16,1.16,0,0,0-.74.25,1.69,1.69,0,0,0-.5.84,7.24,7.24,0,0,0-.28,1.54c0,.64-.08,1.43-.08,2.36a17.26,17.26,0,0,0,.23,3.21,3.59,3.59,0,0,0,.78,1.7,9.18,9.18,0,0,0,1.8,1.36l.23.14a19.65,19.65,0,0,0,2.88,1.34A27.85,27.85,0,0,0,312.53,176.65Z" transform="translate(-18.84 -14.5)"/><path class="cls-2" d="M369.38,177.15a28.7,28.7,0,0,0,11.4-2.11c.66-.28,1.29-.6,1.91-.93a21.6,21.6,0,0,0,6.36-5.2,27.09,27.09,0,0,0,5-9.79A46.72,46.72,0,0,0,395.77,146a47.57,47.57,0,0,0-1.63-13.23,24.16,24.16,0,0,0-4.82-9.29,19.24,19.24,0,0,0-7.95-5.45,31.36,31.36,0,0,0-11-1.77A28.61,28.61,0,0,0,359,118.43a22.12,22.12,0,0,0-8.27,6.13,26.84,26.84,0,0,0-5,9.7A45,45,0,0,0,344,147.09a50.58,50.58,0,0,0,1.58,13.44,24.07,24.07,0,0,0,4.76,9.35,19,19,0,0,0,5.23,4.23,20.83,20.83,0,0,0,2.7,1.25A31.67,31.67,0,0,0,369.38,177.15Zm-13-38.48a19,19,0,0,1,2.39-6.48A12.36,12.36,0,0,1,370,126.11a14,14,0,0,1,6.76,1.47,11.38,11.38,0,0,1,4.34,4.18,19,19,0,0,1,2.3,6.5,48.09,48.09,0,0,1,.68,8.42,43.07,43.07,0,0,1-.7,8,19.43,19.43,0,0,1-2.39,6.56,12.7,12.7,0,0,1-4.44,4.45,13.21,13.21,0,0,1-6.85,1.64,14.56,14.56,0,0,1-6.81-1.43,10.83,10.83,0,0,1-4.31-4.16,19.5,19.5,0,0,1-2.28-6.56,49.21,49.21,0,0,1-.68-8.65A41.7,41.7,0,0,1,356.34,138.67Z" transform="translate(-18.84 -14.5)"/><path class="cls-2" d="M426.89,177.06a27.25,27.25,0,0,0,5.35-.5,26.61,26.61,0,0,0,4.4-1.25,24.46,24.46,0,0,0,2.63-1.2c.21-.12.43-.24.62-.37a8.37,8.37,0,0,0,1.8-1.34,4.32,4.32,0,0,0,.68-.93,4.21,4.21,0,0,0,.34-1,12.26,12.26,0,0,0,.19-1.37c0-.52.06-1.17.06-1.92,0-1.09,0-2-.08-2.62a8.09,8.09,0,0,0-.26-1.52,1.34,1.34,0,0,0-.42-.72,1.17,1.17,0,0,0-.68-.19,3.06,3.06,0,0,0-1.54.73c-.66.49-1.51,1-2.54,1.64a21.15,21.15,0,0,1-3.7,1.65,15.62,15.62,0,0,1-5.12.75,13.78,13.78,0,0,1-5.85-1.2,11.45,11.45,0,0,1-4.44-3.66,17.66,17.66,0,0,1-2.83-6.24,40,40,0,0,1-.07-17.46,19.87,19.87,0,0,1,2.73-6.43,12.78,12.78,0,0,1,4.35-4.08,11.68,11.68,0,0,1,5.82-1.43,14.59,14.59,0,0,1,5.09.79A19.73,19.73,0,0,1,437.1,129a26.09,26.09,0,0,1,2.52,1.77,2.84,2.84,0,0,0,1.61.8,1,1,0,0,0,.67-.27,2.15,2.15,0,0,0,.51-.87,6.55,6.55,0,0,0,.3-1.54c.05-.64.08-1.41.08-2.32s0-1.56-.06-2.13-.11-1.08-.19-1.5a4.23,4.23,0,0,0-.34-1,4.85,4.85,0,0,0-.78-1,9.82,9.82,0,0,0-2-1.47,18.69,18.69,0,0,0-3.24-1.52,25,25,0,0,0-3.91-1.07,23.3,23.3,0,0,0-4.4-.41,25.41,25.41,0,0,0-10.29,2,21.86,21.86,0,0,0-8,6,28.37,28.37,0,0,0-5.2,9.76,43.67,43.67,0,0,0-1.86,13.31,44.51,44.51,0,0,0,1.69,12.89,25.23,25.23,0,0,0,4.87,9.24,20,20,0,0,0,5.44,4.48,21.24,21.24,0,0,0,2.25,1.09A26.49,26.49,0,0,0,426.89,177.06Z" transform="translate(-18.84 -14.5)"/><path class="cls-2" d="M451.23,175.29a1.87,1.87,0,0,0,.91.59,8.35,8.35,0,0,0,1.71.36,26,26,0,0,0,5.39,0,8.42,8.42,0,0,0,1.69-.36,1.92,1.92,0,0,0,.91-.59,1.35,1.35,0,0,0,.28-.82V119a1.35,1.35,0,0,0-.28-.82,1.92,1.92,0,0,0-.91-.59,8.42,8.42,0,0,0-1.69-.36,22.08,22.08,0,0,0-2.71-.14,21.43,21.43,0,0,0-2.66.14,8.66,8.66,0,0,0-1.71.36,1.89,1.89,0,0,0-.93.59,1.29,1.29,0,0,0-.28.82v55.49A1.29,1.29,0,0,0,451.23,175.29Z" transform="translate(-18.84 -14.5)"/><path class="cls-2" d="M477.34,176.11h27.48a1.13,1.13,0,0,0,.7-.25,1.89,1.89,0,0,0,.53-.8,5.69,5.69,0,0,0,.24-.95c0-.16.06-.3.08-.48a24.25,24.25,0,0,0,0-4.4,6,6,0,0,0-.32-1.43,1.83,1.83,0,0,0-.53-.8,1.07,1.07,0,0,0-.7-.25h-19.7V150.18h16.53a1.17,1.17,0,0,0,.7-.23,1.65,1.65,0,0,0,.53-.75,5.62,5.62,0,0,0,.32-1.39,18.6,18.6,0,0,0,.1-2.17,18.88,18.88,0,0,0-.1-2.16,5.69,5.69,0,0,0-.32-1.41,1.84,1.84,0,0,0-.53-.77,1.07,1.07,0,0,0-.7-.25H485.12V126.7h19.53a1,1,0,0,0,.68-.25,1.91,1.91,0,0,0,.51-.8,6.52,6.52,0,0,0,.32-1.43,18.7,18.7,0,0,0,.1-2.15,19.89,19.89,0,0,0-.1-2.25,7,7,0,0,0-.32-1.45,1.73,1.73,0,0,0-.51-.8,1.09,1.09,0,0,0-.68-.23H477.34a3.34,3.34,0,0,0-2.35.89,3.8,3.8,0,0,0-.95,2.88v51.23a5.46,5.46,0,0,0,.26,1.77,2.76,2.76,0,0,0,.69,1.11A3.34,3.34,0,0,0,477.34,176.11Z" transform="translate(-18.84 -14.5)"/><path class="cls-2" d="M526.45,175.29a1.92,1.92,0,0,0,.91.59,8.5,8.5,0,0,0,1.71.36,22.19,22.19,0,0,0,2.69.14,21.9,21.9,0,0,0,2.68-.14,8.62,8.62,0,0,0,1.72-.36,2,2,0,0,0,.91-.59,1.34,1.34,0,0,0,.27-.82V127.11H551a1.06,1.06,0,0,0,.7-.27,2.13,2.13,0,0,0,.53-.84,6.62,6.62,0,0,0,.31-1.5,20.34,20.34,0,0,0,.11-2.25,21.6,21.6,0,0,0-.11-2.32,6.71,6.71,0,0,0-.31-1.52,1.85,1.85,0,0,0-.53-.82,1.15,1.15,0,0,0-.7-.25H512.48a1.1,1.1,0,0,0-.72.25,1.93,1.93,0,0,0-.51.82,6.64,6.64,0,0,0-.32,1.52,21.89,21.89,0,0,0-.1,2.32,20.62,20.62,0,0,0,.1,2.25,6.56,6.56,0,0,0,.32,1.5,2.23,2.23,0,0,0,.51.84,1,1,0,0,0,.72.27h13.7v47.36A1.34,1.34,0,0,0,526.45,175.29Z" transform="translate(-18.84 -14.5)"/><path class="cls-2" d="M570.37,175.29a1.78,1.78,0,0,0,.91.59,8.66,8.66,0,0,0,1.71.36,21.79,21.79,0,0,0,2.7.14,22.19,22.19,0,0,0,2.69-.14,8.35,8.35,0,0,0,1.71-.36,1.92,1.92,0,0,0,.91-.59,1.35,1.35,0,0,0,.28-.82V153.81l15-32a17.51,17.51,0,0,0,1-2.58,1.39,1.39,0,0,0-.23-1.43,3,3,0,0,0-1.82-.59c-.89-.08-2.14-.12-3.74-.12-1.22,0-2.19,0-2.92.09a5.4,5.4,0,0,0-1.73.37,2.24,2.24,0,0,0-1,.7,3.93,3.93,0,0,0-.53,1.16l-6,14.35c-.54,1.39-1.08,2.86-1.65,4.4s-1.11,3.14-1.65,4.77H576q-.88-2.53-1.76-4.86c-.57-1.54-1.16-3-1.75-4.4l-6.09-14.44a5.5,5.5,0,0,0-.61-1,2.3,2.3,0,0,0-1-.66,7.29,7.29,0,0,0-1.84-.34c-.77-.06-1.81-.09-3.11-.09q-2.32,0-3.63.12a2.89,2.89,0,0,0-1.8.59,1.36,1.36,0,0,0-.25,1.4,14.77,14.77,0,0,0,1,2.61l15,32v20.66A1.4,1.4,0,0,0,570.37,175.29Z" transform="translate(-18.84 -14.5)"/><circle class="cls-1" cx="284.85" cy="222.53" r="59.23"/></svg>