<svg width="48" height="48" viewBox="0 0 48 48" fill="none" xmlns="http://www.w3.org/2000/svg">
<g clip-path="url(#clip0)">
<path d="M2.06771 35.1472L0.452352 36.8094L0.451608 36.8102C0.161119 37.1092 -0.00104813 37.5102 6.57296e-05 37.9268L0.0138285 45.5643C0.00601593 46.2059 0.258198 46.8233 0.712341 47.2771C1.16723 47.7249 1.77908 47.9782 2.41808 47.983L10.2609 47.9897C10.2784 47.9737 10.3271 47.9879 10.361 47.9838C10.7575 47.9213 11.122 47.7286 11.3969 47.4359L28.4256 30.4064C34.1324 31.9793 40.2364 30.1564 44.1463 25.7121C48.0562 21.2673 49.0857 14.9807 46.7986 9.52128C44.5112 4.06149 39.3076 0.386295 33.3974 0.0560061C33.1095 0.0400111 32.8224 0.0322023 32.5353 0.0322023C27.7082 0.0295965 23.157 2.28135 20.2302 6.11983C17.3033 9.95831 16.3367 14.9435 17.6169 19.5977L16.2262 20.9891C15.9554 21.2591 15.8189 21.6363 15.8546 22.0172L16.2095 25.9003L12.6834 25.5782C12.3025 25.5428 11.9254 25.679 11.655 25.9494C11.3842 26.2198 11.2481 26.5966 11.2827 26.9774L11.6044 30.5046L8.07724 30.1817C7.69636 30.1471 7.32033 30.2833 7.04992 30.5533C6.77952 30.8237 6.64301 31.1997 6.67723 31.5802L6.99525 35.1175L3.0954 34.7667C2.71304 34.7332 2.33589 34.8727 2.06771 35.1472ZM7.22213 36.7425C7.60264 36.7767 7.9783 36.6402 8.24833 36.3702C8.51836 36.1001 8.65487 35.7241 8.62065 35.344L8.30264 31.8071L11.8309 32.13C12.2118 32.1646 12.5882 32.0281 12.8586 31.7577C13.129 31.4876 13.2651 31.1109 13.2305 30.73L12.9081 27.2032L16.4349 27.526C16.8157 27.5606 17.1925 27.4245 17.4629 27.1537C17.7333 26.8833 17.8694 26.5065 17.8345 26.1257L17.4592 22.0164L19.0812 20.394C19.291 20.185 19.3673 19.877 19.2799 19.5939C17.5135 13.8749 19.6165 7.66787 24.4957 4.20059C29.3745 0.732947 35.9278 0.787623 40.7482 4.33636C45.5686 7.88509 47.5674 14.1263 45.7055 19.8149C43.8439 25.5038 38.5418 29.3556 32.5561 29.3679C31.1572 29.3664 29.7665 29.1559 28.4301 28.7434C28.147 28.6564 27.8394 28.7326 27.63 28.942L10.2676 46.3048C10.236 46.3361 10.2022 46.3647 10.1668 46.3915L2.41511 46.3844L2.41176 46.3844C2.19678 46.3844 1.99109 46.2981 1.84082 46.1449C1.69056 45.9913 1.60836 45.7841 1.61245 45.5691L1.59832 37.9253L1.59906 37.923L3.10581 36.3724L7.22213 36.7425Z" fill="white"/>
<path d="M40.0093 14.6762C41.8485 12.8369 41.8485 9.85467 40.0089 8.0154C38.1696 6.17613 35.1877 6.17613 33.3485 8.0154C31.5092 9.85467 31.5088 12.8369 33.3481 14.6762C35.1889 16.5129 38.1685 16.5129 40.0093 14.6762ZM34.4788 9.14575C35.6936 7.93171 37.6623 7.93246 38.8767 9.14686C40.0907 10.3613 40.0907 12.3303 38.8767 13.5447C37.6623 14.7592 35.6936 14.7599 34.4788 13.5459C33.2651 12.3303 33.2648 10.3616 34.4781 9.14575L34.4788 9.14575Z" fill="white"/>
<path d="M13.0467 40.2558L25.4905 27.812C25.698 27.6115 25.7813 27.3143 25.7084 27.035C25.6352 26.7553 25.4168 26.5373 25.1375 26.4641C24.8582 26.3908 24.561 26.4741 24.3601 26.682L11.9167 39.1255C11.7095 39.3263 11.6269 39.6231 11.6998 39.9021C11.7731 40.181 11.9911 40.399 12.27 40.4723C12.549 40.5455 12.8458 40.463 13.0467 40.2558Z" fill="white"/>
<path d="M10.9555 42.1709C11.1047 42.03 11.1895 41.834 11.1895 41.6286C11.1895 41.4237 11.1047 41.2273 10.9555 41.0867C10.6382 40.7873 10.1424 40.7873 9.82517 41.0867C9.67565 41.2273 9.59085 41.4237 9.59085 41.6286C9.59085 41.834 9.67565 42.03 9.82517 42.1709C10.1424 42.4704 10.6382 42.4704 10.9555 42.1709Z" fill="white"/>
</g>
<defs>
<clipPath id="clip0">
<rect width="48" height="48" fill="white" transform="translate(48 48) rotate(-180)"/>
</clipPath>
</defs>
</svg>
