<svg width="14" height="14" viewBox="0 0 14 14" fill="none" xmlns="http://www.w3.org/2000/svg">
<path d="M14 4.62095C13.9125 4.89438 13.7648 5.12134 13.4887 5.23891C13.4668 5.24712 13.4531 5.28813 13.4477 5.31548C13.1633 6.45845 12.8816 7.60141 12.5973 8.74438C12.5262 9.02876 12.4004 9.11899 12.0832 9.12173C10.0379 9.12993 7.99258 9.13813 5.94727 9.1436C4.62109 9.14634 3.29766 9.1436 1.97148 9.1436C1.60781 9.1436 1.50937 9.0643 1.42188 8.71157C1.15391 7.63969 0.883203 6.56782 0.623437 5.49321C0.587891 5.34282 0.544141 5.23071 0.388281 5.15688C0.166797 5.05571 0.0738281 4.8397 0 4.62095C0 4.53071 0 4.43774 0 4.34751C0.0710937 4.09868 0.188672 3.8854 0.426563 3.75688C0.790234 3.56001 1.22227 3.65024 1.4793 3.97837C1.71992 4.28735 1.69805 4.73852 1.42461 5.0311C1.40273 5.05298 1.38359 5.07759 1.35625 5.10766C1.38633 5.14048 1.41094 5.17055 1.43828 5.20063C1.75273 5.51782 2.06719 5.83501 2.38164 6.15219C3.08164 6.85219 4.08242 6.78657 4.68398 5.9936C5.23906 5.26079 5.79141 4.52524 6.34648 3.7897C6.36836 3.76235 6.3875 3.73227 6.40664 3.70493C6.08945 3.16626 6.1168 2.77251 6.48867 2.47173C6.80586 2.21743 7.25977 2.23384 7.56328 2.51548C7.88867 2.81626 7.90508 3.25376 7.60156 3.68305C7.62344 3.71587 7.64805 3.75415 7.67539 3.7897C8.22227 4.52251 8.76914 5.25805 9.31875 5.98813C9.91484 6.7811 10.9156 6.85493 11.6184 6.15493C11.9602 5.81587 12.302 5.47134 12.6383 5.13774C12.559 5.00649 12.4633 4.88891 12.4113 4.7522C12.2445 4.32563 12.4742 3.84712 12.9008 3.69946C13.341 3.54907 13.8086 3.77876 13.9535 4.21899C13.9672 4.26274 13.9836 4.30376 14 4.34751C14 4.43774 14 4.52798 14 4.62095Z" fill="white"/>
<path d="M7.02148 11.7083C5.36172 11.7083 3.70469 11.7083 2.04492 11.7083C1.68398 11.7083 1.55547 11.577 1.55273 11.2134C1.55273 10.9536 1.55273 10.6938 1.55273 10.4341C1.55547 10.1333 1.70586 9.98564 2.00938 9.98291C2.29102 9.98291 2.57539 9.98291 2.85703 9.98291C5.89766 9.98291 8.93555 9.98291 11.9762 9.98291C12.3563 9.98291 12.4902 10.1169 12.4902 10.5024C12.4902 10.754 12.4902 11.0028 12.4902 11.2544C12.4875 11.5579 12.3398 11.7083 12.0363 11.7083C10.3656 11.7083 8.69492 11.7083 7.02148 11.7083Z" fill="white"/>
</svg>
