<svg width="12" height="12" viewBox="0 0 12 12" fill="none" xmlns="http://www.w3.org/2000/svg">
<g clip-path="url(#clip0_1704:554)">
<path d="M2.2387 11.9997C1.98558 11.9388 1.74651 11.8544 1.54729 11.6763C1.28011 11.4349 1.1137 11.1396 1.10198 10.781C1.07386 9.88801 1.29651 9.05363 1.73479 8.2802C2.18714 7.48098 2.81995 6.85755 3.61917 6.41223C4.22151 6.07708 4.86839 5.87552 5.55745 5.81692C6.32386 5.7513 7.06214 5.85442 7.77698 6.13567C8.43557 6.39348 9.01448 6.77786 9.50667 7.28645C10.2145 8.02239 10.6598 8.89426 10.8262 9.90207C10.8825 10.2396 10.9246 10.5818 10.8684 10.9263C10.784 11.4513 10.3551 11.8825 9.83011 11.9786C9.80198 11.9833 9.7762 11.995 9.75042 12.0021C7.24964 11.9997 4.74417 11.9997 2.2387 11.9997Z" fill="white"/>
<path d="M6.23887 0C6.49668 0.065625 6.76622 0.0984375 7.00762 0.199219C7.97325 0.595312 8.57325 1.31484 8.73028 2.35078C8.92247 3.62578 8.30606 4.74141 7.15059 5.29922C6.02793 5.84062 4.56543 5.48672 3.81309 4.49062C2.96231 3.36562 3.02559 1.9125 3.9795 0.876562C4.42481 0.39375 4.98497 0.117187 5.63653 0.0257812C5.67637 0.0210937 5.71387 0.009375 5.75372 0C5.91543 0 6.07715 0 6.23887 0Z" fill="white"/>
</g>
<defs>
<clipPath id="clip0_1704:554">
<rect width="12" height="12" fill="white"/>
</clipPath>
</defs>
</svg>
