<?xml version="1.0" encoding="utf-8"?>
<!-- Generator: Adobe Illustrator 24.2.1, SVG Export Plug-In . SVG Version: 6.00 Build 0)  -->
<svg version="1.1" id="Layer_1" xmlns="http://www.w3.org/2000/svg" xmlns:xlink="http://www.w3.org/1999/xlink" x="0px" y="0px"
	 viewBox="0 0 1715.12 536.5" style="enable-background:new 0 0 1715.12 536.5;" xml:space="preserve">
<style type="text/css">
	.st0{fill:url(#SVGID_1_);}
</style>
<linearGradient id="SVGID_1_" gradientUnits="userSpaceOnUse" x1="0.7174" y1="268.3529" x2="1714.9297" y2="268.3529">
	<stop  offset="0" style="stop-color:#FEDE00"/>
	<stop  offset="1" style="stop-color:#F2B11C"/>
</linearGradient>
<rect x="0.72" y="0.31" class="st0" width="1714.21" height="536.09"/>
<g>
	<g>
		<path d="M460.74,277.62c0.12-10.93-2.67-19.53-15.77-23.48c12.84-3.03,15.33-11.33,15.31-21.28c-0.03-10.38-0.03-40.18-0.03-62.16
			c0.01-14.07-11.4-25.48-25.46-25.48H300.03v217.69h49.08c12.61,0,22.83-10.23,22.83-22.83V228.6c0-9.32,7.57-15.95,16.87-15.94
			h0.01V362.9h48.97c12.59,0,22.79-10.2,22.78-22.79C460.56,320.62,460.54,293.36,460.74,277.62z"/>
		<path d="M1341.91,298.29v4.51c0,8.77-7.1,15.87-15.86,15.87v-90.81c0-8.77,7.1-15.87,15.86-15.87v39.56
			c0,6.8-4.29,12.62-10.31,14.87l60.92-0.07c11.86-0.01,21.47-9.65,21.46-21.51l-0.12-99.61h-138.38c-11.88,0-21.5,9.65-21.49,21.53
			l0.29,196.15l138.13,0.07c11.91,0.01,21.55-9.68,21.5-21.58l-0.21-43.09H1341.91z"/>
		<path d="M727.1,145.23l0,196.08c0,11.87-9.62,21.49-21.49,21.49h-50.16V212.63c-9.32,0-16.87,7.55-16.87,16.87v111.88
			c0,11.87-9.62,21.49-21.49,21.49h-50.6V166.71c0-11.87,9.62-21.49,21.49-21.49H727.1z"/>
		<path d="M827.2,102.2l-0.09,56.61h88.17v38.09c0,9.13-7.41,16.54-16.54,16.54h-54.32c-9.13,0-16.54,7.41-16.54,16.54v78.04h0
			c9.14,0,16.54-7.41,16.54-16.54v-46.69c0-9.14,7.41-16.54,16.54-16.54h54.39c0.16,2.39,0.53,72.62,0.48,105.25
			c-0.03,18.77-9.16,29.24-28.21,29.61c-34.58,0.67-69.19,0.64-103.77,0.03c-19.39-0.34-28.54-10.8-28.56-30.16
			c-0.04-36.36-0.01-72.72-0.01-109.08c0-3.07,0-6.14,0-9.91h-16.73v-38.28c0-9.13,7.41-16.54,16.54-16.54v-40.43
			c0-9.14,7.41-16.54,16.54-16.54H827.2z"/>
		<path d="M1590.38,147.45c0,9.61,0,46.98,0,52.47c0,0.45-0.13,0.87-0.39,1.24l-70.5,103.95c-1.01,1.48,0.06,3.49,1.85,3.49h69.03
			v33.35c0,11.55-9.36,20.92-20.92,20.92l-137.06,0.03c-1.23,0-2.23-0.99-2.23-2.23c0.01-17.12,0.17-46.31,0.2-51.16
			c0-0.45,0.14-0.89,0.4-1.26l72.74-104.45c1.03-1.48-0.03-3.51-1.83-3.51h-51.3c-11.55,0-20.92-9.37-20.92-20.92v-34.15h158.68
			C1589.38,145.23,1590.38,146.22,1590.38,147.45z"/>
		<path d="M285.89,127.6c-0.01-14.04-9.51-25.41-21.24-25.41H125.27v260.67h47.04c13.76,0,24.91-13.37,24.91-29.84V285.5h0.03
			v-95.23c0-5.23,1.78-9.98,4.64-13.41c2.86-3.43,6.83-5.56,11.2-5.56v98.26c0,5.24-1.78,9.98-4.64,13.41
			c-0.8,0.95-1.69,1.83-2.66,2.55c15.37,0.06,41.8,0.14,49.49-0.12c20.65-0.72,30.51-11.22,30.57-35.68
			C285.91,230.54,285.89,164.48,285.89,127.6z"/>
		<path d="M1240.86,145.23v34.7c0,11.02-8.93,19.95-19.95,19.95h-41.48v12.24h60.66v34.93c0,11.02-8.93,19.95-19.95,19.95h-41.22
			v75.92c0,11.02-8.93,19.95-19.95,19.95h-51.39c0-3.09,0-6.13,0-9.17c0-57.26,0.55-114.53-0.32-171.78
			c-0.28-18.23,4.15-31.24,22.85-36.68H1240.86z"/>
		<path d="M549.19,211.38l0.26,125.24c0.03,14.49-11.71,26.25-26.2,26.25h-45V211.38H549.19z"/>
		<path d="M549.19,129.61l0.31,67.64h-71.25v-41.44c0-14.47,11.73-26.2,26.2-26.2H549.19z"/>
		<path d="M1090.53,210.72l0.26,125.24c0.03,14.49-11.71,26.25-26.2,26.25h-45V210.72H1090.53z"/>
		<path d="M1090.53,128.95l0.31,67.64h-71.25v-41.44c0-14.47,11.73-26.2,26.2-26.2H1090.53z"/>
		<path d="M1001.68,99.95l0.28,235.47c0.02,15.14-10.14,27.42-22.67,27.42h-48.55V127.34c0-15.12,10.15-27.39,22.67-27.39H1001.68z"
			/>
	</g>
	<g>
		<path d="M252.55,418.69c2.19,1.83,3.29,4.34,3.29,7.54c0,3.2-1.1,5.72-3.29,7.54c-2.19,1.83-5.2,2.74-9.02,2.74h-7.29v8.93h-4.21
			v-29.49h11.5C247.35,415.95,250.36,416.86,252.55,418.69z M249.52,431.14c1.4-1.14,2.11-2.77,2.11-4.91c0-2.13-0.7-3.77-2.11-4.91
			c-1.4-1.14-3.44-1.71-6.11-1.71h-7.16v13.23h7.16C246.08,432.84,248.11,432.28,249.52,431.14z"/>
		<path d="M304.92,445.44l-6.36-9.06c-0.79,0.06-1.4,0.08-1.85,0.08h-7.29v8.97h-4.21v-29.49h11.5c3.82,0,6.83,0.91,9.02,2.74
			c2.19,1.83,3.29,4.34,3.29,7.54c0,2.28-0.56,4.21-1.69,5.81c-1.12,1.6-2.72,2.77-4.8,3.5l6.99,9.9H304.92z M302.69,431.16
			c1.4-1.15,2.11-2.8,2.11-4.93c0-2.13-0.7-3.77-2.11-4.91c-1.4-1.14-3.44-1.71-6.11-1.71h-7.16v13.27h7.16
			C299.25,432.89,301.28,432.31,302.69,431.16z"/>
		<path d="M339.01,415.95h4.21v29.49h-4.21V415.95z"/>
		<path d="M400.6,415.95v29.49h-3.45l-17.7-21.99v21.99h-4.21v-29.49h3.45l17.7,21.99v-21.99H400.6z"/>
		<path d="M438.48,419.61h-10.11v-3.67h24.39v3.67h-10.11v25.83h-4.17V419.61z"/>
		<path d="M480.53,415.95h4.21v29.49h-4.21V415.95z"/>
		<path d="M542.13,415.95v29.49h-3.45l-17.7-21.99v21.99h-4.21v-29.49h3.45l17.7,21.99v-21.99H542.13z"/>
		<path d="M594.58,430.53h4.05v11.5c-1.46,1.21-3.16,2.14-5.1,2.78c-1.94,0.65-3.96,0.97-6.07,0.97c-2.98,0-5.66-0.65-8.05-1.96
			c-2.39-1.31-4.26-3.1-5.62-5.39c-1.36-2.29-2.04-4.87-2.04-7.73c0-2.87,0.68-5.45,2.04-7.75c1.36-2.3,3.24-4.1,5.65-5.39
			c2.4-1.29,5.1-1.94,8.11-1.94c2.36,0,4.5,0.39,6.43,1.16c1.92,0.77,3.56,1.9,4.91,3.39l-2.61,2.61c-2.36-2.27-5.21-3.41-8.55-3.41
			c-2.25,0-4.26,0.48-6.05,1.45c-1.78,0.97-3.18,2.32-4.19,4.04c-1.01,1.73-1.52,3.67-1.52,5.84c0,2.14,0.51,4.07,1.52,5.79
			c1.01,1.73,2.41,3.08,4.19,4.07c1.78,0.98,3.78,1.47,6,1.47c2.64,0,4.94-0.63,6.91-1.9V430.53z"/>
		<path d="M666.52,444.75c-2.06-0.69-3.69-1.58-4.87-2.68l1.56-3.29c1.12,1.01,2.56,1.83,4.32,2.46c1.76,0.63,3.56,0.95,5.41,0.95
			c2.44,0,4.27-0.41,5.48-1.24c1.21-0.83,1.81-1.93,1.81-3.31c0-1.01-0.33-1.83-0.99-2.47c-0.66-0.63-1.47-1.12-2.44-1.45
			c-0.97-0.34-2.34-0.72-4.11-1.14c-2.22-0.53-4.01-1.07-5.37-1.6c-1.36-0.53-2.53-1.35-3.5-2.47c-0.97-1.11-1.45-2.6-1.45-4.49
			c0-1.57,0.41-2.99,1.24-4.26c0.83-1.26,2.09-2.28,3.77-3.03c1.69-0.76,3.78-1.14,6.28-1.14c1.74,0,3.45,0.23,5.14,0.67
			c1.69,0.45,3.13,1.1,4.34,1.94l-1.39,3.37c-1.24-0.79-2.56-1.38-3.96-1.79c-1.4-0.41-2.78-0.61-4.13-0.61
			c-2.39,0-4.18,0.44-5.37,1.31c-1.19,0.87-1.79,1.99-1.79,3.37c0,1.01,0.34,1.83,1.01,2.46c0.67,0.63,1.51,1.12,2.51,1.48
			c1,0.35,2.35,0.72,4.07,1.12c2.22,0.53,4,1.07,5.35,1.6c1.35,0.53,2.51,1.35,3.48,2.44c0.97,1.1,1.45,2.57,1.45,4.42
			c0,1.54-0.42,2.96-1.26,4.23c-0.84,1.28-2.12,2.29-3.83,3.03c-1.71,0.74-3.82,1.12-6.32,1.12
			C670.73,445.78,668.59,445.44,666.52,444.75z"/>
		<path d="M735.09,441.78v3.67h-21.4v-29.49h20.81v3.67h-16.6v9.06h14.79v3.58H717.9v9.52H735.09z"/>
		<path d="M784.81,445.44l-6.36-9.06c-0.79,0.06-1.41,0.08-1.85,0.08h-7.29v8.97h-4.21v-29.49h11.5c3.82,0,6.83,0.91,9.02,2.74
			c2.19,1.83,3.29,4.34,3.29,7.54c0,2.28-0.56,4.21-1.69,5.81c-1.12,1.6-2.72,2.77-4.8,3.5l6.99,9.9H784.81z M782.58,431.16
			c1.4-1.15,2.11-2.8,2.11-4.93c0-2.13-0.7-3.77-2.11-4.91c-1.4-1.14-3.44-1.71-6.11-1.71h-7.16v13.27h7.16
			C779.13,432.89,781.17,432.31,782.58,431.16z"/>
		<path d="M844.51,415.95l-12.93,29.49h-4.17l-12.98-29.49h4.55l10.62,24.23l10.7-24.23H844.51z"/>
		<path d="M871.43,415.95h4.21v29.49h-4.21V415.95z"/>
		<path d="M912.87,443.82c-2.37-1.31-4.23-3.1-5.58-5.39c-1.35-2.29-2.02-4.87-2.02-7.73c0-2.87,0.67-5.44,2.02-7.73
			c1.35-2.29,3.22-4.09,5.6-5.39c2.39-1.31,5.06-1.96,8.01-1.96c2.3,0,4.41,0.39,6.32,1.16c1.91,0.77,3.54,1.92,4.89,3.43
			l-2.74,2.65c-2.22-2.33-4.99-3.5-8.3-3.5c-2.19,0-4.17,0.49-5.94,1.48c-1.77,0.98-3.15,2.34-4.15,4.07c-1,1.73-1.5,3.66-1.5,5.79
			c0,2.14,0.5,4.07,1.5,5.79c1,1.73,2.38,3.08,4.15,4.07c1.77,0.98,3.75,1.47,5.94,1.47c3.29,0,6.05-1.18,8.3-3.54l2.74,2.65
			c-1.35,1.52-2.98,2.67-4.91,3.45c-1.92,0.79-4.04,1.18-6.34,1.18C917.9,445.78,915.24,445.13,912.87,443.82z"/>
		<path d="M982.7,441.78v3.67h-21.4v-29.49h20.81v3.67h-16.6v9.06h14.79v3.58h-14.79v9.52H982.7z"/>
		<path d="M1014.87,444.75c-2.06-0.69-3.69-1.58-4.87-2.68l1.56-3.29c1.12,1.01,2.56,1.83,4.32,2.46c1.75,0.63,3.56,0.95,5.41,0.95
			c2.44,0,4.27-0.41,5.48-1.24c1.21-0.83,1.81-1.93,1.81-3.31c0-1.01-0.33-1.83-0.99-2.47c-0.66-0.63-1.47-1.12-2.44-1.45
			c-0.97-0.34-2.34-0.72-4.11-1.14c-2.22-0.53-4.01-1.07-5.37-1.6c-1.36-0.53-2.53-1.35-3.5-2.47c-0.97-1.11-1.45-2.6-1.45-4.49
			c0-1.57,0.41-2.99,1.24-4.26c0.83-1.26,2.09-2.28,3.77-3.03c1.69-0.76,3.78-1.14,6.28-1.14c1.74,0,3.45,0.23,5.14,0.67
			c1.68,0.45,3.13,1.1,4.34,1.94l-1.39,3.37c-1.24-0.79-2.56-1.38-3.96-1.79c-1.41-0.41-2.78-0.61-4.13-0.61
			c-2.39,0-4.18,0.44-5.37,1.31c-1.19,0.87-1.79,1.99-1.79,3.37c0,1.01,0.34,1.83,1.01,2.46c0.67,0.63,1.51,1.12,2.51,1.48
			s2.35,0.72,4.07,1.12c2.22,0.53,4,1.07,5.35,1.6c1.35,0.53,2.51,1.35,3.48,2.44c0.97,1.1,1.45,2.57,1.45,4.42
			c0,1.54-0.42,2.96-1.26,4.23c-0.84,1.28-2.12,2.29-3.83,3.03c-1.71,0.74-3.82,1.12-6.32,1.12
			C1019.08,445.78,1016.94,445.44,1014.87,444.75z"/>
		<path d="M1117.06,418.69c2.19,1.83,3.29,4.34,3.29,7.54c0,3.2-1.1,5.72-3.29,7.54c-2.19,1.83-5.2,2.74-9.02,2.74h-7.29v8.93h-4.21
			v-29.49h11.5C1111.87,415.95,1114.87,416.86,1117.06,418.69z M1114.03,431.14c1.4-1.14,2.11-2.77,2.11-4.91
			c0-2.13-0.7-3.77-2.11-4.91c-1.41-1.14-3.44-1.71-6.11-1.71h-7.16v13.23h7.16C1110.59,432.84,1112.62,432.28,1114.03,431.14z"/>
		<path d="M1169.43,445.44l-6.36-9.06c-0.79,0.06-1.4,0.08-1.85,0.08h-7.29v8.97h-4.21v-29.49h11.5c3.82,0,6.83,0.91,9.02,2.74
			c2.19,1.83,3.29,4.34,3.29,7.54c0,2.28-0.56,4.21-1.69,5.81c-1.12,1.6-2.72,2.77-4.8,3.5l6.99,9.9H1169.43z M1167.2,431.16
			c1.4-1.15,2.11-2.8,2.11-4.93c0-2.13-0.7-3.77-2.11-4.91c-1.41-1.14-3.44-1.71-6.11-1.71h-7.16v13.27h7.16
			C1163.76,432.89,1165.8,432.31,1167.2,431.16z"/>
		<path d="M1208.78,443.82c-2.39-1.31-4.26-3.11-5.62-5.41c-1.36-2.3-2.04-4.87-2.04-7.71c0-2.84,0.68-5.41,2.04-7.71
			c1.36-2.3,3.24-4.11,5.62-5.41c2.39-1.31,5.07-1.96,8.05-1.96c2.95,0,5.62,0.65,8.01,1.96c2.39,1.31,4.26,3.1,5.6,5.39
			c1.35,2.29,2.02,4.87,2.02,7.73c0,2.87-0.67,5.44-2.02,7.73c-1.35,2.29-3.22,4.09-5.6,5.39c-2.39,1.31-5.06,1.96-8.01,1.96
			C1213.85,445.78,1211.17,445.13,1208.78,443.82z M1222.67,440.55c1.73-0.98,3.09-2.34,4.09-4.07c1-1.73,1.5-3.66,1.5-5.79
			c0-2.13-0.5-4.07-1.5-5.79c-1-1.73-2.36-3.08-4.09-4.07c-1.73-0.98-3.67-1.48-5.84-1.48c-2.16,0-4.12,0.49-5.88,1.48
			c-1.76,0.98-3.13,2.34-4.13,4.07c-1,1.73-1.5,3.66-1.5,5.79c0,2.14,0.5,4.07,1.5,5.79c1,1.73,2.37,3.08,4.13,4.07
			c1.75,0.98,3.71,1.47,5.88,1.47C1218.99,442.03,1220.94,441.54,1222.67,440.55z"/>
		<path d="M1286.77,415.95l-12.93,29.49h-4.17l-12.98-29.49h4.55l10.62,24.23l10.7-24.23H1286.77z"/>
		<path d="M1313.7,415.95h4.21v29.49h-4.21V415.95z"/>
		<path d="M1349.93,415.95h12.43c3.12,0,5.88,0.62,8.3,1.85c2.41,1.24,4.29,2.97,5.62,5.2c1.33,2.23,2,4.8,2,7.69
			c0,2.89-0.67,5.46-2,7.69c-1.33,2.23-3.21,3.97-5.62,5.2c-2.42,1.24-5.18,1.85-8.3,1.85h-12.43V415.95z M1362.11,441.78
			c2.39,0,4.49-0.46,6.3-1.39c1.81-0.93,3.21-2.23,4.19-3.9c0.98-1.67,1.47-3.6,1.47-5.79c0-2.19-0.49-4.12-1.47-5.79
			c-0.98-1.67-2.38-2.97-4.19-3.9c-1.81-0.93-3.91-1.39-6.3-1.39h-7.96v22.16H1362.11z"/>
		<path d="M1429.31,441.78v3.67h-21.4v-29.49h20.81v3.67h-16.6v9.06h14.79v3.58h-14.79v9.52H1429.31z"/>
		<path d="M1479.02,445.44l-6.36-9.06c-0.79,0.06-1.4,0.08-1.85,0.08h-7.29v8.97h-4.21v-29.49h11.5c3.82,0,6.83,0.91,9.02,2.74
			c2.19,1.83,3.29,4.34,3.29,7.54c0,2.28-0.56,4.21-1.69,5.81c-1.12,1.6-2.72,2.77-4.8,3.5l6.99,9.9H1479.02z M1476.79,431.16
			c1.4-1.15,2.11-2.8,2.11-4.93c0-2.13-0.7-3.77-2.11-4.91c-1.41-1.14-3.44-1.71-6.11-1.71h-7.16v13.27h7.16
			C1473.35,432.89,1475.38,432.31,1476.79,431.16z"/>
	</g>
</g>
</svg>
