<svg width="45" height="48" viewBox="0 0 45 48" fill="none" xmlns="http://www.w3.org/2000/svg">
<path d="M0.416893 39.9025C0.783587 40.1025 9.49814 44.8002 18.3997 44.8002C19.2812 44.8002 20.1826 44.7593 21.0926 44.6802L20.5527 47.0201C20.5221 47.1523 20.5258 47.2901 20.5632 47.4206C20.6006 47.551 20.6705 47.6698 20.7665 47.7657C20.8624 47.8616 20.9812 47.9316 21.1116 47.969C21.242 48.0064 21.3798 48.01 21.512 47.9795L28.8658 46.2824C28.8722 46.281 28.8782 46.2787 28.8845 46.2771C28.9003 46.2731 28.9161 46.2687 28.9318 46.2637C28.9418 46.2604 28.9518 46.2567 28.9618 46.253C28.9761 46.2478 28.9902 46.2422 29.0042 46.2362C29.0153 46.2314 29.0261 46.2262 29.0369 46.221C29.0477 46.2158 29.0612 46.2088 29.0731 46.2022C29.085 46.1956 29.0967 46.1886 29.1083 46.1814C29.1199 46.1742 29.1283 46.1686 29.1383 46.1614C29.1508 46.1528 29.1631 46.1438 29.175 46.1344C29.1835 46.1278 29.1919 46.1211 29.2002 46.1144C29.2127 46.1038 29.2247 46.0928 29.2364 46.0816C29.2412 46.077 29.2464 46.0731 29.2511 46.0684L42.8277 32.4926L43.3934 31.9269C44.2895 31.0259 44.7918 29.8063 44.7901 28.5356C44.7883 27.2648 44.2828 26.0466 43.3842 25.148C42.4857 24.2494 41.2675 23.7439 39.9967 23.7421C38.726 23.7404 37.5064 24.2426 36.6054 25.1387L36.04 25.704L34.1355 27.6085C32.6173 24.6833 30.4895 22.2432 27.9356 20.5169C26.3503 19.4442 24.5948 18.6475 22.7436 18.1606C24.6676 17.1843 26.2067 15.5884 27.1125 13.6302C28.0183 11.672 28.238 9.46583 27.7363 7.36745C27.2346 5.26907 26.0406 3.40088 24.347 2.06422C22.6534 0.727572 20.559 0.000397351 18.4014 1.62797e-07C16.2439 -0.000397026 14.1491 0.726006 12.4551 2.06204C10.761 3.39806 9.56631 5.26582 9.06382 7.36401C8.56133 9.46221 8.78029 11.6685 9.68538 13.627C10.5905 15.5855 12.1289 17.182 14.0526 18.159C10.7366 19.029 7.73717 20.8998 5.35181 23.6361C1.90067 27.5946 0 33.1222 0 39.2003C1.16384e-06 39.344 0.038716 39.485 0.112075 39.6086C0.185435 39.7322 0.290729 39.8337 0.416893 39.9025ZM22.3996 46.1328L23.4842 41.4329L27.0995 45.0482L22.3996 46.1328ZM37.7367 26.2705C38.0334 25.9715 38.3862 25.734 38.775 25.5717C39.1637 25.4093 39.5806 25.3254 40.0019 25.3246C40.4232 25.3238 40.8404 25.4061 41.2298 25.567C41.6191 25.7278 41.9729 25.9639 42.2707 26.2618C42.5686 26.5597 42.8047 26.9135 42.9656 27.3028C43.1264 27.6922 43.2088 28.1094 43.208 28.5307C43.2071 28.9519 43.1232 29.3689 42.9608 29.7576C42.7985 30.1463 42.561 30.4992 42.262 30.7959L37.7367 26.2705ZM36.6053 27.4015L41.1306 31.9269L28.6858 44.3718L24.1603 39.8464L36.6053 27.4015ZM10.3998 9.60076C10.3998 8.01854 10.869 6.47185 11.748 5.15628C12.6271 3.84071 13.8765 2.81534 15.3383 2.20985C16.8001 1.60436 18.4086 1.44594 19.9604 1.75461C21.5122 2.06329 22.9376 2.8252 24.0564 3.94401C25.1752 5.06281 25.9372 6.48825 26.2458 8.04007C26.5545 9.59189 26.3961 11.2004 25.7906 12.6622C25.1851 14.124 24.1597 15.3734 22.8442 16.2524C21.5286 17.1314 19.9819 17.6006 18.3997 17.6006C16.2787 17.5982 14.2453 16.7546 12.7456 15.2549C11.2458 13.7551 10.4022 11.7217 10.3998 9.60076ZM6.55779 24.687C9.64204 21.1491 13.8476 19.2006 18.3997 19.2006C24.6076 19.2006 30.0179 22.7824 32.9436 28.8004L22.4638 39.2803C22.4592 39.2849 22.4552 39.2903 22.4507 39.2947C22.4397 39.3063 22.4288 39.3181 22.4184 39.3304C22.412 39.338 22.4059 39.3458 22.3998 39.3537C22.3898 39.3664 22.3798 39.3793 22.3709 39.3927C22.3652 39.401 22.3598 39.4094 22.3544 39.4179C22.346 39.4313 22.3378 39.4447 22.3301 39.4587C22.3248 39.4682 22.3201 39.478 22.315 39.4877C22.3084 39.5009 22.3019 39.5142 22.296 39.5277C22.291 39.5392 22.2866 39.5509 22.2822 39.5626C22.2778 39.5743 22.2728 39.5874 22.2687 39.6002C22.2646 39.613 22.2606 39.6278 22.2569 39.6417C22.2547 39.6498 22.2519 39.6576 22.25 39.6659L21.4723 43.0358C20.4516 43.1435 19.4261 43.1983 18.3997 43.2002C10.981 43.2002 3.44064 39.642 1.60427 38.7159C1.70137 33.2167 3.45164 28.2504 6.55779 24.687Z" fill="#407DC1"/>
</svg>
