<svg width="30" height="30" viewBox="0 0 30 30" fill="none" xmlns="http://www.w3.org/2000/svg">
<g clip-path="url(#clip0_1704:367)">
<path d="M4.71026 10.793C5.81182 11.5254 6.91338 12.2578 8.00908 12.9961C8.44854 13.2891 8.63604 13.7285 8.53057 14.168C8.34893 14.9238 7.52276 15.2344 6.83721 14.7832C5.50127 13.8984 4.17119 13.0078 2.83526 12.1172C2.08526 11.6191 1.33526 11.1211 0.585257 10.6172C-0.19404 10.0957 -0.205759 9.2285 0.567679 8.70702C2.64776 7.31249 4.73369 5.92382 6.81377 4.541C7.38799 4.16014 8.0208 4.25975 8.37237 4.78124C8.72393 5.29686 8.57744 5.92968 8.00908 6.31639C6.91338 7.05468 5.80596 7.7871 4.71026 8.58983C4.8333 8.58983 4.95635 8.58983 5.08526 8.58983C10.5755 8.58983 16.0657 8.57811 21.5501 8.59569C25.8626 8.61327 29.4896 11.9297 29.9407 16.2305C30.4212 20.8301 27.2278 24.9375 22.6341 25.6055C22.2474 25.6641 21.8606 25.6875 21.4681 25.6875C16.1243 25.6933 10.7806 25.6933 5.43682 25.6875C4.60479 25.6875 4.07159 24.9902 4.33526 24.2637C4.4876 23.8359 4.80987 23.6016 5.26104 23.5547C5.37237 23.543 5.48369 23.5488 5.59502 23.5488C10.8157 23.5488 16.0364 23.5488 21.263 23.5488C24.5032 23.5488 27.0814 21.416 27.6966 18.2461C28.3763 14.7363 25.7747 11.1855 22.2181 10.7871C21.9075 10.7519 21.597 10.7285 21.2864 10.7285C15.8665 10.7226 10.4407 10.7285 5.0208 10.7285C4.92119 10.7285 4.82744 10.7285 4.72784 10.7285C4.72784 10.7461 4.72198 10.7695 4.71026 10.793Z" fill="#96E5F1"/>
</g>
<defs>
<clipPath id="clip0_1704:367">
<rect width="30" height="30" fill="white"/>
</clipPath>
</defs>
</svg>
