<svg width="20" height="20" viewBox="0 0 20 20" fill="none" xmlns="http://www.w3.org/2000/svg">
<g clip-path="url(#clip0)">
<path d="M19.8779 9.70558L13.6279 3.45558C13.4652 3.2928 13.2015 3.2928 13.0387 3.45558C12.876 3.61835 12.876 3.88202 13.0387 4.04476L18.5775 9.58351H0.41668C0.186367 9.58351 0 9.76987 0 10.0002C0 10.2305 0.186367 10.4169 0.41668 10.4169H18.5775L13.0387 15.9556C12.876 16.1183 12.876 16.382 13.0387 16.5448C13.1201 16.6261 13.2268 16.6668 13.3334 16.6668C13.44 16.6668 13.5466 16.6261 13.628 16.5448L19.878 10.2948C20.0407 10.132 20.0407 9.86835 19.8779 9.70558Z" fill="white"/>
</g>
<defs>
<clipPath id="clip0">
<rect width="20" height="20" fill="white"/>
</clipPath>
</defs>
</svg>
