<svg width="30" height="30" viewBox="0 0 40 40" fill="none" xmlns="http://www.w3.org/2000/svg">
<g clip-path="url(#clip0_1476:2)">
<path d="M0 19.8436C0.203125 19.2108 0.6875 19.0858 1.28906 19.0858C12.9531 19.0936 24.6172 19.0936 36.2812 19.0936C36.4453 19.0936 36.6094 19.0936 36.8672 19.0936C36.7031 18.914 36.6016 18.8046 36.5 18.6952C34.1562 16.3436 31.8125 13.9999 29.4609 11.6483C29.1484 11.3358 28.9531 10.9921 29.1328 10.5311C29.3359 9.99989 30 9.79677 30.4609 10.1249C30.6172 10.2343 30.7578 10.3827 30.8984 10.5155C33.7344 13.3515 36.5703 16.1796 39.4062 19.0233C39.6328 19.2499 39.8125 19.5233 40.0156 19.7655C40.0156 19.9218 40.0156 20.078 40.0156 20.2343C39.8125 20.4843 39.6328 20.7499 39.4062 20.9765C36.5234 23.8671 33.6328 26.7577 30.7422 29.6483C30.2891 30.1015 29.7969 30.1561 29.3906 29.8124C29.0313 29.5077 28.9609 29.0077 29.2422 28.6249C29.3594 28.4686 29.4922 28.328 29.6328 28.1874C31.9219 25.8983 34.2109 23.6015 36.5078 21.3124C36.6094 21.2108 36.7109 21.0936 36.8828 20.914C36.625 20.914 36.4609 20.914 36.2969 20.914C24.625 20.914 12.9531 20.914 1.28125 20.9218C0.703125 20.9218 0.242188 20.789 0 20.2343C0 20.1015 0 19.9765 0 19.8436Z" fill="white"/>
</g>
<defs>
<clipPath id="clip0_1476:2">
<rect width="40" height="40" fill="white"/>
</clipPath>
</defs>
</svg>
