<svg width="30" height="30" viewBox="0 0 30 30" fill="none" xmlns="http://www.w3.org/2000/svg">
<g clip-path="url(#clip0_1704:616)">
<path d="M29.5898 3.99023C28.3066 2.72461 27.1406 1.55859 26.0332 0.433593C25.7402 0.140625 25.418 0.00585938 25.0137 0.00585938H2.98242C1.16602 0.0117187 0 1.17773 0 2.98828V27.0527C0 28.8164 1.18359 30 2.94727 30H27.0527C28.8105 30 29.9941 28.8105 29.9941 27.0468V21.498C29.9941 16.0781 29.9941 10.4766 30 4.96875C30.0059 4.57617 29.877 4.26562 29.5898 3.99023ZM22.459 8.9414C22.459 9.11718 22.4473 9.21679 22.4238 9.24608C22.4004 9.26952 22.3008 9.2871 22.125 9.2871H7.8457C7.5293 9.2871 7.5293 9.27538 7.5293 8.99413V1.69336H22.459V3.59179C22.459 5.3789 22.459 7.18945 22.459 8.9414ZM24.0469 13.6816H5.91797C5.02734 13.6816 4.27148 13.9629 3.73828 14.4961C3.20508 15.0293 2.92383 15.7851 2.92383 16.6758V28.3242C2.60742 28.3418 2.32617 28.2597 2.09766 28.084C1.81641 27.8613 1.66406 27.5215 1.66406 27.123V2.87109C1.66406 2.15625 2.12695 1.6875 2.84766 1.68164H5.84766V8.98241C5.84766 10.207 6.60352 10.9629 7.82227 10.9629H22.166C23.3789 10.9629 24.1289 10.2129 24.1289 9.00585V1.69336C24.3926 1.69336 24.6445 1.69336 24.8965 1.69922C24.9023 1.70508 24.9082 1.71094 24.9082 1.71094C24.9258 1.72851 24.9434 1.74609 24.9551 1.75195L25.002 1.78711C26.0742 2.85351 27.1758 3.94922 28.2656 5.05664C28.2832 5.07421 28.3066 5.13867 28.3066 5.17968C28.3125 11.5664 28.3125 18.4453 28.3125 27.1465C28.3125 27.8496 27.8555 28.3125 27.1406 28.3183H27.0527V25.0488C27.0586 22.2539 27.0586 19.418 27.0586 16.6758C27.0645 14.8301 25.9102 13.6816 24.0469 13.6816ZM4.59961 16.623C4.59961 15.7793 5.0332 15.3515 5.88281 15.3515H24.0938C24.9492 15.3515 25.3828 15.7851 25.3828 16.6406V28.3066H4.59961V16.623Z" fill="white"/>
<path d="M22.4532 18.0818C22.3712 18.0642 22.2833 18.0642 22.2188 18.0642C22.2071 18.0642 22.1895 18.0642 22.1778 18.0642H7.8165C7.80478 18.0642 7.7872 18.0642 7.77548 18.0642C7.70517 18.0642 7.629 18.0642 7.55283 18.0818C7.11923 18.158 6.84384 18.4861 6.8497 18.908C6.84384 19.3357 7.11337 19.6521 7.55283 19.7341C7.629 19.7517 7.69931 19.7517 7.75791 19.7517H22.1603C22.1778 19.7517 22.1895 19.7517 22.2071 19.7517C22.2247 19.7517 22.2423 19.7517 22.2599 19.7517C22.3185 19.7517 22.3829 19.7517 22.4532 19.7341C22.8927 19.658 23.1622 19.3416 23.1622 18.908C23.1563 18.4802 22.8868 18.1638 22.4532 18.0818Z" fill="white"/>
<path d="M22.4473 21.0115C22.3535 20.9939 22.2715 20.9939 22.2012 20.9939C22.1836 20.9939 22.1719 20.9939 22.1543 20.9939H7.83984C7.82227 20.9939 7.81055 20.9939 7.79297 20.9939C7.72266 20.9939 7.64063 20.9939 7.54688 21.0115C7.10742 21.0876 6.83789 21.4041 6.83789 21.8376C6.83789 22.2595 7.10742 22.5759 7.54688 22.6638C7.61133 22.6755 7.67578 22.6814 7.72852 22.6814C7.74609 22.6814 7.76367 22.6814 7.77539 22.6814C7.78711 22.6814 7.80469 22.6814 7.81641 22.6814H22.2539C22.3125 22.6814 22.3828 22.6814 22.4473 22.6638C22.8809 22.5818 23.1562 22.2654 23.1562 21.8376C23.1562 21.4041 22.8809 21.0876 22.4473 21.0115Z" fill="white"/>
<path d="M22.3652 23.9358C22.2891 23.9299 22.2188 23.9299 22.1543 23.9299H7.82227C7.80469 23.9299 7.79297 23.9299 7.77539 23.9299C7.69922 23.9299 7.61719 23.9299 7.52344 23.9475C7.0957 24.0295 6.82617 24.3518 6.82617 24.7795V24.7913C6.84961 25.2014 7.10156 25.5002 7.51172 25.594H7.51758C7.58789 25.6057 7.66992 25.6116 7.74023 25.6116H22.125C22.1953 25.6116 22.2715 25.6116 22.3535 25.6057C22.8223 25.5706 23.1563 25.2131 23.1504 24.7561C23.1445 24.3108 22.8223 23.9768 22.3652 23.9358Z" fill="white"/>
<path d="M21.2227 1.96289H18.5332C17.9004 1.96289 17.5781 2.28516 17.5781 2.92383V8.05078C17.5781 8.68359 17.9004 9.00586 18.5391 9.01172H21.2285C21.8613 9.01172 22.1836 8.68945 22.1895 8.05078V2.91797C22.1836 2.28516 21.8555 1.96289 21.2227 1.96289ZM20.4844 3.65039V7.30664H19.2656V3.65039H20.4844Z" fill="white"/>
</g>
<defs>
<clipPath id="clip0_1704:616">
<rect width="30" height="30" fill="white"/>
</clipPath>
</defs>
</svg>
