<svg width="38" height="38" viewBox="0 0 38 38" fill="none" xmlns="http://www.w3.org/2000/svg">
<g clip-path="url(#clip0_1704:616)" filter="url(#filter0_d_1704:616)">
<path d="M33.5898 3.99023C32.3066 2.72461 31.1406 1.55859 30.0332 0.433593C29.7402 0.140625 29.418 0.00585938 29.0137 0.00585938H6.98242C5.16602 0.0117187 4 1.17773 4 2.98828V27.0527C4 28.8164 5.18359 30 6.94727 30H31.0527C32.8105 30 33.9941 28.8105 33.9941 27.0468V21.498C33.9941 16.0781 33.9941 10.4766 34 4.96875C34.0059 4.57617 33.877 4.26562 33.5898 3.99023ZM26.459 8.9414C26.459 9.11718 26.4473 9.21679 26.4238 9.24609C26.4004 9.26952 26.3008 9.2871 26.125 9.2871H11.8457C11.5293 9.2871 11.5293 9.27538 11.5293 8.99413V1.69336H26.459V3.59179C26.459 5.3789 26.459 7.18945 26.459 8.9414ZM28.0469 13.6816H9.91797C9.02734 13.6816 8.27148 13.9629 7.73828 14.4961C7.20508 15.0293 6.92383 15.7851 6.92383 16.6758V28.3242C6.60742 28.3418 6.32617 28.2597 6.09766 28.084C5.81641 27.8613 5.66406 27.5215 5.66406 27.123V2.87109C5.66406 2.15625 6.12695 1.6875 6.84766 1.68164H9.84766V8.98241C9.84766 10.207 10.6035 10.9629 11.8223 10.9629H26.166C27.3789 10.9629 28.1289 10.2129 28.1289 9.00585V1.69336C28.3926 1.69336 28.6445 1.69336 28.8965 1.69922C28.9023 1.70508 28.9082 1.71094 28.9082 1.71094C28.9258 1.72851 28.9434 1.74609 28.9551 1.75195L29.002 1.78711C30.0742 2.85351 31.1758 3.94922 32.2656 5.05664C32.2832 5.07421 32.3066 5.13867 32.3066 5.17968C32.3125 11.5664 32.3125 18.4453 32.3125 27.1465C32.3125 27.8496 31.8555 28.3125 31.1406 28.3183H31.0527V25.0488C31.0586 22.2539 31.0586 19.4179 31.0586 16.6758C31.0645 14.8301 29.9102 13.6816 28.0469 13.6816ZM8.59961 16.623C8.59961 15.7793 9.0332 15.3515 9.88281 15.3515H28.0938C28.9492 15.3515 29.3828 15.7851 29.3828 16.6406V28.3066H8.59961V16.623Z" fill="white"/>
<path d="M26.4532 18.0818C26.3712 18.0642 26.2833 18.0642 26.2188 18.0642C26.2071 18.0642 26.1895 18.0642 26.1778 18.0642H11.8165C11.8048 18.0642 11.7872 18.0642 11.7755 18.0642C11.7052 18.0642 11.629 18.0642 11.5528 18.0818C11.1192 18.158 10.8438 18.4861 10.8497 18.908C10.8438 19.3357 11.1134 19.6521 11.5528 19.7341C11.629 19.7517 11.6993 19.7517 11.7579 19.7517H26.1603C26.1778 19.7517 26.1895 19.7517 26.2071 19.7517C26.2247 19.7517 26.2423 19.7517 26.2599 19.7517C26.3185 19.7517 26.3829 19.7517 26.4532 19.7341C26.8927 19.658 27.1622 19.3416 27.1622 18.908C27.1563 18.4802 26.8868 18.1638 26.4532 18.0818Z" fill="white"/>
<path d="M26.4473 21.0115C26.3535 20.9939 26.2715 20.9939 26.2012 20.9939C26.1836 20.9939 26.1719 20.9939 26.1543 20.9939H11.8398C11.8223 20.9939 11.8105 20.9939 11.793 20.9939C11.7227 20.9939 11.6406 20.9939 11.5469 21.0115C11.1074 21.0876 10.8379 21.4041 10.8379 21.8376C10.8379 22.2595 11.1074 22.5759 11.5469 22.6638C11.6113 22.6755 11.6758 22.6814 11.7285 22.6814C11.7461 22.6814 11.7637 22.6814 11.7754 22.6814C11.7871 22.6814 11.8047 22.6814 11.8164 22.6814H26.2539C26.3125 22.6814 26.3828 22.6814 26.4473 22.6638C26.8809 22.5818 27.1562 22.2654 27.1562 21.8376C27.1562 21.4041 26.8809 21.0876 26.4473 21.0115Z" fill="white"/>
<path d="M26.3652 23.9358C26.2891 23.9299 26.2188 23.9299 26.1543 23.9299H11.8223C11.8047 23.9299 11.793 23.9299 11.7754 23.9299C11.6992 23.9299 11.6172 23.9299 11.5234 23.9475C11.0957 24.0295 10.8262 24.3518 10.8262 24.7795V24.7913C10.8496 25.2014 11.1016 25.5002 11.5117 25.594H11.5176C11.5879 25.6057 11.6699 25.6116 11.7402 25.6116H26.125C26.1953 25.6116 26.2715 25.6116 26.3535 25.6057C26.8223 25.5706 27.1563 25.2131 27.1504 24.7561C27.1445 24.3108 26.8223 23.9768 26.3652 23.9358Z" fill="white"/>
<path d="M25.2227 1.96289H22.5332C21.9004 1.96289 21.5781 2.28516 21.5781 2.92383V8.05078C21.5781 8.68359 21.9004 9.00586 22.5391 9.01172H25.2285C25.8613 9.01172 26.1836 8.68945 26.1895 8.05078V2.91797C26.1836 2.28516 25.8555 1.96289 25.2227 1.96289ZM24.4844 3.65039V7.30664H23.2656V3.65039H24.4844Z" fill="white"/>
</g>
<defs>
<filter id="filter0_d_1704:616" x="0" y="0" width="38" height="38" filterUnits="userSpaceOnUse" color-interpolation-filters="sRGB">
<feFlood flood-opacity="0" result="BackgroundImageFix"/>
<feColorMatrix in="SourceAlpha" type="matrix" values="0 0 0 0 0 0 0 0 0 0 0 0 0 0 0 0 0 0 127 0" result="hardAlpha"/>
<feOffset dy="4"/>
<feGaussianBlur stdDeviation="2"/>
<feComposite in2="hardAlpha" operator="out"/>
<feColorMatrix type="matrix" values="0 0 0 0 0 0 0 0 0 0 0 0 0 0 0 0 0 0 0.25 0"/>
<feBlend mode="normal" in2="BackgroundImageFix" result="effect1_dropShadow_1704:616"/>
<feBlend mode="normal" in="SourceGraphic" in2="effect1_dropShadow_1704:616" result="shape"/>
</filter>
<clipPath id="clip0_1704:616">
<rect width="30" height="30" fill="white" transform="translate(4)"/>
</clipPath>
</defs>
</svg>
