<svg width="18" height="18" viewBox="0 0 18 18" fill="none" xmlns="http://www.w3.org/2000/svg">
<g clip-path="url(#clip0)">
<path d="M9 3.63501C5.56091 3.63501 2.44216 5.51657 0.140841 8.57272C-0.0469469 8.8231 -0.0469469 9.1729 0.140841 9.42329C2.44216 12.4831 5.56091 14.3647 9 14.3647C12.4391 14.3647 15.5578 12.4831 17.8592 9.42697C18.0469 9.17659 18.0469 8.82679 17.8592 8.5764C15.5578 5.51657 12.4391 3.63501 9 3.63501ZM9.2467 12.7777C6.96379 12.9213 5.07855 11.0397 5.22215 8.75314C5.33998 6.8679 6.86806 5.33983 8.7533 5.222C11.0362 5.0784 12.9214 6.95996 12.7778 9.24655C12.6563 11.1281 11.1283 12.6562 9.2467 12.7777ZM9.13256 11.0324C7.90273 11.1097 6.88647 10.0971 6.96747 8.86729C7.03007 7.85103 7.85486 7.02992 8.87113 6.96364C10.101 6.88631 11.1172 7.89889 11.0362 9.12872C10.9699 10.1487 10.1451 10.9698 9.13256 11.0324Z" fill="#5B5B5B"/>
</g>
<defs>
<clipPath id="clip0">
<rect width="18" height="18" fill="white"/>
</clipPath>
</defs>
</svg>
