<svg width="18" height="18" viewBox="0 0 18 18" fill="none" xmlns="http://www.w3.org/2000/svg">
<path d="M8.99995 0C4.03741 0 0 4.03731 0 8.99995C0 13.9626 4.03741 18 8.99995 18C13.9625 18 17.9999 13.9626 17.9999 8.99995C17.9999 4.03731 13.9626 0 8.99995 0ZM14.1679 7.47979L8.51367 13.134C8.27325 13.3744 7.95367 13.5067 7.6137 13.5067C7.27374 13.5067 6.95415 13.3744 6.71374 13.134L3.83202 10.2523C3.5916 10.0119 3.45919 9.69228 3.45919 9.35231C3.45919 9.01226 3.5916 8.69267 3.83202 8.45225C4.07234 8.21184 4.39193 8.07942 4.73199 8.07942C5.07195 8.07942 5.39163 8.21184 5.63195 8.45235L7.61361 10.4339L12.3678 5.67976C12.6082 5.43934 12.9278 5.30702 13.2677 5.30702C13.6077 5.30702 13.9273 5.43934 14.1677 5.67976C14.6641 6.17618 14.6641 6.98355 14.1679 7.47979Z" fill="#4EFF9F"/>
</svg>
