<svg width="48" height="48" viewBox="0 0 48 48" fill="none" xmlns="http://www.w3.org/2000/svg">
<g clip-path="url(#clip0)">
<path d="M15.5808 18.1688C11.1558 15.7313 9.60888 10.9126 10.7714 6.93759C11.9339 2.99071 15.5339 0.131336 19.5558 0.00946053C23.8589 -0.131165 27.5995 2.40946 29.0526 6.38446C30.4026 10.0688 29.362 15.4595 24.562 18.1126C25.7245 18.6188 26.9714 19.0782 28.1339 19.6876C30.6464 21.0001 32.6526 22.9126 34.2745 25.2282C34.4808 25.5189 34.687 25.622 35.0433 25.622C41.5495 25.5564 46.7058 30.9095 46.3964 37.397C46.1339 42.8439 41.8495 47.3907 36.4214 47.9345C32.6901 48.3095 29.5495 47.0814 26.9433 44.3907C26.8214 44.2595 26.5683 44.147 26.4089 44.1845C20.2776 45.4595 14.2964 44.7564 8.46513 42.6564C6.42138 41.9251 4.44325 40.9782 2.42763 40.1439C1.78075 39.8814 1.54638 39.4595 1.5745 38.747C1.70575 33.947 2.82138 29.447 5.55888 25.4438C7.95888 21.9282 11.1651 19.4626 15.2901 18.2626C15.3839 18.2438 15.4589 18.2157 15.5808 18.1688ZM25.6401 42.6751C23.7745 39.3657 23.4276 35.9532 24.8995 32.4751C26.3808 28.9782 29.0714 26.8314 32.7276 25.8657C32.6901 25.7907 32.6808 25.7345 32.6526 25.697C29.6526 21.7782 25.7339 19.4626 20.7651 19.2376C15.2339 18.9845 10.7901 21.2438 7.43388 25.5939C4.54638 29.3439 3.39325 33.7126 3.19638 38.3814C3.187 38.672 3.30888 38.8032 3.54325 38.897C5.37138 39.647 7.18075 40.472 9.04638 41.1376C12.5433 42.3845 16.1526 43.1814 19.8933 43.2095C21.8058 43.2282 23.6995 43.0407 25.6401 42.6751ZM25.6026 36.8251C25.6214 42.1595 29.9433 46.4439 35.2683 46.4157C40.5745 46.397 44.8308 42.0657 44.812 36.7032C44.7933 31.4626 40.4526 27.197 35.1464 27.2064C29.9058 27.2251 25.5839 31.5751 25.6026 36.8251ZM19.987 1.60321C15.5995 1.59384 12.0183 5.17509 11.9995 9.59072C11.9808 13.9782 15.5808 17.6063 19.9683 17.6063C24.3839 17.6157 27.9933 14.0438 28.012 9.66572C28.0214 5.20321 24.4495 1.61259 19.987 1.60321Z" fill="#407DC1"/>
<path d="M33.4768 41.1657C34.3861 39.8064 35.2486 38.5032 36.1205 37.2095C37.1611 35.6438 38.2111 34.0782 39.2518 32.5126C39.4955 32.147 39.7955 31.922 40.2549 32.0626C40.7236 32.2126 40.9299 32.7001 40.7236 33.1501C40.658 33.2813 40.5736 33.4126 40.4986 33.5345C38.483 36.5532 36.4768 39.572 34.4611 42.5907C33.9361 43.3876 33.4955 43.4251 32.8299 42.7595C31.883 41.822 30.9455 40.8751 30.008 39.9282C29.558 39.4689 29.5018 39.0188 29.8486 38.6626C30.2049 38.2876 30.6736 38.3345 31.1518 38.8126C31.9018 39.5814 32.6611 40.3501 33.4768 41.1657Z" fill="#407DC1"/>
</g>
<defs>
<clipPath id="clip0">
<rect width="48" height="48" fill="white"/>
</clipPath>
</defs>
</svg>
