<?xml version="1.0" encoding="utf-8"?>
<!-- Generator: Adobe Illustrator 24.2.1, SVG Export Plug-In . SVG Version: 6.00 Build 0)  -->
<svg version="1.1" id="Layer_1" xmlns="http://www.w3.org/2000/svg" xmlns:xlink="http://www.w3.org/1999/xlink" x="0px" y="0px"
	 viewBox="0 0 1050 300" style="enable-background:new 0 0 1050 300;" xml:space="preserve">
<style type="text/css">
	.st0{fill:url(#SVGID_1_);}
	.st1{fill:url(#SVGID_2_);}
	.st2{fill:url(#SVGID_3_);}
	.st3{fill:url(#SVGID_4_);}
	.st4{fill:url(#SVGID_5_);}
	.st5{fill:url(#SVGID_6_);}
	.st6{fill:url(#SVGID_7_);}
	.st7{fill:url(#SVGID_8_);}
	.st8{fill:url(#SVGID_9_);}
	.st9{fill:url(#SVGID_10_);}
	.st10{fill:url(#SVGID_11_);}
	.st11{fill:#80E0E5;}
	.st12{fill:#92ECE9;}
	.st13{fill:#5EC1DD;}
	.st14{fill:#6ED2E1;}
	.st15{fill:#999999;}
	.st16{fill:#50ADD9;}
	.st17{fill:#4297D6;}
	.st18{fill:#407DC1;}
	.st19{fill:none;}
</style>
<image style="overflow:visible;" width="745" height="914" xlink:href="2B9851A.jpg"  transform="matrix(1 0 0 1 -7667 -8042)">
</image>
<image style="overflow:visible;" width="745" height="914" xlink:href="2B9851E.jpg"  transform="matrix(1 0 0 1 -7667 -8042)">
</image>
<image style="overflow:visible;" width="745" height="914" xlink:href="2B98519.jpg"  transform="matrix(1 0 0 1 -7667 -8042)">
</image>
<image style="overflow:visible;" width="745" height="914" xlink:href="2B9851B.jpg"  transform="matrix(1 0 0 1 -7667 -8042)">
</image>
<image style="overflow:visible;" width="745" height="914" xlink:href="2B98518.jpg"  transform="matrix(1 0 0 1 -7667 -8042)">
</image>
<image style="overflow:visible;" width="745" height="914" xlink:href="2B98526.jpg"  transform="matrix(1 0 0 1 -7667 -8042)">
</image>
<image style="overflow:visible;" width="745" height="914" xlink:href="2B98529.jpg"  transform="matrix(1 0 0 1 -7667 -8042)">
</image>
<image style="overflow:visible;" width="745" height="914" xlink:href="2B9852A.jpg"  transform="matrix(1 0 0 1 -7667 -8042)">
</image>
<image style="overflow:visible;" width="745" height="914" xlink:href="2B98528.jpg"  transform="matrix(1 0 0 1 -7667 -8035)">
</image>
<image style="overflow:visible;" width="745" height="914" xlink:href="64D03D1D.jpg"  transform="matrix(1 0 0 1 -7667 -8042)">
</image>
<image style="overflow:visible;" width="745" height="914" xlink:href="64D03D13.jpg"  transform="matrix(1 0 0 1 -7667 -8042)">
</image>
<image style="overflow:visible;" width="745" height="914" xlink:href="64D03D15.jpg"  transform="matrix(1 0 0 1 -7667 -8042)">
</image>
<image style="overflow:visible;" width="745" height="914" xlink:href="64D03D17.jpg"  transform="matrix(1 0 0 1 -7667 -8042)">
</image>
<image style="overflow:visible;" width="745" height="914" xlink:href="64D03D14.jpg"  transform="matrix(1 0 0 1 -7667 -8042)">
</image>
<image style="overflow:visible;" width="745" height="914" xlink:href="64D03D0C.jpg"  transform="matrix(1 0 0 1 -7667 -8042)">
</image>
<image style="overflow:visible;" width="745" height="914" xlink:href="64D03D0D.jpg"  transform="matrix(1 0 0 1 -7667 -8042)">
</image>
<g>
	<g>
		<linearGradient id="SVGID_1_" gradientUnits="userSpaceOnUse" x1="240.1396" y1="211.7538" x2="240.1396" y2="116.0881">
			<stop  offset="0" style="stop-color:#407DC1"/>
			<stop  offset="1" style="stop-color:#80E0E5"/>
		</linearGradient>
		<path class="st0" d="M261.1,121.6c-5.6-3.7-12.8-5.5-21.3-5.5c-12,0-21.3,3.9-27.6,11.6c-6.4,7.6-9.6,19.8-9.6,36
			c0,15.3,3.1,27.2,9.2,35.5c6.2,8.3,15.7,12.6,28.3,12.6c12,0,21.3-4.3,27.8-12.7c6.4-8.3,9.7-20.3,9.7-35.4c0-10-1.4-18.7-4-25.7
			C270.9,130.8,266.7,125.3,261.1,121.6z M224.7,186.3c-3.1-5.4-4.6-13-4.6-22.7c0-6.4,0.7-11.9,1.9-16.5c1.3-4.4,3.4-7.9,6.3-10.2
			c2.9-2.4,6.8-3.6,11.7-3.6c4.9,0,8.8,1.1,11.7,3.3c2.9,2.2,5,5.5,6.4,10c1.4,4.5,2.1,10.2,2.1,17c0,6-0.7,11.5-2,16.1
			c-1.3,4.6-3.5,8.2-6.4,10.7c-2.9,2.5-6.9,3.8-11.8,3.8C232.8,194.3,227.6,191.6,224.7,186.3z"/>
		<linearGradient id="SVGID_2_" gradientUnits="userSpaceOnUse" x1="326.8605" y1="211.7538" x2="326.8605" y2="80.9135">
			<stop  offset="0" style="stop-color:#407DC1"/>
			<stop  offset="1" style="stop-color:#80E0E5"/>
		</linearGradient>
		<path class="st1" d="M345.6,120.6c-0.7-0.4-1.5-0.7-2.3-1c-3-1.1-5.9-2-8.8-2.6c-2.9-0.6-5.3-0.9-7.3-0.9
			c-12.2,0-21.4,4.2-27.4,12.6c-6,8.3-9,19.7-9,33.9c0,10,1.1,18.3,3.2,24.6c2.2,6.4,5.2,11.4,8.9,15c3.7,3.6,7.9,6.1,12.5,7.5
			c4.5,1.4,9.2,2.1,13.9,2.1c3.8,0,7.7-0.4,11.6-1.3c3.9-0.8,7.6-2.2,10.9-3.9c3.3-1.8,6.1-4.1,8.1-6.9c2.1-2.9,3.1-6.3,3.1-10.1
			V80.9h-17.4V120.6z M308.6,162.9c0-6.4,0.8-11.8,2.2-16.1c1.5-4.2,3.7-7.5,6.8-9.7c3.1-2.2,7-3.3,11.8-3.3c2.7,0,5.5,0.4,8.3,1.2
			c2.7,0.8,5.3,2,7.8,3.6v49.1c0,1.7-1.5,3.2-4.4,4.4c-3.1,1.3-7,1.9-11.5,1.9c-5.6,0-9.9-1.4-13-4.1c-3.1-2.7-5.2-6.4-6.4-11
			C309.2,174.1,308.6,168.8,308.6,162.9z"/>
		<linearGradient id="SVGID_3_" gradientUnits="userSpaceOnUse" x1="415.7199" y1="211.7538" x2="415.7199" y2="116.0881">
			<stop  offset="0" style="stop-color:#407DC1"/>
			<stop  offset="1" style="stop-color:#80E0E5"/>
		</linearGradient>
		<path class="st2" d="M436.8,122.7c-5.2-4.4-12.1-6.6-20.4-6.6c-11.4,0-20.4,4.1-26.7,12.3c-6.3,8.1-9.6,20.2-9.6,35.8
			c0,10.1,1.5,18.9,4.6,25.9c3,7.1,7.5,12.6,13.1,16.2c5.6,3.6,12.4,5.4,20,5.4c5.6,0,10.8-0.6,15.3-1.7c4.5-1.1,8.6-2.6,12.2-4.4
			l0.5-0.2v-19.2l-1.2,0.7c-1.8,1-4,2.1-6.5,3.2c-2.5,1.1-5.2,2-8.2,2.7c-2.9,0.7-6.1,1-9.5,1c-7.4,0-13.1-2.5-16.9-7.4
			c-3.2-4.2-5.1-10.1-5.6-17.7h53.7l0-0.8c0.1-10.2-1-19.3-3.3-27C445.8,133.2,442,127,436.8,122.7z M433.5,153.2h-35.3
			c0.4-3,0.9-5.7,1.6-7.9c1.4-4.5,3.5-7.7,6.2-9.5c2.7-1.9,6-2.8,9.9-2.8c6,0,10.5,2,13.2,6C431.3,142.2,432.8,147,433.5,153.2z"/>
		<linearGradient id="SVGID_4_" gradientUnits="userSpaceOnUse" x1="512.8793" y1="209.0889" x2="512.8793" y2="88.9078">
			<stop  offset="0" style="stop-color:#407DC1"/>
			<stop  offset="1" style="stop-color:#80E0E5"/>
		</linearGradient>
		<polygon class="st3" points="539.1,174 486.4,88.9 469,88.9 469,209.1 486.6,209.1 486.6,122.9 540.4,209.1 556.7,209.1 
			556.7,88.9 539.1,88.9 		"/>
		<linearGradient id="SVGID_5_" gradientUnits="userSpaceOnUse" x1="610.1965" y1="211.7538" x2="610.1965" y2="116.0881">
			<stop  offset="0" style="stop-color:#407DC1"/>
			<stop  offset="1" style="stop-color:#80E0E5"/>
		</linearGradient>
		<path class="st4" d="M631.3,122.7c-5.2-4.4-12.1-6.6-20.4-6.6c-11.4,0-20.4,4.1-26.7,12.3c-6.3,8.1-9.6,20.2-9.6,35.8
			c0,10.1,1.5,18.9,4.6,25.9c3,7.1,7.5,12.6,13.1,16.2c5.6,3.6,12.4,5.4,20,5.4c5.6,0,10.8-0.6,15.3-1.7c4.5-1.1,8.6-2.6,12.2-4.4
			l0.5-0.2v-19.2l-1.2,0.7c-1.8,1-4,2.1-6.5,3.2c-2.5,1.1-5.2,2-8.2,2.7c-2.9,0.7-6.1,1-9.5,1c-7.4,0-13.1-2.5-16.9-7.4
			c-3.2-4.2-5.1-10.1-5.6-17.7h53.7l0-0.8c0.1-10.2-1-19.3-3.3-27C640.2,133.2,636.4,127,631.3,122.7z M627.9,153.2h-35.3
			c0.4-3,0.9-5.7,1.6-7.9c1.4-4.5,3.5-7.7,6.2-9.5c2.7-1.9,6-2.8,9.9-2.8c6,0,10.5,2,13.2,6C625.8,142.2,627.3,147,627.9,153.2z"/>
		<linearGradient id="SVGID_6_" gradientUnits="userSpaceOnUse" x1="690.1332" y1="210.8654" x2="690.1332" y2="116.2656">
			<stop  offset="0" style="stop-color:#407DC1"/>
			<stop  offset="1" style="stop-color:#80E0E5"/>
		</linearGradient>
		<path class="st5" d="M710.6,191c-3.5,1.1-7.1,1.7-10.8,1.7c-8.4,0-14.4-2.4-18.1-7.1c-3.7-4.7-5.5-12.4-5.5-22.8
			c0-10,2-17.4,5.8-21.8c3.8-4.4,9.7-6.7,17.3-6.7c3.7,0,7.2,0.5,10.6,1.5c3.4,1,6.8,2.4,10.2,4.1l1.1,0.6v-18.6l-0.4-0.2
			c-3.5-1.8-7.4-3.2-11.5-4.1c-4.1-0.9-8.3-1.3-12.3-1.3c-4.8,0-9.6,0.8-14.2,2.3c-4.6,1.6-8.8,4.2-12.4,7.9
			c-3.6,3.7-6.5,8.7-8.6,14.8c-2.1,6.1-3.1,13.8-3.1,22.8c0,8.8,1.1,16.3,3.3,22.2c2.2,6,5.1,10.8,8.8,14.4
			c3.7,3.6,7.8,6.2,12.4,7.7c4.5,1.6,9.2,2.3,14,2.3c4.4,0,8.6-0.5,12.5-1.4c3.9-1,7.7-2.4,11.3-4.3l0.4-0.2v-18.6l-1.1,0.6
			C717.3,188.5,714.1,189.9,710.6,191z"/>
		<linearGradient id="SVGID_7_" gradientUnits="userSpaceOnUse" x1="755.364" y1="211.3982" x2="755.364" y2="93.349">
			<stop  offset="0" style="stop-color:#407DC1"/>
			<stop  offset="1" style="stop-color:#80E0E5"/>
		</linearGradient>
		<path class="st6" d="M761.3,93.3h-18v24.9h-12.3v17.1h12.3v50c0,8.5,2.1,15,6.3,19.4c4.1,4.4,9.8,6.6,16.9,6.6
			c2.1,0,4.3-0.2,6.6-0.7c2.3-0.5,4.5-1.2,6.4-2.2l0.4-0.2v-18.6l-1.2,0.8c-1.1,0.8-2.6,1.4-4.2,1.9c-1.7,0.5-3.3,0.8-5,0.8
			c-3.2,0-5.3-0.9-6.4-2.7c-1.2-1.9-1.8-4.9-1.8-8.9v-46.2h18.6v-17.1h-18.6V93.3z"/>
		<linearGradient id="SVGID_8_" gradientUnits="userSpaceOnUse" x1="806.1924" y1="209.0889" x2="806.1924" y2="118.7528">
			<stop  offset="0" style="stop-color:#407DC1"/>
			<stop  offset="1" style="stop-color:#80E0E5"/>
		</linearGradient>
		<polygon class="st7" points="797.3,118.8 797.3,209.1 815.1,209.1 814.9,118.8 		"/>
		<linearGradient id="SVGID_9_" gradientUnits="userSpaceOnUse" x1="806.1917" y1="109.9721" x2="806.1917" y2="82.8565">
			<stop  offset="0" style="stop-color:#407DC1"/>
			<stop  offset="1" style="stop-color:#80E0E5"/>
		</linearGradient>
		<polygon class="st8" points="793.6,96.4 806.2,110 818.8,96.4 806.2,82.9 		"/>
		<linearGradient id="SVGID_10_" gradientUnits="userSpaceOnUse" x1="870.0519" y1="211.7538" x2="870.0519" y2="116.0881">
			<stop  offset="0" style="stop-color:#407DC1"/>
			<stop  offset="1" style="stop-color:#80E0E5"/>
		</linearGradient>
		<path class="st9" d="M891,121.6c-5.6-3.7-12.8-5.5-21.3-5.5c-12,0-21.3,3.9-27.6,11.6c-6.4,7.6-9.6,19.8-9.6,36
			c0,15.3,3.1,27.2,9.2,35.5c6.2,8.3,15.7,12.6,28.3,12.6c12,0,21.3-4.3,27.8-12.7c6.4-8.3,9.7-20.3,9.7-35.4c0-10-1.4-18.7-4-25.7
			C900.9,130.8,896.6,125.3,891,121.6z M854.6,186.3c-3.1-5.4-4.6-13-4.6-22.7c0-6.4,0.7-11.9,1.9-16.5c1.3-4.4,3.4-7.9,6.3-10.2
			c2.9-2.4,6.8-3.6,11.7-3.6c4.9,0,8.8,1.1,11.7,3.3c2.9,2.2,5,5.5,6.4,10c1.4,4.5,2.1,10.2,2.1,17c0,6-0.7,11.5-2,16.1
			c-1.3,4.6-3.5,8.2-6.4,10.7c-2.9,2.5-6.9,3.8-11.8,3.8C862.7,194.3,857.5,191.6,854.6,186.3z"/>
		<linearGradient id="SVGID_11_" gradientUnits="userSpaceOnUse" x1="958.7542" y1="209.0889" x2="958.7542" y2="116.2656">
			<stop  offset="0" style="stop-color:#407DC1"/>
			<stop  offset="1" style="stop-color:#80E0E5"/>
		</linearGradient>
		<path class="st10" d="M989.5,130.9c-2.3-4.9-5.9-8.7-10.6-11c-4.7-2.4-10.7-3.5-18-3.5c-3.1,0-6.3,0.2-9.6,0.7
			c-3.3,0.5-6.5,1.1-9.7,2c-3.2,0.8-6.2,1.8-9,3c-2.8,1.1-5.4,2.4-7.6,3.7l-0.4,0.2v83.2h17.6v-72c2.3-0.9,4.9-1.7,7.5-2.2
			c2.8-0.6,5.6-0.9,8.3-0.9c3.7,0,6.8,0.5,9.1,1.5c2.2,1,4,2.4,5.2,4.1c1.2,1.7,2,3.7,2.5,5.7c0.4,2.1,0.7,4.3,0.7,6.5v57.3h17.6
			v-59.8C992.9,141.9,991.8,135.8,989.5,130.9z"/>
	</g>
	<g>
		<polygon class="st11" points="165.7,95 135.5,108.6 127.2,107.6 130.8,65.6 		"/>
		<polygon class="st12" points="130.8,65.6 127.2,107.6 96.8,103.8 96.8,103.8 96.6,103.7 130.8,65.5 		"/>
		<polygon class="st13" points="135.5,108.6 135.1,108.8 134.6,108.6 134,109.3 126.3,119.1 126.3,119.1 127.2,107.6 		"/>
		<path class="st14" d="M91,135.8l-4.5,2.1v0c0-1.5,1.2-2.8,2.8-2.8C89.9,135.1,90.5,135.4,91,135.8z"/>
		<path class="st14" d="M126.3,119.1l-32.4,15.3c-1-1.4-2.7-2.3-4.6-2.3c-3.2,0-5.8,2.6-5.8,5.8c0,0.5,0.1,0.9,0.2,1.4l-6.6,3.1
			l-5-11.2l24.5-27.4l0.2,0h0L126.3,119.1z"/>
		<polygon class="st15" points="96.8,103.8 96.6,103.8 96.6,103.7 		"/>
		<path class="st13" d="M92,137.9c0,1.5-1.2,2.8-2.8,2.8c-1.5,0-2.7-1.2-2.8-2.7l4.5-2.1C91.6,136.3,92,137,92,137.9z"/>
		<path class="st13" d="M108.5,142l-6.9,8.9h-7.9l-16.6-8.4l0-0.1l6.6-3.1c0.6,2.5,2.9,4.4,5.6,4.4c2.6,0,4.9-1.8,5.5-4.2H106
			L108.5,142z"/>
		<path class="st13" d="M126.3,119.1L126.3,119.1l-15.9,20.4l-2.8-2.8v-0.4H94.8c-0.2-0.7-0.5-1.3-0.9-1.9L126.3,119.1L126.3,119.1z
			"/>
		<polygon class="st15" points="126.3,119.1 126.3,119.2 126.3,119.2 126.3,119.1 126.3,119.1 126.3,119.1 		"/>
		<polygon class="st11" points="77.1,142.3 77,142.4 66.7,137.2 72.1,131.2 		"/>
		<path class="st13" d="M74.1,152.3c0,1.5-1.2,2.8-2.8,2.8c-1.5,0-2.8-1.2-2.8-2.8c0-1.5,1.2-2.8,2.8-2.8
			C72.9,149.5,74.1,150.8,74.1,152.3z"/>
		<path class="st13" d="M87.1,164.7c-0.5,0.4-1.1,0.7-1.8,0.7c-1.5,0-2.8-1.2-2.8-2.8c0-1.4,1.1-2.6,2.5-2.7L87.1,164.7z"/>
		<path class="st13" d="M104.2,202.9L104.2,202.9L104.2,202.9l-53.1-48.3L77,142.4l0.1,0.1l3.8,8.4h-3.9c-0.6-2.5-2.9-4.3-5.5-4.3
			c-3.2,0-5.8,2.6-5.8,5.8c0,3.2,2.6,5.8,5.8,5.8c2.6,0,4.9-1.7,5.5-4.2h5.3l1.5,3.3c-2.4,0.7-4.2,2.9-4.2,5.5
			c0,3.2,2.6,5.8,5.8,5.8c1.1,0,2.2-0.3,3.1-0.9L104.2,202.9z"/>
		<polygon class="st14" points="77,142.4 51.1,154.6 51.1,154.6 66.7,137.2 		"/>
		<polygon class="st15" points="77.1,142.4 77,142.4 77.1,142.3 		"/>
		<polygon class="st16" points="93.7,150.8 80.9,150.8 77.1,142.4 		"/>
		<path class="st16" d="M88,162.6c0,0.8-0.4,1.5-0.9,2.1l-2.1-4.8c0.1,0,0.2,0,0.3,0C86.7,159.9,88,161.1,88,162.6z"/>
		<path class="st16" d="M104.2,158.5v2.6H90.8c-0.7-2.5-2.9-4.2-5.5-4.2c-0.5,0-1.1,0.1-1.6,0.2l-1.5-3.3h17.3L104.2,158.5z"/>
		<path class="st16" d="M104.1,179.6c0,1.5-1.2,2.8-2.8,2.8c-1.5,0-2.8-1.2-2.8-2.8c0-1.5,1.2-2.8,2.8-2.8
			C102.9,176.9,104.1,178.1,104.1,179.6z"/>
		<path class="st16" d="M95.6,179.7c0,3.2,2.6,5.8,5.8,5.8c1,0,2-0.3,2.8-0.8v18.2l-15.8-35.4c1.2-0.8,2.1-1.9,2.4-3.3h13.4v10.5
			c-0.8-0.5-1.8-0.7-2.8-0.7C98.2,173.9,95.6,176.5,95.6,179.7z"/>
		<polygon class="st17" points="106.7,161.1 104.2,161.1 104.2,158.5 		"/>
		<path class="st17" d="M121.1,175.6h-0.6l-2.5,2.5h-11.1c-0.4-1.5-1.4-2.8-2.7-3.5v-10.5h5.6L121.1,175.6z"/>
		<path class="st17" d="M140.3,194.9L140.3,194.9l-36.1,7.9l0,0v-18.2c1.3-0.8,2.3-2,2.7-3.5h12.2l0.6-0.1v-0.4l2.1-2.1h2.3
			L140.3,194.9z"/>
		<polygon class="st16" points="140.3,195 139,234.3 138.9,234.5 104.2,202.9 104.2,202.9 		"/>
		<polygon class="st15" points="104.2,202.9 104.2,202.9 104.2,202.9 104.2,202.9 104.2,202.9 104.2,202.9 		"/>
		<polygon class="st18" points="186.6,184.9 139,234.3 140.3,195 159.3,190.8 161,190.5 		"/>
		<polygon class="st15" points="159.3,190.8 140.3,195 140.3,194.9 140.3,195 		"/>
		<polygon class="st13" points="187.8,131.3 135.1,108.8 135.5,108.6 177.7,113.9 177.7,113.9 		"/>
		<polygon class="st12" points="189.7,115.4 177.7,113.9 177.7,113.9 167.4,96.3 189.7,115.1 		"/>
		<polygon class="st11" points="189.8,132.1 187.8,131.3 187.8,131.3 177.7,113.9 189.7,115.4 		"/>
		<line class="st19" x1="126.3" y1="119.1" x2="126.3" y2="119.1"/>
		<line class="st19" x1="184.8" y1="185.3" x2="161" y2="190.5"/>
		<line class="st19" x1="104.2" y1="202.9" x2="104.2" y2="202.9"/>
		<polygon class="st11" points="127.2,107.6 126.3,119.1 126.3,119.1 96.8,103.8 		"/>
		<polygon class="st14" points="177.7,113.9 135.5,108.6 165.7,95 167.4,96.3 		"/>
	</g>
</g>
</svg>
