<?xml version="1.0" encoding="utf-8"?>
<!-- Generator: Adobe Illustrator 24.2.1, SVG Export Plug-In . SVG Version: 6.00 Build 0)  -->
<svg version="1.1" id="CodeNection_Logo" xmlns="http://www.w3.org/2000/svg" xmlns:xlink="http://www.w3.org/1999/xlink" x="0px"
	 y="0px" viewBox="0 0 1050 300" style="enable-background:new 0 0 1050 300;" xml:space="preserve">
<style type="text/css">
	.st0{fill:none;}
	.st1{fill:#FF00FF;}
</style>
<g id="CodeNection_Logo_1_">
	<g>
		<g>
			<path d="M260.4,121.4c-5.6-3.7-12.8-5.5-21.3-5.5c-12,0-21.3,3.9-27.7,11.6c-6.4,7.7-9.6,19.8-9.6,36c0,15.3,3.1,27.3,9.2,35.6
				c6.2,8.4,15.7,12.6,28.3,12.6c12,0,21.4-4.3,27.8-12.7c6.4-8.4,9.7-20.3,9.7-35.5c0-10-1.4-18.7-4-25.7
				C270.2,130.6,266,125.1,260.4,121.4z M223.9,186.2c-3.1-5.4-4.6-13-4.6-22.7c0-6.4,0.7-11.9,1.9-16.5c1.3-4.4,3.4-7.9,6.3-10.2
				c2.9-2.4,6.8-3.6,11.7-3.6c4.9,0,8.8,1.1,11.8,3.3c2.9,2.2,5.1,5.5,6.4,10c1.4,4.5,2.1,10.2,2.1,17c0,6.1-0.7,11.5-2,16.1
				c-1.3,4.6-3.5,8.2-6.4,10.7c-2.9,2.5-6.9,3.8-11.9,3.8C232,194.1,226.9,191.4,223.9,186.2z"/>
			<path d="M344.9,120.4c-0.7-0.4-1.5-0.7-2.3-1c-3-1.1-5.9-2-8.8-2.6c-2.9-0.6-5.4-0.9-7.3-0.9c-12.2,0-21.4,4.2-27.5,12.6
				c-6,8.3-9,19.7-9,33.9c0,10,1.1,18.3,3.3,24.7c2.2,6.4,5.2,11.4,8.9,15c3.7,3.6,7.9,6.1,12.5,7.5c4.5,1.4,9.2,2.1,13.9,2.1
				c3.8,0,7.7-0.4,11.6-1.3c3.9-0.8,7.6-2.2,10.9-3.9c3.3-1.8,6.1-4.1,8.1-6.9c2.1-2.9,3.1-6.3,3.1-10.1V80.7h-17.4V120.4z
				 M307.9,162.8c0-6.4,0.8-11.8,2.2-16.2c1.5-4.3,3.7-7.5,6.8-9.7c3.1-2.2,7-3.3,11.8-3.3c2.7,0,5.5,0.4,8.3,1.2
				c2.7,0.8,5.3,2,7.8,3.6v49.1c0,1.7-1.5,3.2-4.4,4.4c-3.1,1.3-7,1.9-11.5,1.9c-5.6,0-10-1.4-13-4.1c-3.1-2.7-5.2-6.4-6.4-11
				C308.5,173.9,307.9,168.6,307.9,162.8z"/>
			<path d="M436.2,122.5c-5.2-4.4-12.1-6.6-20.5-6.6c-11.4,0-20.4,4.1-26.8,12.3c-6.3,8.1-9.6,20.2-9.6,35.8c0,10.2,1.5,18.9,4.6,26
				c3.1,7.1,7.5,12.6,13.1,16.2c5.6,3.6,12.4,5.5,20,5.5c5.6,0,10.8-0.6,15.3-1.7c4.5-1.1,8.6-2.6,12.2-4.4l0.5-0.2v-19.2l-1.2,0.7
				c-1.8,1.1-4,2.1-6.5,3.3c-2.5,1.1-5.2,2-8.2,2.7c-2.9,0.7-6.1,1-9.5,1c-7.4,0-13.1-2.5-16.9-7.4c-3.2-4.2-5.1-10.2-5.6-17.7h53.7
				l0-0.8c0.1-10.2-1-19.3-3.3-27C445.2,133,441.4,126.8,436.2,122.5z M432.9,153h-35.3c0.4-3,0.9-5.7,1.6-7.9
				c1.4-4.5,3.5-7.7,6.2-9.5c2.7-1.9,6.1-2.8,10-2.8c6,0,10.5,2,13.3,6C430.8,142,432.3,146.8,432.9,153z"/>
			<polygon points="538.7,173.9 485.9,88.7 468.5,88.7 468.5,209 486.1,209 486.1,122.7 540,209 556.3,209 556.3,88.7 538.7,88.7 
							"/>
			<path d="M630.9,122.5c-5.2-4.4-12.1-6.6-20.5-6.6c-11.4,0-20.4,4.1-26.8,12.3c-6.3,8.1-9.6,20.2-9.6,35.8c0,10.2,1.5,18.9,4.6,26
				c3.1,7.1,7.5,12.6,13.1,16.2c5.6,3.6,12.4,5.5,20,5.5c5.6,0,10.8-0.6,15.3-1.7c4.5-1.1,8.6-2.6,12.2-4.4l0.5-0.2v-19.2l-1.2,0.7
				c-1.8,1.1-4,2.1-6.5,3.3c-2.5,1.1-5.2,2-8.2,2.7c-2.9,0.7-6.1,1-9.5,1c-7.4,0-13.1-2.5-16.9-7.4c-3.2-4.2-5.1-10.2-5.6-17.7h53.7
				l0-0.8c0.1-10.2-1-19.3-3.3-27C639.9,133,636.1,126.8,630.9,122.5z M627.6,153h-35.3c0.4-3,0.9-5.7,1.6-7.9
				c1.4-4.5,3.5-7.7,6.2-9.5c2.7-1.9,6.1-2.8,10-2.8c6,0,10.5,2,13.3,6C625.5,142,626.9,146.8,627.6,153z"/>
			<path d="M710.3,190.9c-3.5,1.1-7.1,1.7-10.8,1.7c-8.4,0-14.4-2.4-18.1-7.1c-3.7-4.7-5.5-12.4-5.5-22.8c0-10,2-17.4,5.8-21.8
				c3.8-4.4,9.7-6.7,17.4-6.7c3.7,0,7.2,0.5,10.6,1.5c3.4,1,6.8,2.4,10.2,4.1l1.1,0.6v-18.6l-0.4-0.2c-3.5-1.8-7.4-3.2-11.5-4.1
				c-4.1-0.9-8.3-1.4-12.4-1.4c-4.8,0-9.6,0.8-14.2,2.4c-4.6,1.6-8.8,4.2-12.4,7.9c-3.6,3.7-6.5,8.7-8.6,14.8
				c-2.1,6.1-3.1,13.8-3.1,22.9c0,8.8,1.1,16.3,3.3,22.3c2.2,6,5.1,10.8,8.8,14.4c3.7,3.6,7.9,6.2,12.4,7.7c4.5,1.6,9.2,2.4,14,2.4
				c4.4,0,8.6-0.5,12.5-1.4c3.9-1,7.7-2.4,11.3-4.3l0.4-0.2v-18.6l-1.1,0.6C717.1,188.4,713.8,189.8,710.3,190.9z"/>
			<path d="M761,93.1H743V118h-12.4v17.2H743v50c0,8.5,2.1,15,6.3,19.5c4.2,4.4,9.9,6.6,17,6.6c2.1,0,4.3-0.2,6.6-0.7
				c2.3-0.5,4.5-1.2,6.4-2.2l0.4-0.2v-18.6l-1.2,0.8c-1.1,0.8-2.6,1.4-4.2,1.9c-1.7,0.5-3.3,0.8-5,0.8c-3.2,0-5.3-0.9-6.4-2.7
				c-1.2-1.9-1.8-4.9-1.8-8.9v-46.3h18.6V118H761V93.1z"/>
			<polygon points="797.1,118.5 797.1,209 814.9,209 814.7,118.5 			"/>
			<polygon points="793.4,96.2 806,109.8 818.6,96.2 806,82.6 			"/>
			<path d="M890.9,121.4c-5.6-3.7-12.8-5.5-21.3-5.5c-12,0-21.3,3.9-27.7,11.6c-6.4,7.7-9.6,19.8-9.6,36c0,15.3,3.1,27.3,9.2,35.6
				c6.2,8.4,15.7,12.6,28.3,12.6c12,0,21.4-4.3,27.8-12.7c6.4-8.4,9.7-20.3,9.7-35.5c0-10-1.4-18.7-4-25.7
				C900.8,130.6,896.5,125.1,890.9,121.4z M854.4,186.2c-3.1-5.4-4.6-13-4.6-22.7c0-6.4,0.7-11.9,1.9-16.5c1.3-4.4,3.4-7.9,6.3-10.2
				c2.9-2.4,6.8-3.6,11.7-3.6c4.9,0,8.9,1.1,11.8,3.3c2.9,2.2,5.1,5.5,6.4,10c1.4,4.5,2.1,10.2,2.1,17c0,6.1-0.7,11.5-2,16.1
				c-1.3,4.6-3.5,8.2-6.4,10.7c-2.9,2.5-6.9,3.8-11.9,3.8C862.6,194.1,857.4,191.4,854.4,186.2z"/>
			<path d="M989.5,130.7c-2.3-5-5.9-8.7-10.6-11.1c-4.7-2.4-10.7-3.5-18-3.5c-3.1,0-6.3,0.2-9.6,0.7c-3.3,0.5-6.5,1.1-9.7,2
				c-3.2,0.8-6.2,1.8-9,3c-2.8,1.1-5.4,2.4-7.7,3.7l-0.4,0.2V209h17.6v-72.1c2.3-0.9,4.9-1.7,7.5-2.2c2.8-0.6,5.6-0.9,8.3-0.9
				c3.7,0,6.8,0.5,9.1,1.5c2.2,1,4,2.4,5.2,4.1c1.2,1.7,2,3.7,2.5,5.7c0.4,2.1,0.7,4.3,0.7,6.5V209h17.6v-59.9
				C992.9,141.8,991.8,135.6,989.5,130.7z"/>
		</g>
	</g>
	<g>
		<g>
			<polygon points="164.5,94.1 134.8,107.5 127.7,106.6 131.2,66.1 			"/>
			<polygon points="129.2,66.4 125.8,106.4 96.7,102.8 			"/>
			<polygon points="133.3,109.3 127,117.4 126.8,117.5 127.6,108.6 			"/>
			<path d="M123.5,119l-31,14.6c-1-1-2.4-1.6-4-1.6c-3.2,0-5.8,2.6-5.8,5.8c0,0.1,0,0.3,0,0.4l-5.9,2.8l-4.8-10.7l23.1-25.8l0.8,0.1
				L123.5,119z"/>
			<path d="M107.9,141.9l-6.9,8.9h-5.8l-16.7-8.4l4.8-2.2c0.9,2,2.9,3.5,5.3,3.5c2.6,0,4.9-1.8,5.5-4.2h11.2L107.9,141.9z"/>
			<path d="M124.4,120.7l-14.6,18.8l-2.8-2.8v-0.4H94.1c-0.1-0.4-0.2-0.7-0.4-1.1L124.4,120.7z"/>
			<polygon points="74.4,140.3 66.6,136.3 70.6,131.9 			"/>
			<path d="M73.4,152.3c0,1.5-1.2,2.8-2.8,2.8c-1.5,0-2.8-1.2-2.8-2.8c0-1.5,1.2-2.8,2.8-2.8C72.2,149.5,73.4,150.8,73.4,152.3z"/>
			<path d="M87.3,162.7c0,0.4-0.1,0.8-0.3,1.2v0c-0.2,0.3-0.4,0.7-0.7,0.9c-0.2,0.2-0.5,0.4-0.8,0.5c-0.3,0.1-0.7,0.2-1,0.2
				c-1.5,0-2.8-1.2-2.8-2.8c0-1.1,0.6-2,1.5-2.5c0.3-0.1,0.6-0.2,0.9-0.3c0.1,0,0.2,0,0.3,0c0.3,0,0.6,0,0.8,0.1v0
				C86.5,160.4,87.3,161.4,87.3,162.7z"/>
			<path d="M79.1,150.8h-2.9c-0.6-2.5-2.9-4.3-5.5-4.3c-0.4,0-0.8,0-1.2,0.1l6.5-3L79.1,150.8z"/>
			<path d="M101.7,201.4l-50.7-46.1l16-7.5c-1.3,1.1-2.2,2.7-2.2,4.5c0,3.2,2.6,5.8,5.8,5.8c2.6,0,4.9-1.8,5.5-4.2h4.3l1.6,3.6
				c-2,0.9-3.3,2.9-3.3,5.2c0,3.2,2.6,5.8,5.8,5.8c0.8,0,1.6-0.2,2.3-0.5L101.7,201.4z"/>
			<polygon points="74.1,142.3 52,152.7 65.3,137.8 			"/>
			<polygon points="90.9,150.8 81.2,150.8 78.4,144.5 			"/>
			<path d="M102.6,157.6v3.6H90.1c-0.7-2.5-2.9-4.2-5.5-4.2c-0.2,0-0.4,0-0.6,0l-1.4-3.1h16.3l2,2.1l0,0L102.6,157.6z"/>
			<path d="M103.5,179.7c0,0.8-0.3,1.5-0.9,2c-0.5,0.5-1.2,0.8-1.9,0.8c-1.5,0-2.8-1.2-2.8-2.8c0-1.5,1.2-2.8,2.8-2.8
				c0.7,0,1.4,0.3,1.9,0.7C103.1,178.2,103.5,178.9,103.5,179.7z"/>
			<path d="M94.9,179.8c0,3.2,2.6,5.8,5.8,5.8c0.7,0,1.3-0.1,1.9-0.3v13.3l-14.1-31.6c0.8-0.7,1.4-1.7,1.6-2.7h12.5v10.1
				c-0.6-0.2-1.2-0.3-1.9-0.3C97.5,174,94.9,176.6,94.9,179.8z"/>
			<polygon points="106.1,161.1 104.5,161.1 104.5,159.5 			"/>
			<path d="M120.5,175.7H120l-2.6,2.6h-11.2c-0.3-1.1-0.9-2.1-1.7-2.8v-11.2h4.6L120.5,175.7z"/>
			<path d="M138.2,193.5l-33.6,7.4V184c0.8-0.7,1.4-1.7,1.7-2.8h12.2l0.6-0.1v-0.4l2.1-2.1h2.3L138.2,193.5z"/>
			<polygon points="138.7,195.3 138.7,195.3 131.3,196.9 			"/>
			<polygon points="138.7,195.3 137.5,233.9 105.3,204.7 104.5,202.8 104.5,202.8 104.5,202.8 104.5,202.8 104.5,202.8 131.3,196.9 
							"/>
			<polygon points="186.2,185 139.4,233.5 140.7,194.9 158.8,190.9 160.5,190.6 			"/>
			<polygon points="158.8,190.9 140.7,194.9 140.7,194.9 148.2,193.3 			"/>
			<polygon points="185.9,130.6 137.1,109.7 176.6,114.7 			"/>
			<polygon points="188.3,114.2 177.8,112.9 177.8,112.9 169.1,98 			"/>
			<polygon points="189.4,132.1 188.9,131.8 179,115 189.3,116.2 			"/>
			<line class="st0" x1="184.4" y1="185.4" x2="160.5" y2="190.6"/>
			<polygon points="125.7,108.3 124.9,117.6 101.4,105.3 			"/>
			<polygon points="175.4,112.6 138.4,108 165.5,95.7 			"/>
		</g>
		<polygon class="st1" points="131.3,196.9 104.5,202.8 104.5,202.8 104.5,202.8 104.5,202.8 104.5,202.8 		"/>
		<polygon class="st1" points="148.2,193.3 140.7,194.9 140.7,194.9 		"/>
		<polygon class="st1" points="104.5,202.8 104.5,202.8 104.5,202.8 104.5,202.8 104.5,202.8 		"/>
		<polygon class="st1" points="101.8,201.4 101.8,201.4 101.7,201.4 		"/>
		<polygon class="st1" points="102.6,203.2 102.6,203.2 102.6,203.2 		"/>
		<path d="M91.3,137.8c0,1.5-1.2,2.8-2.8,2.8c-1.2,0-2.2-0.7-2.6-1.7c-0.1-0.3-0.2-0.6-0.2-1v0c0-0.4,0.1-0.8,0.2-1.1
			c0.4-1,1.4-1.6,2.5-1.6c0.3,0,0.5,0,0.7,0.1c0.4,0.1,0.8,0.3,1.1,0.6c0.3,0.2,0.5,0.5,0.6,0.8C91.2,136.9,91.3,137.3,91.3,137.8z"
			/>
		<path class="st1" d="M69.4,146.6l-2.3,1.1C67.8,147.2,68.6,146.8,69.4,146.6z"/>
	</g>
</g>
</svg>
