<?xml version="1.0" encoding="utf-8"?>
<!-- Generator: Adobe Illustrator 24.2.1, SVG Export Plug-In . SVG Version: 6.00 Build 0)  -->
<svg version="1.1" id="CodeNection_Vertical_Logo" xmlns="http://www.w3.org/2000/svg" xmlns:xlink="http://www.w3.org/1999/xlink"
	 x="0px" y="0px" viewBox="0 0 1050 1050" style="enable-background:new 0 0 1050 1050;" xml:space="preserve">
<style type="text/css">
	.st0{fill:#80E0E5;}
	.st1{fill:#92ECE9;}
	.st2{fill:#5EC1DD;}
	.st3{fill:#6ED2E1;}
	.st4{fill:#999999;}
	.st5{fill:#50ADD9;}
	.st6{fill:#4297D6;}
	.st7{fill:#407DC1;}
	.st8{fill:none;}
	.st9{fill:url(#SVGID_1_);}
	.st10{fill:url(#SVGID_2_);}
	.st11{fill:url(#SVGID_3_);}
	.st12{fill:url(#SVGID_4_);}
	.st13{fill:url(#SVGID_5_);}
	.st14{fill:url(#SVGID_6_);}
	.st15{fill:url(#SVGID_7_);}
	.st16{fill:url(#SVGID_8_);}
	.st17{fill:url(#SVGID_9_);}
	.st18{fill:url(#SVGID_10_);}
	.st19{fill:url(#SVGID_11_);}
	.st20{fill:url(#SVGID_12_);}
</style>
<g id="CodeNection_Vertical_Logo_1_">
	<g>
		<g>
			<g>
				<polygon class="st0" points="652.4,250 542.1,299.8 512.2,296.1 525.2,143 				"/>
				<polygon class="st1" points="525.2,143 512.2,296.1 401.1,282.3 401.1,282.3 400.5,282 525.1,142.9 				"/>
				<polygon class="st2" points="542.1,299.8 540.8,300.4 538.8,299.6 536.7,302.3 508.9,338 508.6,338.1 512.2,296.1 				"/>
				<path class="st3" d="M380.2,398.7l-16.5,7.8v-0.2c0-5.5,4.5-10,10-10C376.1,396.3,378.4,397.2,380.2,398.7z"/>
				<path class="st3" d="M508.6,338.1l-118.1,55.7c-3.8-5.2-10-8.5-16.8-8.5c-11.6,0-21,9.4-21,21c0,1.7,0.2,3.4,0.6,5l-24,11.3
					l-18.3-40.8l89.3-99.7l0.7,0.1h0L508.6,338.1z"/>
				<polygon class="st4" points="401.1,282.3 400.4,282.2 400.5,282 				"/>
				<path class="st2" d="M383.7,406.4c0,5.5-4.5,10-10,10c-5.5,0-10-4.4-10-9.9l16.5-7.8C382.3,400.6,383.7,403.3,383.7,406.4z"/>
				<path class="st2" d="M443.9,421.3l-25.2,32.3H390L329.5,423l-0.1-0.3l24-11.3c2.3,9.1,10.5,15.9,20.4,15.9
					c9.6,0,17.8-6.4,20.1-15.4h40.8L443.9,421.3z"/>
				<path class="st2" d="M508.6,338.2l0,0.1l-57.9,74.3l-10.3-10.3v-1.5h-46.6c-0.7-2.6-1.8-4.9-3.3-6.9L508.6,338.2L508.6,338.2z"
					/>
				<polygon class="st4" points="508.9,338 508.7,338.2 508.6,338.3 508.6,338.2 508.6,338.1 508.6,338.1 				"/>
				<polygon class="st0" points="329.4,422.7 329.1,422.8 291.5,403.8 311.1,381.9 				"/>
				<path class="st2" d="M318.7,458.9c0,5.5-4.5,10-10,10c-5.5,0-10-4.5-10-10c0-5.5,4.5-10,10-10
					C314.2,448.9,318.7,453.4,318.7,458.9z"/>
				<path class="st2" d="M365.8,504.1c-1.8,1.6-4.1,2.6-6.7,2.6c-5.5,0-10-4.5-10-10c0-5.2,3.9-9.4,8.9-10L365.8,504.1z"/>
				<path class="st2" d="M428.1,643.2L428.1,643.2L428.1,643.2L234.8,467.3l94.3-44.5l0.4,0.2l13.7,30.5h-14.4
					c-2.3-9.2-10.5-15.6-20.1-15.6c-11.6,0-21,9.4-21,21c0,11.6,9.4,21,21,21c9.6,0,17.8-6.4,20.1-15.4h19.3l5.3,11.9
					c-8.8,2.5-15.3,10.6-15.3,20.2c0,11.6,9.4,21,21,21c4.1,0,8-1.2,11.3-3.3L428.1,643.2z"/>
				<polygon class="st3" points="329.1,422.8 234.8,467.3 234.7,467.3 291.5,403.8 				"/>
				<polygon class="st4" points="329.5,423 329.1,422.8 329.4,422.7 				"/>
				<polygon class="st5" points="390,453.6 343.2,453.6 329.5,423 				"/>
				<path class="st5" d="M369.2,496.6c0,3-1.3,5.6-3.3,7.5l-7.8-17.4c0.4,0,0.7-0.1,1.1-0.1C364.7,486.6,369.2,491.1,369.2,496.6z"
					/>
				<path class="st5" d="M428.1,481.7v9.4h-48.9c-2.4-9-10.6-15.4-20.1-15.4c-2,0-3.9,0.3-5.7,0.8l-5.3-11.9h63L428.1,481.7z"/>
				<path class="st5" d="M427.8,558.6c0,5.5-4.5,10-10,10c-5.5,0-10-4.5-10-10c0-5.5,4.5-10,10-10
					C423.3,548.5,427.8,553,427.8,558.6z"/>
				<path class="st5" d="M396.8,558.8c0,11.6,9.4,21,21,21c3.7-0.1,7.3-1.1,10.3-2.9v66.3l-57.7-128.9c4.3-2.7,7.5-7,8.8-12.1h48.9
					v38.3c-3.1-1.7-6.6-2.7-10.3-2.7C406.2,537.8,396.8,547.2,396.8,558.8z"/>
				<polygon class="st6" points="437.5,491.1 428.1,491.1 428.1,481.7 				"/>
				<path class="st6" d="M489.9,543.9h-2.1l-9.3,9.3h-40.6c-1.4-5.5-5-10-9.8-12.7v-38.3h20.4L489.9,543.9z"/>
				<path class="st6" d="M559.6,614.3l0,0.2l-131.5,28.7l0,0v-66.3c4.7-2.7,8.3-7.3,9.8-12.7h44.5l2.2-0.2v-1.3l7.8-7.8h8.3
					L559.6,614.3z"/>
				<polygon class="st5" points="559.6,614.5 555,757.9 554.5,758.3 428.2,643.4 428.1,643.2 				"/>
				<polygon class="st4" points="428.2,643.4 428.1,643.3 428.1,643.2 428.1,643.2 428.1,643.2 428.1,643.2 				"/>
				<polygon class="st7" points="728.5,577.8 555,757.9 559.6,614.5 629,599.4 635.1,598.1 				"/>
				<polygon class="st4" points="629,599.4 559.6,614.5 559.6,614.3 559.7,614.4 				"/>
				<polygon class="st2" points="732.9,382.4 540.8,300.4 542.1,299.8 695.8,319 695.9,319 				"/>
				<polygon class="st1" points="739.6,324.5 695.9,319 695.8,319 658.4,255 739.6,323.4 				"/>
				<polygon class="st0" points="740.3,385.5 732.9,382.4 732.9,382.4 695.9,319 739.6,324.5 				"/>
				<line class="st8" x1="508.6" y1="338.1" x2="508.6" y2="338.2"/>
				<line class="st8" x1="721.9" y1="579.1" x2="635.1" y2="598.1"/>
				<line class="st8" x1="428.1" y1="643.2" x2="428.1" y2="643.2"/>
				<polygon class="st0" points="512.2,296.1 508.6,338.1 508.6,338.1 401.1,282.3 				"/>
				<polygon class="st3" points="695.8,319 542.1,299.8 652.4,250 658.4,255 				"/>
			</g>
		</g>
	</g>
	<g>
		<linearGradient id="SVGID_1_" gradientUnits="userSpaceOnUse" x1="178.3746" y1="911.4908" x2="178.3746" y2="804.9108">
			<stop  offset="0" style="stop-color:#407DC1"/>
			<stop  offset="1" style="stop-color:#80E0E5"/>
		</linearGradient>
		<path class="st9" d="M199.7,806.9c-4.7-1.3-9.4-2-14.1-2c-14.2,0-25,4.5-32,13.5c-7,8.9-10.6,22.3-10.6,39.8
			c0,17.8,3.6,31.3,10.8,40c7.2,8.8,17.9,13.3,31.9,13.3c3.1,0,6.3-0.3,9.5-0.8c3.2-0.6,6.4-1.4,9.5-2.5c3.1-1.1,6-2.5,8.7-4
			l0.5-0.3v-17.6l-1.5,1c-4.2,2.8-8.4,4.9-12.5,6.2c-4.1,1.3-8.1,2-11.9,2c-6.4,0-11.7-1.3-15.7-3.7c-4-2.4-7.1-6.4-9.1-11.8
			c-2-5.5-3.1-12.7-3.1-21.5c0-9,1-16.4,3-21.8c2-5.3,5-9.3,9-11.8c4.1-2.5,9.3-3.8,15.5-3.8c4,0,8.1,0.7,12.3,2
			c4.1,1.3,8.4,3.5,12.6,6.3l1.5,1.1v-17.6l-0.5-0.3C208.9,810.1,204.4,808.2,199.7,806.9z"/>
		<linearGradient id="SVGID_2_" gradientUnits="userSpaceOnUse" x1="257.7398" y1="912.25" x2="257.7398" y2="829.8053">
			<stop  offset="0" style="stop-color:#407DC1"/>
			<stop  offset="1" style="stop-color:#80E0E5"/>
		</linearGradient>
		<path class="st10" d="M276,834.6c-4.9-3.2-11.1-4.8-18.5-4.8c-10.4,0-18.5,3.4-24.1,10c-5.5,6.6-8.3,17-8.3,31
			c0,13.1,2.7,23.4,8,30.6c5.4,7.2,13.7,10.9,24.6,10.9c10.4,0,18.6-3.7,24.2-10.9c5.6-7.2,8.4-17.5,8.4-30.5c0-8.6-1.2-16-3.5-22.1
			C284.6,842.5,280.9,837.8,276,834.6z M273,884.4c-1.1,3.8-2.9,6.8-5.4,9c-2.4,2.1-5.8,3.2-10,3.2c-6.2,0-10.4-2.2-12.9-6.6
			c-2.6-4.6-3.9-11-3.9-19.2c0-5.4,0.6-10.1,1.7-14c1.1-3.7,2.9-6.6,5.3-8.6c2.4-2,5.8-3,9.9-3c4.1,0,7.5,0.9,9.9,2.8
			c2.4,1.8,4.3,4.6,5.4,8.3c1.2,3.8,1.8,8.7,1.8,14.4C274.7,875.9,274.2,880.5,273,884.4z"/>
		<linearGradient id="SVGID_3_" gradientUnits="userSpaceOnUse" x1="332.5039" y1="912.25" x2="332.5039" y2="799.7499">
			<stop  offset="0" style="stop-color:#407DC1"/>
			<stop  offset="1" style="stop-color:#80E0E5"/>
		</linearGradient>
		<path class="st11" d="M348.3,833.5c-0.5-0.2-1-0.4-1.6-0.6c-2.6-1-5.1-1.7-7.6-2.2c-2.5-0.5-4.6-0.8-6.4-0.8
			c-10.6,0-18.7,3.7-23.9,10.9c-5.2,7.1-7.8,17-7.8,29.2c0,8.6,0.9,15.7,2.8,21.2c1.9,5.5,4.5,9.9,7.8,13c3.3,3.1,6.9,5.3,10.9,6.5
			c3.9,1.2,8,1.8,12.1,1.8c3.3,0,6.7-0.4,10.1-1.1c3.4-0.7,6.6-1.9,9.4-3.4c2.9-1.5,5.3-3.5,7.1-6c1.8-2.5,2.8-5.5,2.8-8.9v-93.2
			h-15.7V833.5z M348.3,891.3c0,1.3-1.2,2.5-3.6,3.4c-2.7,1.1-6,1.6-9.8,1.6c-4.7,0-8.4-1.1-11-3.4c-2.6-2.3-4.4-5.4-5.4-9.2
			c-1-4-1.5-8.5-1.5-13.5c0-5.4,0.6-10,1.9-13.7c1.2-3.6,3.2-6.3,5.7-8.1c2.6-1.8,5.9-2.8,10-2.8c2.3,0,4.7,0.3,7.1,1
			c2.3,0.6,4.4,1.6,6.5,2.9V891.3z"/>
		<linearGradient id="SVGID_4_" gradientUnits="userSpaceOnUse" x1="409.1118" y1="912.25" x2="409.1118" y2="829.8053">
			<stop  offset="0" style="stop-color:#407DC1"/>
			<stop  offset="1" style="stop-color:#80E0E5"/>
		</linearGradient>
		<path class="st12" d="M427.5,835.5c-4.5-3.8-10.5-5.7-17.8-5.7c-9.9,0-17.7,3.6-23.3,10.6c-5.5,7-8.3,17.4-8.3,30.8
			c0,8.7,1.3,16.2,4,22.3c2.7,6.1,6.5,10.8,11.4,14c4.9,3.1,10.8,4.7,17.4,4.7c4.9,0,9.3-0.5,13.2-1.5c3.9-1,7.5-2.2,10.6-3.8
			l0.6-0.3v-17.2l-1.5,0.9c-1.5,0.9-3.4,1.8-5.6,2.8c-2.1,0.9-4.5,1.7-7,2.3c-2.5,0.6-5.2,0.9-8.1,0.9c-6.3,0-11.1-2.1-14.3-6.2
			c-2.7-3.5-4.3-8.3-4.7-14.6h46.2l0-1.1c0.1-8.8-0.9-16.6-2.9-23.2C435.3,844.6,432,839.3,427.5,835.5z M394.4,861.5
			c0.3-2.4,0.7-4.5,1.3-6.2c1.2-3.7,2.9-6.4,5.2-7.9c2.3-1.6,5.1-2.3,8.4-2.3c5.1,0,8.8,1.6,11.2,5c1.8,2.6,3.1,6.5,3.6,11.6H394.4z
			"/>
		<linearGradient id="SVGID_5_" gradientUnits="userSpaceOnUse" x1="492.8752" y1="909.973" x2="492.8752" y2="806.5807">
			<stop  offset="0" style="stop-color:#407DC1"/>
			<stop  offset="1" style="stop-color:#80E0E5"/>
		</linearGradient>
		<polygon class="st13" points="515.2,878.5 470.2,806.6 454.8,806.6 454.8,910 470.6,910 470.6,837.1 516.5,910 531,910 531,806.6 
			515.2,806.6 		"/>
		<linearGradient id="SVGID_6_" gradientUnits="userSpaceOnUse" x1="576.775" y1="912.25" x2="576.775" y2="829.8053">
			<stop  offset="0" style="stop-color:#407DC1"/>
			<stop  offset="1" style="stop-color:#80E0E5"/>
		</linearGradient>
		<path class="st14" d="M595.1,835.5c-4.5-3.8-10.5-5.7-17.8-5.7c-9.9,0-17.7,3.6-23.3,10.6c-5.5,7-8.3,17.4-8.3,30.8
			c0,8.7,1.3,16.2,4,22.3c2.7,6.1,6.5,10.8,11.4,14c4.9,3.1,10.8,4.7,17.4,4.7c4.9,0,9.3-0.5,13.2-1.5c3.9-1,7.5-2.2,10.6-3.8
			l0.6-0.3v-17.2l-1.5,0.9c-1.5,0.9-3.4,1.8-5.6,2.8c-2.1,0.9-4.5,1.7-7,2.3c-2.5,0.6-5.2,0.9-8.1,0.9c-6.3,0-11.1-2.1-14.3-6.2
			c-2.7-3.5-4.3-8.4-4.7-14.6h46.2l0-1.1c0.1-8.8-0.9-16.6-2.9-23.2C603,844.6,599.6,839.3,595.1,835.5z M562,861.5
			c0.3-2.4,0.7-4.5,1.3-6.2c1.2-3.7,2.9-6.4,5.2-7.9c2.3-1.6,5.1-2.3,8.4-2.3c5.1,0,8.8,1.6,11.2,5c1.8,2.6,3.1,6.5,3.6,11.6H562z"
			/>
		<linearGradient id="SVGID_7_" gradientUnits="userSpaceOnUse" x1="645.6907" y1="911.4908" x2="645.6907" y2="829.9571">
			<stop  offset="0" style="stop-color:#407DC1"/>
			<stop  offset="1" style="stop-color:#80E0E5"/>
		</linearGradient>
		<path class="st15" d="M663.2,893.8c-3,0.9-6,1.4-9.2,1.4c-7.1,0-12.3-2-15.3-5.9c-3.1-4-4.7-10.5-4.7-19.3
			c0-8.5,1.7-14.7,4.9-18.4c3.2-3.7,8.2-5.6,14.7-5.6c3.1,0,6.2,0.4,9.1,1.3c2.9,0.8,5.9,2,8.8,3.5l1.4,0.7v-16.6l-0.6-0.3
			c-3-1.5-6.4-2.7-10-3.5c-3.6-0.8-7.2-1.2-10.7-1.2c-4.2,0-8.3,0.7-12.3,2c-4,1.4-7.7,3.7-10.8,6.8c-3.2,3.2-5.7,7.5-7.5,12.8
			c-1.8,5.3-2.7,11.9-2.7,19.6c0,7.6,1,14,2.8,19.1c1.9,5.1,4.5,9.3,7.7,12.4c3.2,3.1,6.8,5.3,10.8,6.7c3.9,1.3,8,2,12.1,2
			c3.8,0,7.5-0.4,10.9-1.2c3.4-0.8,6.7-2.1,9.8-3.7l0.6-0.3v-16.7l-1.5,0.8C669,891.7,666.2,892.9,663.2,893.8z"/>
		<linearGradient id="SVGID_8_" gradientUnits="userSpaceOnUse" x1="701.9276" y1="911.9464" x2="701.9276" y2="810.3754">
			<stop  offset="0" style="stop-color:#407DC1"/>
			<stop  offset="1" style="stop-color:#80E0E5"/>
		</linearGradient>
		<path class="st16" d="M707.3,810.4h-16.2v21.3h-10.6V847h10.6v42.3c0,7.4,1.8,13,5.5,16.9c3.6,3.8,8.6,5.8,14.8,5.8
			c1.8,0,3.7-0.2,5.8-0.6c2-0.4,3.9-1.1,5.6-1.9l0.6-0.3v-16.7l-1.5,1c-1,0.6-2.2,1.2-3.6,1.6c-1.4,0.4-2.8,0.6-4.2,0.6
			c-2.6,0-4.4-0.7-5.3-2.2c-1-1.6-1.5-4.1-1.5-7.4V847h16v-15.4h-16V810.4z"/>
		<linearGradient id="SVGID_9_" gradientUnits="userSpaceOnUse" x1="745.7483" y1="909.973" x2="745.7483" y2="832.0821">
			<stop  offset="0" style="stop-color:#407DC1"/>
			<stop  offset="1" style="stop-color:#80E0E5"/>
		</linearGradient>
		<polygon class="st17" points="737.8,832.1 737.8,910 753.7,910 753.6,832.1 		"/>
		<linearGradient id="SVGID_10_" gradientUnits="userSpaceOnUse" x1="745.7475" y1="825.9977" x2="745.7475" y2="800.6932">
			<stop  offset="0" style="stop-color:#407DC1"/>
			<stop  offset="1" style="stop-color:#80E0E5"/>
		</linearGradient>
		<polygon class="st18" points="733.9,813.3 745.7,826 757.6,813.3 745.7,800.7 		"/>
		<linearGradient id="SVGID_11_" gradientUnits="userSpaceOnUse" x1="800.803" y1="912.25" x2="800.803" y2="829.8053">
			<stop  offset="0" style="stop-color:#407DC1"/>
			<stop  offset="1" style="stop-color:#80E0E5"/>
		</linearGradient>
		<path class="st19" d="M819.1,834.6c-4.9-3.2-11.1-4.8-18.5-4.8c-10.4,0-18.5,3.4-24.1,10c-5.5,6.6-8.3,17-8.3,31
			c0,13.1,2.7,23.4,8,30.6c5.4,7.2,13.7,10.9,24.6,10.9c10.4,0,18.6-3.7,24.2-10.9c5.6-7.2,8.4-17.5,8.4-30.5c0-8.6-1.2-16-3.5-22.1
			C827.6,842.5,824,837.8,819.1,834.6z M816.1,884.4c-1.1,3.8-2.9,6.8-5.4,9c-2.4,2.1-5.8,3.2-10,3.2c-6.2,0-10.4-2.2-12.9-6.6
			c-2.6-4.6-3.9-11-3.9-19.2c0-5.4,0.6-10.1,1.7-14c1.1-3.7,2.9-6.6,5.3-8.6c2.4-2,5.8-3,9.9-3c4.1,0,7.5,0.9,9.9,2.8
			c2.4,1.8,4.3,4.6,5.4,8.3c1.2,3.8,1.8,8.7,1.8,14.4C817.8,875.9,817.2,880.5,816.1,884.4z"/>
		<linearGradient id="SVGID_12_" gradientUnits="userSpaceOnUse" x1="877.2755" y1="909.973" x2="877.2755" y2="829.9571">
			<stop  offset="0" style="stop-color:#407DC1"/>
			<stop  offset="1" style="stop-color:#80E0E5"/>
		</linearGradient>
		<path class="st20" d="M904.1,842.6c-2-4.3-5.1-7.5-9.3-9.6c-4.1-2-9.3-3.1-15.7-3.1c-2.6,0-5.4,0.2-8.3,0.6
			c-2.8,0.4-5.6,1-8.4,1.7c-2.7,0.7-5.4,1.6-7.8,2.5c-2.4,1-4.7,2-6.6,3.2l-0.5,0.3V910h15.8v-61.7c1.9-0.8,4-1.4,6.2-1.8
			c2.4-0.5,4.8-0.7,7.1-0.7c3.2,0,5.8,0.4,7.7,1.3c1.9,0.8,3.3,2,4.3,3.4c1,1.4,1.7,3,2.1,4.8c0.4,1.8,0.6,3.6,0.6,5.5V910h15.8
			v-51.5C907.1,852.2,906,846.8,904.1,842.6z"/>
	</g>
</g>
</svg>
