<?xml version="1.0" encoding="utf-8"?>
<!-- Generator: Adobe Illustrator 24.2.1, SVG Export Plug-In . SVG Version: 6.00 Build 0)  -->
<svg version="1.1" id="CodeNection_Vertical_Logo" xmlns="http://www.w3.org/2000/svg" xmlns:xlink="http://www.w3.org/1999/xlink"
	 x="0px" y="0px" viewBox="0 0 1050 1050" style="enable-background:new 0 0 1050 1050;" xml:space="preserve">
<style type="text/css">
	.st0{fill:none;}
	.st1{fill:#FF00FF;}
</style>
<g>
	<g>
		<g>
			<g>
				<path d="M199.7,802.7c-4.7-1.3-9.4-2-14.1-2c-14.2,0-25,4.5-32,13.5c-7,8.9-10.6,22.3-10.6,39.8c0,17.8,3.6,31.3,10.8,40
					c7.2,8.8,17.9,13.3,31.9,13.3c3.1,0,6.3-0.3,9.5-0.8c3.2-0.6,6.4-1.4,9.5-2.5c3.1-1.1,6-2.5,8.7-4l0.5-0.3v-17.6l-1.5,1
					c-4.2,2.8-8.4,4.9-12.5,6.2c-4.1,1.3-8.1,2-11.9,2c-6.4,0-11.7-1.3-15.7-3.7c-4-2.4-7.1-6.4-9.1-11.8c-2-5.5-3.1-12.7-3.1-21.5
					c0-9,1-16.4,3-21.8c2-5.3,5-9.3,9-11.8c4.1-2.5,9.3-3.8,15.5-3.8c4,0,8.1,0.7,12.3,2c4.1,1.3,8.4,3.5,12.6,6.3l1.5,1.1v-17.6
					l-0.5-0.3C208.9,805.9,204.4,804,199.7,802.7z"/>
				<path d="M276,830.3c-4.9-3.2-11.1-4.8-18.5-4.8c-10.4,0-18.5,3.4-24.1,10c-5.5,6.6-8.3,17-8.3,31c0,13.1,2.7,23.4,8,30.6
					c5.4,7.2,13.7,10.9,24.6,10.9c10.4,0,18.6-3.7,24.2-10.9c5.6-7.2,8.4-17.5,8.4-30.5c0-8.6-1.2-16-3.5-22.1
					C284.6,838.3,280.9,833.5,276,830.3z M273,880.2c-1.1,3.8-2.9,6.8-5.4,9c-2.4,2.1-5.8,3.2-10,3.2c-6.2,0-10.4-2.2-12.9-6.6
					c-2.6-4.6-3.9-11-3.9-19.2c0-5.4,0.6-10.1,1.7-14c1.1-3.7,2.9-6.6,5.3-8.6c2.4-2,5.8-3,9.9-3c4.1,0,7.5,0.9,9.9,2.8
					c2.4,1.8,4.3,4.6,5.4,8.3c1.2,3.8,1.8,8.7,1.8,14.4C274.7,871.7,274.2,876.3,273,880.2z"/>
				<path d="M348.3,829.2c-0.5-0.2-1-0.4-1.6-0.6c-2.6-1-5.1-1.7-7.6-2.2c-2.5-0.5-4.6-0.8-6.4-0.8c-10.6,0-18.7,3.7-23.9,10.9
					c-5.2,7.1-7.8,17-7.8,29.2c0,8.6,0.9,15.7,2.8,21.2c1.9,5.5,4.5,9.9,7.8,13c3.3,3.1,6.9,5.3,10.9,6.5c3.9,1.2,8,1.8,12.1,1.8
					c3.3,0,6.7-0.4,10.1-1.1c3.4-0.7,6.6-1.9,9.4-3.4c2.9-1.5,5.3-3.5,7.1-6c1.8-2.5,2.8-5.5,2.8-8.9v-93.2h-15.7V829.2z M348.3,887
					c0,1.3-1.2,2.5-3.6,3.4c-2.7,1.1-6,1.6-9.8,1.6c-4.7,0-8.4-1.1-11-3.4c-2.6-2.3-4.4-5.4-5.4-9.2c-1-4-1.5-8.5-1.5-13.5
					c0-5.4,0.6-10,1.9-13.7c1.2-3.6,3.2-6.3,5.7-8.1c2.6-1.8,5.9-2.8,10-2.8c2.3,0,4.7,0.3,7.1,1c2.3,0.6,4.4,1.6,6.5,2.9V887z"/>
				<path d="M427.5,831.3c-4.5-3.8-10.5-5.7-17.8-5.7c-9.9,0-17.7,3.6-23.3,10.6c-5.5,7-8.3,17.4-8.3,30.8c0,8.7,1.3,16.2,4,22.3
					c2.7,6.1,6.5,10.8,11.4,14c4.9,3.1,10.8,4.7,17.4,4.7c4.9,0,9.3-0.5,13.2-1.5c3.9-1,7.5-2.2,10.6-3.8l0.6-0.3v-17.2l-1.5,0.9
					c-1.5,0.9-3.4,1.8-5.6,2.8c-2.1,0.9-4.5,1.7-7,2.3c-2.5,0.6-5.2,0.9-8.1,0.9c-6.3,0-11.1-2.1-14.3-6.2
					c-2.7-3.5-4.3-8.3-4.7-14.6h46.2l0-1.1c0.1-8.8-0.9-16.6-2.9-23.2C435.3,840.3,432,835,427.5,831.3z M394.4,857.3
					c0.3-2.4,0.7-4.5,1.3-6.2c1.2-3.7,2.9-6.4,5.2-7.9c2.3-1.6,5.1-2.3,8.4-2.3c5.1,0,8.8,1.6,11.2,5c1.8,2.6,3.1,6.5,3.6,11.6
					H394.4z"/>
				<polygon points="515.2,874.3 470.2,802.3 454.8,802.3 454.8,905.7 470.6,905.7 470.6,832.9 516.5,905.7 531,905.7 531,802.3 
					515.2,802.3 				"/>
				<path d="M595.1,831.3c-4.5-3.8-10.5-5.7-17.8-5.7c-9.9,0-17.7,3.6-23.3,10.6c-5.5,7-8.3,17.4-8.3,30.8c0,8.7,1.3,16.2,4,22.3
					c2.7,6.1,6.5,10.8,11.4,14c4.9,3.1,10.8,4.7,17.4,4.7c4.9,0,9.3-0.5,13.2-1.5c3.9-1,7.5-2.2,10.6-3.8l0.6-0.3v-17.2l-1.5,0.9
					c-1.5,0.9-3.4,1.8-5.6,2.8c-2.1,0.9-4.5,1.7-7,2.3c-2.5,0.6-5.2,0.9-8.1,0.9c-6.3,0-11.1-2.1-14.3-6.2
					c-2.7-3.5-4.3-8.4-4.7-14.6h46.2l0-1.1c0.1-8.8-0.9-16.6-2.9-23.2C603,840.3,599.6,835,595.1,831.3z M562,857.3
					c0.3-2.4,0.7-4.5,1.3-6.2c1.2-3.7,2.9-6.4,5.2-7.9c2.3-1.6,5.1-2.3,8.4-2.3c5.1,0,8.8,1.6,11.2,5c1.8,2.6,3.1,6.5,3.6,11.6H562z
					"/>
				<path d="M663.2,889.6c-3,0.9-6,1.4-9.2,1.4c-7.1,0-12.3-2-15.3-5.9c-3.1-4-4.7-10.5-4.7-19.3c0-8.5,1.7-14.7,4.9-18.4
					c3.2-3.7,8.2-5.6,14.7-5.6c3.1,0,6.2,0.4,9.1,1.3c2.9,0.8,5.9,2,8.8,3.5l1.4,0.7v-16.6l-0.6-0.3c-3-1.5-6.4-2.7-10-3.5
					c-3.6-0.8-7.2-1.2-10.7-1.2c-4.2,0-8.3,0.7-12.3,2c-4,1.4-7.7,3.7-10.8,6.8c-3.2,3.2-5.7,7.5-7.5,12.8
					c-1.8,5.3-2.7,11.9-2.7,19.6c0,7.6,1,14,2.8,19.1c1.9,5.1,4.5,9.3,7.7,12.4c3.2,3.1,6.8,5.3,10.8,6.7c3.9,1.3,8,2,12.1,2
					c3.8,0,7.5-0.4,10.9-1.2c3.4-0.8,6.7-2.1,9.8-3.7l0.6-0.3v-16.7l-1.5,0.8C669,887.5,666.2,888.6,663.2,889.6z"/>
				<path d="M707.3,806.1h-16.2v21.3h-10.6v15.4h10.6v42.3c0,7.4,1.8,13,5.5,16.9c3.6,3.8,8.6,5.8,14.8,5.8c1.8,0,3.7-0.2,5.8-0.6
					c2-0.4,3.9-1.1,5.6-1.9l0.6-0.3v-16.7l-1.5,1c-1,0.6-2.2,1.2-3.6,1.6c-1.4,0.4-2.8,0.6-4.2,0.6c-2.6,0-4.4-0.7-5.3-2.2
					c-1-1.6-1.5-4.1-1.5-7.4v-39.2h16v-15.4h-16V806.1z"/>
				<polygon points="737.8,827.8 737.8,905.7 753.7,905.7 753.6,827.8 				"/>
				<polygon points="733.9,809.1 745.7,821.8 757.6,809.1 745.7,796.4 				"/>
				<path d="M819.1,830.3c-4.9-3.2-11.1-4.8-18.5-4.8c-10.4,0-18.5,3.4-24.1,10c-5.5,6.6-8.3,17-8.3,31c0,13.1,2.7,23.4,8,30.6
					c5.4,7.2,13.7,10.9,24.6,10.9c10.4,0,18.6-3.7,24.2-10.9c5.6-7.2,8.4-17.5,8.4-30.5c0-8.6-1.2-16-3.5-22.1
					C827.6,838.3,824,833.5,819.1,830.3z M816.1,880.2c-1.1,3.8-2.9,6.8-5.4,9c-2.4,2.1-5.8,3.2-10,3.2c-6.2,0-10.4-2.2-12.9-6.6
					c-2.6-4.6-3.9-11-3.9-19.2c0-5.4,0.6-10.1,1.7-14c1.1-3.7,2.9-6.6,5.3-8.6c2.4-2,5.8-3,9.9-3c4.1,0,7.5,0.9,9.9,2.8
					c2.4,1.8,4.3,4.6,5.4,8.3c1.2,3.8,1.8,8.7,1.8,14.4C817.8,871.7,817.2,876.3,816.1,880.2z"/>
				<path d="M904.1,838.4c-2-4.3-5.1-7.5-9.3-9.6c-4.1-2-9.3-3.1-15.7-3.1c-2.6,0-5.4,0.2-8.3,0.6c-2.8,0.4-5.6,1-8.4,1.7
					c-2.7,0.7-5.4,1.6-7.8,2.5c-2.4,1-4.7,2-6.6,3.2l-0.5,0.3v71.7h15.8v-61.7c1.9-0.8,4-1.4,6.2-1.8c2.4-0.5,4.8-0.7,7.1-0.7
					c3.2,0,5.8,0.4,7.7,1.3c1.9,0.8,3.3,2,4.3,3.4c1,1.4,1.7,3,2.1,4.8c0.4,1.8,0.6,3.6,0.6,5.5v49.3h15.8v-51.5
					C907.1,847.9,906,842.6,904.1,838.4z"/>
			</g>
		</g>
	</g>
	<g>
		<g>
			<polygon points="647.5,243.9 539.3,292.8 513.8,289.6 526.3,142 			"/>
			<polygon points="519.1,143.2 506.8,288.7 400.7,275.5 			"/>
			<polygon points="534.2,299.2 511.2,328.7 510.5,329 513.2,296.6 			"/>
			<path d="M498.3,334.7l-112.8,53.1c-3.8-3.6-8.9-5.8-14.4-5.8c-11.6,0-21,9.4-21,21c0,0.5,0,0.9,0.1,1.4l-21.6,10.2l-17.5-39
				l84-93.8l2.8,0.4L498.3,334.7z"/>
			<path d="M441.5,418.1l-25.2,32.4h-21.1l-60.7-30.7l17.3-8.2c3.3,7.4,10.7,12.6,19.3,12.6c9.6,0,17.8-6.4,20.2-15.4h40.9
				L441.5,418.1z"/>
			<path d="M501.6,341l-53.3,68.3L438,399v-1.5h-46.7c-0.4-1.4-0.9-2.7-1.5-3.9L501.6,341z"/>
			<polygon points="319.6,412.1 291.2,397.8 305.9,381.4 			"/>
			<path d="M316,455.8c0,5.6-4.5,10.1-10.1,10.1c-5.5,0-10.1-4.5-10.1-10.1c0-5.5,4.5-10.1,10.1-10.1
				C311.5,445.7,316,450.3,316,455.8z"/>
			<path d="M366.6,493.6c0,1.5-0.3,2.9-0.9,4.2v0c-0.6,1.3-1.4,2.4-2.4,3.3c-0.9,0.8-1.9,1.4-3,1.9c-1.2,0.5-2.4,0.7-3.7,0.7
				c-5.6,0-10.1-4.5-10.1-10.1c0-3.9,2.3-7.4,5.6-9c1-0.5,2.2-0.9,3.4-1c0.4,0,0.7-0.1,1.1-0.1c1,0,2,0.2,3,0.4v0
				C363.6,485.2,366.6,489.1,366.6,493.6z"/>
			<path d="M336.7,450.4h-10.6c-2.3-9.2-10.6-15.6-20.2-15.6c-1.5,0-3,0.2-4.5,0.5l23.5-11.1L336.7,450.4z"/>
			<path d="M419.1,634.6L234.7,466.7l58.3-27.5c-4.9,3.9-8.1,9.8-8.1,16.5c0,11.6,9.4,21,21,21c9.6,0,17.8-6.4,20.2-15.4h15.5
				l5.9,13.2c-7.1,3.4-12.1,10.6-12.1,19c0,11.6,9.4,21,21,21c2.9,0,5.7-0.6,8.2-1.7L419.1,634.6z"/>
			<polygon points="318.5,419.5 237.8,457.4 286.4,403.2 			"/>
			<polygon points="379.6,450.4 344.5,450.4 334.2,427.4 			"/>
			<path d="M422.2,475v13h-45.5c-2.4-9.1-10.6-15.4-20.2-15.4c-0.7,0-1.4,0-2.1,0.1l-5.1-11.3h59.3l7.4,7.5l0,0L422.2,475z"/>
			<path d="M425.4,555.7c0,2.9-1.2,5.5-3.2,7.3c-1.8,1.7-4.2,2.7-6.9,2.7c-5.5,0-10.1-4.5-10.1-10.1c0-5.6,4.5-10.1,10.1-10.1
				c2.7,0,5.1,1,6.9,2.7C424.1,550.1,425.4,552.8,425.4,555.7z"/>
			<path d="M394.3,555.9c0,11.6,9.4,21,21.1,21c2.4,0,4.7-0.5,6.8-1.3v48.5l-51.5-115c2.8-2.6,4.9-6,6-9.9h45.5V536
				c-2.2-0.7-4.5-1.1-6.9-1.1C403.7,534.8,394.3,544.3,394.3,555.9z"/>
			<polygon points="435,488 429.2,488 429.2,482.2 			"/>
			<path d="M487.5,541h-2.1l-9.3,9.3h-40.7c-1.1-4-3.3-7.5-6.3-10.2v-40.9h16.9L487.5,541z"/>
			<path d="M551.7,605.7l-122.5,26.8v-61.2c3-2.7,5.2-6.2,6.3-10.2H480l2.2-0.2v-1.3l7.8-7.8h8.4L551.7,605.7z"/>
			<polygon points="553.8,612.5 553.8,612.5 526.8,618.4 			"/>
			<polygon points="553.8,612.5 549.2,753 432.2,646.5 429.2,639.9 429.2,639.8 429.2,639.8 429.2,639.7 429.2,639.7 526.8,618.4 
							"/>
			<polygon points="726.7,574.9 556.3,751.7 560.9,611 626.9,596.6 633.1,595.3 			"/>
			<polygon points="626.9,596.6 560.9,611 560.9,610.9 588.1,605 			"/>
			<polygon points="725.5,376.7 547.9,300.9 691.7,318.8 			"/>
			<polygon points="734.4,317.1 696.1,312.3 696,312.3 664.5,258.3 			"/>
			<polygon points="738.5,382.2 736.4,381.3 700.5,320 737.9,324.6 			"/>
			<line class="st0" x1="720.1" y1="576.2" x2="633" y2="595.2"/>
			<polygon points="506.2,295.7 503.4,329.4 417.8,284.7 			"/>
			<polygon points="687.2,311.2 552.8,294.4 651.4,249.9 			"/>
		</g>
		<polygon class="st1" points="526.8,618.4 429.2,639.8 429.2,639.8 429.2,639.8 429.2,639.7 429.2,639.7 		"/>
		<polygon class="st1" points="588.1,605 560.9,611 560.9,610.9 		"/>
		<polygon class="st1" points="429.2,639.7 429.2,639.9 429.2,639.8 429.2,639.8 429.2,639.7 		"/>
		<polygon class="st1" points="419.3,634.8 419.2,634.8 419.1,634.6 		"/>
		<polygon class="st1" points="422.2,641.3 422.2,641.4 422.2,641.3 		"/>
		<path d="M381.2,403.1c0,5.5-4.5,10.1-10.1,10.1c-4.2,0-7.9-2.6-9.3-6.3c-0.5-1.1-0.7-2.3-0.7-3.6v-0.2c0-1.5,0.3-2.9,0.9-4.1
			c1.6-3.5,5.1-5.9,9.2-5.9c0.9,0,1.8,0.1,2.7,0.4c1.4,0.4,2.8,1.1,3.9,2c0.9,0.8,1.7,1.7,2.3,2.9
			C380.7,399.7,381.2,401.4,381.2,403.1z"/>
		<path class="st1" d="M301.5,435.3l-8.5,4C295.5,437.3,298.3,435.9,301.5,435.3z"/>
	</g>
</g>
</svg>
